<svg width="16" height="16" viewBox="0 0 16 16" fill="none" xmlns="http://www.w3.org/2000/svg">
<path d="M1.24175 8.39089C0.99103 8.19072 0.99103 7.80956 1.24175 7.60939L6.87913 3.10873C7.20659 2.84729 7.69109 3.08045 7.69109 3.49947L7.69109 7.76555C7.72051 7.71012 7.7611 7.65915 7.81285 7.61602L13.1793 3.14392C13.5049 2.87253 13.9994 3.1041 13.9994 3.52802L13.9994 12.4722C13.9994 12.8962 13.5049 13.1277 13.1793 12.8564L7.81285 8.38424C7.7611 8.34111 7.72051 8.29014 7.69109 8.23471L7.69109 12.5008C7.69109 12.9198 7.20659 13.153 6.87913 12.8915L1.24175 8.39089ZM6.69109 11.4618L6.69109 4.53846L2.3551 8.00014L6.69109 11.4618ZM12.9994 11.4047L12.9994 4.59556L8.91396 8.00013L12.9994 11.4047Z" fill="black" fill-opacity="0.9"/>
</svg>
