<svg width="16" height="16" viewBox="0 0 16 16" fill="none" xmlns="http://www.w3.org/2000/svg">
<path d="M7.49755 8.19554L5.9441 9.72031L5.2282 9.02211L8.00185 6.29968L10.8007 9.02936L10.087 9.72984L8.50841 8.19024L8.50847 11.999L7.49761 11.9991L7.49755 8.19554Z" fill="black" fill-opacity="0.9"/>
<path d="M4.49903 5.49902H11.499V4.49902H4.49903V5.49902Z" fill="black" fill-opacity="0.9"/>
<path d="M2.99903 1.99902C2.44674 1.99902 1.99903 2.44674 1.99903 2.99902L1.99902 12.999C1.99902 13.5513 2.44674 13.999 2.99902 13.999L12.999 13.999C13.5513 13.999 13.999 13.5513 13.999 12.999L13.999 2.99903C13.999 2.44674 13.5513 1.99903 12.999 1.99903L2.99903 1.99902ZM12.999 2.99903L12.999 12.999L2.99902 12.999L2.99903 2.99902L12.999 2.99903Z" fill="black" fill-opacity="0.9"/>
</svg>
