<svg width="16" height="16" viewBox="0 0 16 16" fill="none" xmlns="http://www.w3.org/2000/svg">
<path d="M10.8796 8C10.8796 6.40955 9.59033 5.12018 7.99976 5.12018C6.40918 5.12018 5.11987 6.40955 5.11987 8C5.11987 9.59052 6.40918 10.8799 7.99976 10.8799C9.59033 10.8799 10.8796 9.59052 10.8796 8ZM9.87964 8C9.87964 9.03821 9.03784 9.87988 7.99976 9.87988C6.96143 9.87988 6.11987 9.03821 6.11987 8C6.11987 6.96179 6.96143 6.12018 7.99976 6.12018C9.03784 6.12018 9.87964 6.96179 9.87964 8Z" fill="black" fill-opacity="0.9"/>
<path d="M1.11694 8.22998C2.46143 10.87 5.10156 12.5 8.00488 12.5C10.8984 12.5 13.5386 10.87 14.8831 8.22998L15 8L14.8831 7.77002C13.5386 5.14001 10.8984 3.5 8.00488 3.5C5.10156 3.5 2.46143 5.14001 1.11694 7.77002L1 8L1.11694 8.22998ZM8.00488 11.5C5.5498 11.5 3.3186 10.17 2.1106 8C3.3186 5.83002 5.5498 4.5 8.00488 4.5C10.4502 4.5 12.6814 5.83002 13.8992 8C12.6909 10.17 10.4502 11.5 8.00488 11.5Z" fill="black" fill-opacity="0.9"/>
</svg>
