<svg width="16" height="16" viewBox="0 0 16 16" fill="none" xmlns="http://www.w3.org/2000/svg">
<path d="M13.9996 11.057C14.0094 11.6559 13.8406 12.3012 13.4825 12.8171L13.3562 12.984C13.1203 13.3294 12.7802 13.5821 12.3763 13.7332C12.0957 13.8381 11.92 13.8685 11.467 13.9205C9.51866 14.1027 7.38954 13.1933 5.28719 11.323C3.8828 10.071 2.83116 8.50499 2.32479 6.90403C2.11109 6.22702 1.99984 5.57663 1.99984 4.98798C1.99984 4.28214 2.15924 3.67073 2.47982 3.21147C2.78397 2.79374 3.36194 2.44674 4.23086 2.11878C4.65696 1.95794 5.13791 2.10536 5.40072 2.47733L7.06606 4.83476C7.34085 5.22375 7.30316 5.75255 6.97604 6.09867L6.7593 6.32011L6.49703 6.5743C6.43153 6.6297 6.33187 6.76327 6.33187 6.76327C6.30907 7.06999 6.63615 7.70105 7.58846 8.67556L7.87185 8.94138C8.75003 9.75129 8.98642 9.81626 9.25619 9.62839L9.34609 9.55496C9.44154 9.48235 9.69138 9.30846 10.2242 8.94214C10.5298 8.73201 10.9267 8.7083 11.2551 8.88056L11.4976 9.0088C13.1606 9.89658 13.9203 10.4309 13.9937 10.979L13.9996 11.057ZM12.9997 11.073C13.001 11.1552 12.8854 11.0286 12.6447 10.8548C12.2936 10.6013 11.7532 10.2789 11.0283 9.89185L10.7907 9.76617L10.0027 10.31C9.98437 10.3219 9.97594 10.3267 9.97927 10.3228C9.11992 10.9978 8.37978 10.8085 6.88619 9.38723C5.74004 8.21483 5.28626 7.33935 5.33425 6.69444C5.35666 6.34154 5.59986 6.01838 5.8359 5.82497C5.9363 5.72841 6.03513 5.63132 6.12417 5.54105L6.24929 5.41174L4.58401 3.05435C3.88251 3.31913 3.4487 3.57953 3.29391 3.79204C3.10764 4.05906 2.99984 4.47276 2.99984 4.98798C2.99984 5.46839 3.09399 6.01871 3.27834 6.60274C3.72853 8.02606 4.67843 9.44064 5.95223 10.5762C7.86462 12.2775 9.73829 13.0778 11.3635 12.9259L11.621 12.8938C11.799 12.8685 11.8995 12.8438 12.0261 12.7965C12.2452 12.7145 12.4181 12.5861 12.5589 12.3819C12.8261 12.0556 12.9688 11.638 12.9954 11.2417L12.9997 11.073Z" fill="black" fill-opacity="0.9"/>
</svg>
