<svg width="16" height="16" viewBox="0 0 16 16" fill="none" xmlns="http://www.w3.org/2000/svg">
<path d="M7 4H9V2H7V4ZM10 2V4H13C13.5523 4 14 4.44772 14 5V7C14 7.50427 13.6267 7.92137 13.1414 7.99007L13.8369 12.8586C13.923 13.461 13.4555 14 12.847 14H3.15301C2.54446 14 2.077 13.461 2.16306 12.8586L2.85856 7.99007C2.37326 7.92137 2 7.50427 2 7V5C2 4.44772 2.44772 4 3 4H6V2C6 1.44772 6.44772 1 7 1H9C9.55228 1 10 1.44772 10 2ZM12.1327 7H13V5H9H7H3L3 7H3.8673H12.1327ZM12.1327 8H3.8673L3.15301 13H5V11H6V13H7.5V11H8.5V13H10V11H11V13H12.847L12.1327 8Z" fill="black" fill-opacity="0.9"/>
</svg>
