<svg width="16" height="16" viewBox="0 0 16 16" fill="none" xmlns="http://www.w3.org/2000/svg">
<path d="M4.7309 7.26159L4.88063 6.56017C5.19679 5.07911 6.48401 3.99902 8 3.99902C9.51599 3.99902 10.8032 5.07911 11.1194 6.56017L11.2691 7.26159L11.9815 7.34467C13.1039 7.47556 14 8.45189 14 9.66569C14 10.9706 12.9634 11.999 11.7333 11.999H4.26667C3.03657 11.999 2 10.9706 2 9.66569C2 8.45189 2.89613 7.47556 4.0185 7.34467L4.7309 7.26159ZM12.0973 6.3514C11.6867 4.42759 10.0067 2.99902 8 2.99902C5.99333 2.99902 4.31333 4.42759 3.90267 6.3514C2.26933 6.54188 1 7.9514 1 9.66569C1 11.5038 2.46533 12.999 4.26667 12.999H11.7333C13.5347 12.999 15 11.5038 15 9.66569C15 7.9514 13.7307 6.54188 12.0973 6.3514Z" fill="black" fill-opacity="0.9"/>
</svg>
