<svg width="16" height="16" viewBox="0 0 16 16" fill="none" xmlns="http://www.w3.org/2000/svg">
<path d="M3.49534 1C3.02005 1 2.5 1.33727 2.5 1.92191V14.0781C2.5 14.6627 3.02005 15 3.49534 15H12.4289C12.9041 15 13.4242 14.6627 13.4242 14.0781V5.70431C13.4242 5.44241 13.3215 5.19096 13.138 5.004L9.50392 1.29969C9.31587 1.108 9.05862 1 8.79009 1H3.49534ZM3.5 11.3636V2H8.50011V6.0092H12.4242V10.2878L10.5 8.3636L7.5 11.3636L5.5 9.3636L3.5 11.3636ZM3.5 12.6364L5.5 10.6364L6.8636 12L4.8636 14H3.5V12.6364ZM10.5 9.6364L12.4242 11.5606V14H6.1364L10.5 9.6364ZM11.7423 5.0092H9.50011V2.72374L11.7423 5.0092Z" fill="black" fill-opacity="0.9"/>
</svg>
