<svg width="16" height="16" viewBox="0 0 16 16" fill="none" xmlns="http://www.w3.org/2000/svg">
<path d="M3.5 2V14H11.2336V15H3.49534C3.02005 15 2.5 14.6627 2.5 14.0781V1.92191C2.5 1.33727 3.02005 1 3.49534 1H8.86589C9.13442 1 9.39167 1.108 9.57972 1.29969L13.2138 5.004C13.3973 5.19096 13.5 5.44241 13.5 5.70431V7.5H12.5V6.01275H8.50008V2H3.5ZM9.50008 5.01275H11.8215L9.50008 2.64645V5.01275Z" fill="black" fill-opacity="0.9"/>
<path d="M4.48145 9H6.48145V9.8H5.88145V12.2H6.48145V13H4.48145V12.2H5.08145V9.8H4.48145V9Z" fill="black" fill-opacity="0.9"/>
<path d="M8.99999 9V9.8H7.79246V12.2H8.99999V13H7.79246C7.35479 13 6.99999 12.6418 6.99999 12.2V9.8C6.99999 9.35817 7.35479 9 7.79246 9H8.99999Z" fill="black" fill-opacity="0.9"/>
<path d="M13.7972 9.8L13.7972 13H13L13 9H14.7434C15.1837 9 15.5406 9.35817 15.5406 9.8V13H14.7434V9.8H13.7972Z" fill="black" fill-opacity="0.9"/>
<path d="M9.5 9.80928C9.5 9.36899 9.85693 9.01205 10.2972 9.01205H11.4931C11.9334 9.01205 12.2903 9.36899 12.2903 9.80928V12.201C12.2903 12.6413 11.9334 12.9982 11.4931 12.9982H10.2972C9.85693 12.9982 9.5 12.6413 9.5 12.201L9.5 9.80928ZM10.2972 12.201H11.4931V9.80928H10.2972L10.2972 12.201Z" fill="black" fill-opacity="0.9"/>
</svg>
