<svg width="16" height="16" viewBox="0 0 16 16" fill="none" xmlns="http://www.w3.org/2000/svg">
<path d="M2.00293 2H10.9975C11.5498 2 11.9975 2.44772 11.9975 3C11.9975 3.27469 11.8845 3.53729 11.685 3.72615L8.00004 7.214V12.75L5.00004 15L4.99904 7.214L1.31537 3.72612C0.945188 3.3756 0.902004 2.80934 1.19622 2.40887L1.27681 2.31243C1.46567 2.11298 1.72825 2 2.00293 2ZM10.9975 3H2.00293L6.00004 6.78486L5.99904 12.999L7.00004 12.249V6.78485L10.9975 3Z" fill="black" fill-opacity="0.9"/>
<path d="M10.7071 10L12.1214 11.4143L13.5357 10L14.2428 10.7071L12.8285 12.1214L14.2426 13.5355L13.5355 14.2426L12.1214 12.8285L10.7073 14.2426L10.0002 13.5355L11.4143 12.1214L10 10.7071L10.7071 10Z" fill="black" fill-opacity="0.9"/>
</svg>
