<svg width="16" height="16" viewBox="0 0 16 16" fill="none" xmlns="http://www.w3.org/2000/svg">
<path d="M14.7576 7.60938C15.0084 7.80955 15.0084 8.19071 14.7576 8.39087L9.12025 12.8915C8.79279 13.153 8.30829 12.9198 8.30829 12.5008L8.30829 8.23471C8.27887 8.29015 8.23829 8.34112 8.18653 8.38424L2.8201 12.8564C2.49443 13.1277 2 12.8962 2 12.4722L2 3.52803C2 3.1041 2.49443 2.87253 2.8201 3.14392L8.18653 7.61603C8.23829 7.65916 8.27887 7.71013 8.30829 7.76556L8.30829 3.49947C8.30829 3.08045 8.79279 2.84729 9.12025 3.10873L14.7576 7.60938ZM9.30829 4.53845L9.30829 11.4618L13.6443 8.00013L9.30829 4.53845ZM3 4.59556L3 11.4047L7.08542 8.00014L3 4.59556Z" fill="black" fill-opacity="0.9"/>
</svg>
