<svg width="16" height="16" viewBox="0 0 16 16" fill="none" xmlns="http://www.w3.org/2000/svg">
<path d="M7.39404 11.6C7.39404 11.2686 7.66267 11 7.99404 11C8.32541 11 8.59404 11.2686 8.59404 11.6C8.59404 11.9314 8.32541 12.2 7.99404 12.2C7.66267 12.2 7.39404 11.9314 7.39404 11.6Z" fill="black" fill-opacity="0.9"/>
<path d="M7.99409 4.0061C6.65645 4.0061 5.56909 5.09346 5.56909 6.4311H6.56909C6.56909 5.64574 7.20873 5.0061 7.99409 5.0061C8.77945 5.0061 9.41909 5.64574 9.41909 6.4311C9.41909 6.96885 8.9746 7.50808 8.39445 7.74376L8.3919 7.74481C7.86235 7.96335 7.49414 8.48413 7.49414 9.0925V10H8.49414V9.0925C8.49414 8.89828 8.60945 8.73731 8.77236 8.66961C9.59969 8.33289 10.4191 7.49869 10.4191 6.4311C10.4191 5.09346 9.33173 4.0061 7.99409 4.0061Z" fill="black" fill-opacity="0.9"/>
<path d="M14.9941 8C14.9941 4.13401 11.8601 1 7.99414 1C4.12815 0.999998 0.994142 4.134 0.994141 8C0.994138 11.866 4.12815 15 7.99414 15C11.8601 15 14.9941 11.866 14.9941 8ZM13.9941 8C13.9941 11.3137 11.3078 14 7.99414 14C4.68043 14 1.99414 11.3137 1.99414 8C1.99414 4.68629 4.68043 2 7.99414 2C11.3079 2 13.9941 4.68629 13.9941 8Z" fill="black" fill-opacity="0.9"/>
</svg>
