<svg width="16" height="16" viewBox="0 0 16 16" fill="none" xmlns="http://www.w3.org/2000/svg">
<path d="M7.90582 2.79339C10.8499 2.79339 13.2095 5.14005 13.2095 8.00171C13.2095 10.8634 10.8499 13.21 7.90581 13.21C5.44426 13.21 3.39128 11.5695 2.78447 9.35914L1.75098 9.52779C2.44243 12.2419 4.93584 14.2517 7.90581 14.2517C11.4103 14.2517 14.2512 11.4535 14.2512 8.00171C14.2512 4.54993 11.4103 1.75171 7.90582 1.75171C5.80622 1.75171 3.9448 2.75613 2.78981 4.30376L2.78981 2.64486H1.75098V5.79135C1.75098 6.0675 1.97483 6.29135 2.25098 6.29135L5.37759 6.29135V5.24683H3.40454C4.33896 3.77685 5.99992 2.79339 7.90582 2.79339Z" fill="black" fill-opacity="0.9"/>
<path d="M6.99951 5.5V8.38893L9.64596 11.0354L10.3531 10.3283L7.99951 7.97471V5.5H6.99951Z" fill="black" fill-opacity="0.9"/>
</svg>
