<svg width="16" height="16" viewBox="0 0 16 16" fill="none" xmlns="http://www.w3.org/2000/svg">
<path d="M1.09961 7.9C1.09961 4.08927 4.18879 1.00005 7.99951 1C11.8103 1 14.8996 4.08923 14.8996 7.9V8.1C14.8996 11.9108 11.8104 15 7.99961 15C4.18889 14.9999 1.09961 11.9107 1.09961 8.1V7.9ZM13.8863 8.5H10.8864C10.79 10.419 10.1379 12.3152 8.93018 13.927C11.6178 13.5012 13.7014 11.2606 13.8863 8.5ZM10.8864 7.5H13.8863C13.7014 4.73941 11.6178 2.4988 8.93018 2.07297C10.1379 3.68475 10.79 5.58102 10.8864 7.5ZM9.88504 7.5C9.78575 5.72473 9.15724 3.97354 7.99951 2.50303C6.84178 3.97354 6.21327 5.72473 6.11399 7.5H9.88504ZM5.11258 8.5H2.11295C2.29776 11.2605 4.38129 13.5011 7.06882 13.927C5.86111 12.3152 5.20903 10.419 5.11258 8.5ZM5.11258 7.5C5.20903 5.58103 5.86111 3.68478 7.06882 2.07301C4.38129 2.49893 2.29776 4.73949 2.11295 7.5H5.11258ZM9.88504 8.5H6.11399C6.21327 10.2753 6.84178 12.0265 7.99951 13.497C9.15724 12.0265 9.78575 10.2753 9.88504 8.5Z" fill="black" fill-opacity="0.9"/>
</svg>
