<svg width="16" height="16" viewBox="0 0 16 16" fill="none" xmlns="http://www.w3.org/2000/svg">
<path d="M6.56066 12.2175L8.68198 10.0962L9.38909 10.8033L7.26777 12.9246C6.29146 13.9009 4.70854 13.9009 3.73223 12.9246C2.75592 11.9483 2.75592 10.3654 3.73223 9.38909L5.85355 7.26777L6.56066 7.97487L4.43934 10.0962C3.85355 10.682 3.85355 11.6317 4.43934 12.2175C5.02513 12.8033 5.97487 12.8033 6.56066 12.2175Z" fill="black" fill-opacity="0.9"/>
<path d="M10.8033 9.38909L10.0962 8.68198L12.2175 6.56066C12.8033 5.97487 12.8033 5.02513 12.2175 4.43934C11.6317 3.85355 10.682 3.85355 10.0962 4.43934L7.97487 6.56066L7.26777 5.85355L9.38909 3.73223C10.3654 2.75592 11.9483 2.75592 12.9246 3.73223C13.9009 4.70854 13.9009 6.29146 12.9246 7.26777L10.8033 9.38909Z" fill="black" fill-opacity="0.9"/>
<path d="M9.38924 6.56068L10.0963 7.26779L7.26792 10.0962L6.56081 9.38911L9.38924 6.56068Z" fill="black" fill-opacity="0.9"/>
</svg>
