<svg width="16" height="16" viewBox="0 0 16 16" fill="none" xmlns="http://www.w3.org/2000/svg">
<path d="M6 11V10H10V11H6Z" fill="black" fill-opacity="0.9"/>
<path d="M4.5 6V5C4.5 3.067 6.067 1.5 8 1.5C9.933 1.5 11.5 3.067 11.5 5H10.5C10.5 3.61929 9.38071 2.5 8 2.5C6.61929 2.5 5.5 3.61929 5.5 5V6H13C13.2761 6 13.5 6.22386 13.5 6.5V13.5C13.5 13.7761 13.2761 14 13 14H3C2.72386 14 2.5 13.7761 2.5 13.5V6.5C2.5 6.22386 2.72386 6 3 6H4.5ZM3.5 13H12.5V7H3.5V13Z" fill="black" fill-opacity="0.9"/>
</svg>
