<svg width="16" height="16" viewBox="0 0 16 16" fill="none" xmlns="http://www.w3.org/2000/svg">
<path d="M6 9.99986V10.9999H10V9.99986H6Z" fill="black" fill-opacity="0.9"/>
<path d="M4.5 4.99072V5.99986H3C2.72386 5.99986 2.5 6.22372 2.5 6.49986V13.4999C2.5 13.776 2.72386 13.9999 3 13.9999H13C13.2761 13.9999 13.5 13.776 13.5 13.4999V6.49986C13.5 6.22372 13.2761 5.99986 13 5.99986H11.5V4.99072C11.5 3.05773 9.933 1.49072 8 1.49072C6.067 1.49072 4.5 3.05773 4.5 4.99072ZM10.5 5.99986H5.5V4.99072C5.5 3.61001 6.61929 2.49072 8 2.49072C9.38071 2.49072 10.5 3.61001 10.5 4.99072V5.99986ZM3.5 6.99986H12.5V12.9999H3.5V6.99986Z" fill="black" fill-opacity="0.9"/>
</svg>
