<svg width="16" height="16" viewBox="0 0 16 16" fill="none" xmlns="http://www.w3.org/2000/svg">
<path d="M10.6853 1C10.7719 1.78958 10.4533 2.58273 9.98315 3.15353C9.51132 3.72324 8.73929 4.1671 7.98233 4.10843C7.88007 3.33311 8.2617 2.52735 8.69816 2.02125C9.18535 1.45099 10.0067 1.02742 10.6853 1Z" fill="black" fill-opacity="0.9"/>
<path d="M13.1272 5.60474C12.9817 5.69544 11.6653 6.51624 11.6817 8.16735C11.6996 10.1607 13.3912 10.8541 13.4873 10.8935C13.4896 10.8945 13.4914 10.8952 13.4914 10.8952C13.4905 10.8979 13.4888 10.9033 13.4863 10.9115C13.4439 11.0464 13.1708 11.9167 12.5571 12.8138C11.9951 13.6358 11.4125 14.4533 10.4935 14.47C10.0517 14.4785 9.75659 14.3508 9.44969 14.218C9.12861 14.0791 8.79466 13.9346 8.26648 13.9346C7.71299 13.9346 7.36349 14.0836 7.02685 14.2271C6.73518 14.3514 6.45316 14.4716 6.05647 14.4873C5.16983 14.521 4.49403 13.5998 3.92734 12.7812C2.76818 11.1063 1.88292 8.04809 3.0725 5.98448C3.66195 4.95912 4.71774 4.30991 5.86318 4.29291C6.35664 4.28421 6.83477 4.47406 7.25323 4.64022C7.57316 4.76725 7.85821 4.88043 8.08855 4.88043C8.29546 4.88043 8.57287 4.77102 8.89633 4.64344C9.40558 4.44259 10.029 4.19671 10.6711 4.26193C11.1106 4.28002 12.3454 4.43904 13.138 5.59791C13.1359 5.59931 13.1323 5.60158 13.1272 5.60474Z" fill="black" fill-opacity="0.9"/>
</svg>
