<svg width="16" height="16" viewBox="0 0 16 16" fill="none" xmlns="http://www.w3.org/2000/svg">
<path d="M1.53218 5.58743C1.36714 5.70031 1.29592 5.88745 1.31854 6.06441L1.31854 9.93585C1.29592 10.1128 1.36714 10.2999 1.53218 10.4128L7.71758 14.6434C7.88776 14.7598 8.11195 14.7598 8.28213 14.6434L14.4675 10.4128C14.6286 10.3027 14.7003 10.1218 14.6826 9.94865V6.05163C14.7003 5.87849 14.6286 5.6976 14.4675 5.58743L8.28212 1.35683C8.11194 1.24043 7.88776 1.24043 7.71757 1.35683L1.53218 5.58743ZM2.43442 6.00013L7.57485 2.48425V5.45446L4.60573 7.48523L2.43442 6.00013ZM8.42485 5.45446V2.48425L13.5653 6.00013L11.394 7.48524L8.42485 5.45446ZM3.85291 8.00013L2.16854 9.15218V6.84808L3.85291 8.00013ZM13.8326 6.84708V9.15319L12.1468 8.00014L13.8326 6.84708ZM11.394 8.51504L13.5653 10.0001L8.42485 13.516V10.5458L11.394 8.51504ZM7.57485 10.5458V13.516L2.43442 10.0001L4.60573 8.51503L7.57485 10.5458ZM10.6412 8.00014L7.99985 9.80669L5.35855 8.00013L7.99985 6.19357L10.6412 8.00014Z" fill="black" fill-opacity="0.9"/>
</svg>
