<svg width="16" height="16" viewBox="0 0 16 16" fill="none" xmlns="http://www.w3.org/2000/svg">
<path d="M13.4765 9.77042C13.3519 9.3686 13.1817 8.89989 13.0087 8.45074L12.3789 6.87895C12.3789 6.8603 12.3876 6.55085 12.3876 6.39113C12.3876 3.70171 11.118 1 7.99669 1C4.87541 1 3.60624 3.70171 3.60624 6.39022C3.60624 6.54994 3.61443 6.85939 3.61489 6.87804L2.98463 8.44983C2.81216 8.89989 2.64197 9.3686 2.51682 9.76951C1.9216 11.6849 2.11455 12.4776 2.26153 12.4953C2.57644 12.5336 3.4902 11.0532 3.4902 11.0532C3.4902 11.9106 3.93161 13.0291 4.88633 13.8369C4.52911 13.947 4.09179 14.1163 3.81011 14.3238C3.55755 14.5108 3.58895 14.701 3.63446 14.7788C3.83468 15.116 7.06654 14.9941 7.99942 14.889C8.93275 14.9941 12.1646 15.1165 12.3644 14.7788C12.4099 14.7019 12.4417 14.5117 12.1887 14.3238C11.9075 14.1163 11.4693 13.947 11.112 13.8369C12.0677 13.0291 12.5082 11.9106 12.5082 11.0532C12.5082 11.0532 13.4183 12.5336 13.7346 12.4953C13.8793 12.4785 14.0722 11.6858 13.4765 9.77042Z" fill="black" fill-opacity="0.9"/>
</svg>
