<svg width="16" height="16" viewBox="0 0 16 16" fill="none" xmlns="http://www.w3.org/2000/svg">
<path d="M9 3V5H10V2.5C10 2.22386 9.77614 2 9.5 2H1.5C1.22386 2 1 2.22386 1 2.5V13.5C1 13.7761 1.22386 14 1.5 14H9.5C9.77614 14 10 13.7761 10 13.5V11H9V13H2V3H9Z" fill="black" fill-opacity="0.9"/>
<path d="M11.2316 5.25423L13.4774 7.50001L5.99994 7.49999L5.99994 8.49999L13.4774 8.50001L11.2316 10.7458L11.9387 11.4529L15.038 8.35356C15.2333 8.1583 15.2333 7.84172 15.038 7.64646L11.9387 4.54712L11.2316 5.25423Z" fill="black" fill-opacity="0.9"/>
</svg>
