<svg width="16" height="16" viewBox="0 0 16 16" fill="none" xmlns="http://www.w3.org/2000/svg">
<path d="M14.0228 4.43168C14.0438 4.46717 14.0442 4.51119 14.0238 4.54704C14.0034 4.58294 13.9653 4.60507 13.9241 4.60507H8.30612C8.30286 4.60507 8.29955 4.60493 8.2963 4.60461C8.19614 4.59607 8.09649 4.59166 8 4.59166C6.44508 4.59166 5.08772 5.64321 4.69917 7.14885C4.68751 7.19397 4.64973 7.22758 4.60355 7.23387C4.59837 7.23456 4.59313 7.23492 4.58799 7.23492C4.54742 7.23492 4.50932 7.21335 4.48866 7.17754L2.5181 3.76427C2.49447 3.72337 2.49832 3.67218 2.52784 3.63527C3.86532 1.96052 5.85984 1 8 1C9.23664 1 10.4522 1.32694 11.515 1.94551C12.5462 2.54562 13.4134 3.40534 14.0228 4.43168Z" fill="black" fill-opacity="0.9"/>
<path d="M8 10.6167C6.55745 10.6167 5.38388 9.4431 5.38388 8.00048C5.38388 6.55787 6.55745 5.38421 8 5.38421C9.44246 5.38421 10.6159 6.55787 10.6159 8.00048C10.6159 9.44305 9.44246 10.6167 8 10.6167Z" fill="black" fill-opacity="0.9"/>
<path d="M9.03439 11.3252C9.00589 11.2883 8.95806 11.2725 8.91294 11.2849C8.61655 11.3675 8.30942 11.4093 8 11.4093C6.68533 11.4093 5.47367 10.6382 4.91307 9.44484C4.91169 9.4419 4.91018 9.43906 4.90857 9.43621L2.09755 4.56715C2.07708 4.53157 2.03917 4.50977 1.99818 4.50977C1.95696 4.51 1.9184 4.53226 1.8982 4.56816C1.31062 5.61089 1 6.79777 1 8.00048C1 9.68772 1.60866 11.3175 2.71383 12.5896C3.80803 13.849 5.31443 14.6778 6.95565 14.9234C6.96134 14.9243 6.96703 14.9246 6.97268 14.9246C7.01321 14.9246 7.05131 14.903 7.07201 14.8672L9.04307 11.4529C9.06639 11.4125 9.06294 11.362 9.03439 11.3252Z" fill="black" fill-opacity="0.9"/>
<path d="M10.465 5.37081H14.4113C14.4585 5.37081 14.5009 5.39968 14.5181 5.44366C14.8379 6.25811 15 7.11832 15 8.00048C15 9.85642 14.2811 11.605 12.9757 12.9241C11.6714 14.2421 9.93246 14.9793 8.07941 15H8.07812C8.03741 15 7.99968 14.9784 7.97907 14.9432C7.95828 14.9076 7.95814 14.8636 7.97875 14.8279L10.7946 9.95035C10.7962 9.94755 10.7979 9.94484 10.7998 9.94218C11.1981 9.36956 11.4086 8.69815 11.4086 8.00048C11.4086 7.07889 11.0449 6.21487 10.3846 5.56751C10.3514 5.53492 10.3411 5.48534 10.3587 5.44219C10.3763 5.39904 10.4183 5.37081 10.465 5.37081Z" fill="black" fill-opacity="0.9"/>
</svg>
