<svg width="16" height="16" viewBox="0 0 16 16" fill="none" xmlns="http://www.w3.org/2000/svg">
<path d="M8.49993 2.02746V1H7.49993V2.02746C5.24996 2.27619 3.49993 4.18372 3.49993 6.5V11L2.59993 12.2C2.35272 12.5296 2.58791 13 2.99993 13H5.54994C5.78158 14.1411 6.79045 15 7.99993 15C9.20941 15 10.2183 14.1411 10.4499 13H12.9999C13.412 13 13.6471 12.5296 13.3999 12.2L12.4999 11V6.5C12.4999 4.18372 10.7499 2.27619 8.49993 2.02746ZM4.49993 11.3333V6.5C4.49993 4.567 6.06693 3 7.99993 3C9.93293 3 11.4999 4.567 11.4999 6.5V11.3333L11.9999 12H3.99993L4.49993 11.3333ZM7.99993 14C7.34682 14 6.7912 13.5826 6.58528 13H9.41458C9.20866 13.5826 8.65304 14 7.99993 14Z" fill="black" fill-opacity="0.9"/>
</svg>
