<svg width="16" height="16" viewBox="0 0 16 16" fill="none" xmlns="http://www.w3.org/2000/svg">
<path d="M12.5174 1.33931C12.297 1.11887 11.9444 1.10398 11.7062 1.30505L7.66118 4.71879L6.89006 3.94767C6.65574 3.71336 6.27585 3.71336 6.04153 3.94767L3.93685 6.05236C3.70253 6.28667 3.70253 6.66657 3.93685 6.90088L6.1643 9.12833L2.05664 13.236L2.76375 13.9431L6.8714 9.83544L9.09873 12.0628C9.33304 12.2971 9.71294 12.2971 9.94726 12.0628L12.0519 9.95808C12.2863 9.72377 12.2863 9.34387 12.0519 9.10955L11.2808 8.33843L14.6946 4.29344C14.8956 4.05519 14.8807 3.70264 14.6603 3.4822L12.5174 1.33931ZM12.0702 2.30634L13.6933 3.92939L9.92392 8.39575L11.062 9.53382L9.52299 11.0728L4.9268 6.47662L6.4658 4.93762L7.60386 6.07569L12.0702 2.30634Z" fill="black" fill-opacity="0.9"/>
</svg>
