<svg width="16" height="16" viewBox="0 0 16 16" fill="none" xmlns="http://www.w3.org/2000/svg">
<path d="M3.99902 1.99902V3.99902H2.99902C2.44288 3.99902 1.99902 4.44288 1.99902 4.99902V9.99902C1.99902 10.5552 2.44288 10.999 2.99902 10.999H3.99902V13.999H11.999V10.999H12.999C13.5552 10.999 13.999 10.5552 13.999 9.99902V4.99902C13.999 4.44288 13.5552 3.99902 12.999 3.99902H11.999V1.99902H3.99902ZM10.999 3.99902H4.99902V2.99902H10.999V3.99902ZM2.99902 4.99902H12.999V9.99902H11.999V7.99902H3.99902V9.99902H2.99902V4.99902ZM4.99902 12.999V8.99902H10.999V12.999H4.99902Z" fill="black" fill-opacity="0.9"/>
</svg>
