<svg width="16" height="16" viewBox="0 0 16 16" fill="none" xmlns="http://www.w3.org/2000/svg">
<path d="M4 3H13V12H14V3C14 2.44772 13.5523 2 13 2H4V3Z" fill="black" fill-opacity="0.9"/>
<path d="M6.58325 9.41669V12.3334L7.58325 12.3334V9.41669H10.3334V8.41669H7.58325V5.66669H6.58325V8.41669H3.66675V9.41669H6.58325Z" fill="black" fill-opacity="0.9"/>
<path d="M2 13C2 13.5523 2.44772 14 3 14L11 14C11.5523 14 12 13.5523 12 13L12 5C12 4.44772 11.5523 4 11 4H3C2.44772 4 2 4.44772 2 5V13ZM3 5L11 5L11 13L3 13L3 5Z" fill="black" fill-opacity="0.9"/>
</svg>
