<svg width="16" height="16" viewBox="0 0 16 16" fill="none" xmlns="http://www.w3.org/2000/svg">
<path d="M8.00016 2.71134C10.8965 2.71134 13.2534 5.0736 13.2534 7.99868H14.2148C14.2148 4.54763 11.4324 1.75 8.00016 1.75C5.76382 1.75 3.80336 2.93771 2.7087 4.72001L2.7087 2.64252H1.75V5.74894C1.75 6.02508 1.97386 6.24894 2.25 6.24894L5.33676 6.24894V5.28498L3.49045 5.28498C4.40906 3.74211 6.08692 2.71134 8.00016 2.71134Z" fill="black" fill-opacity="0.9"/>
<path d="M1.78554 7.99863C1.78554 11.4497 4.56792 14.2474 8.00015 14.2474C10.2363 14.2474 12.1966 13.0599 13.2913 11.2779V13.3548H14.25V10.2484C14.25 9.97228 14.0261 9.74843 13.75 9.74843H10.6632V10.7124H12.5099C11.5912 12.2553 9.91339 13.286 8.00015 13.286C5.10379 13.286 2.74687 10.9237 2.74687 7.99863H1.78554Z" fill="black" fill-opacity="0.9"/>
</svg>
