<svg width="16" height="16" viewBox="0 0 16 16" fill="none" xmlns="http://www.w3.org/2000/svg">
<path d="M9.51033 10.2186C8.69189 10.8814 7.64943 11.2784 6.51424 11.2784C3.88302 11.2784 1.75 9.14541 1.75 6.51421C1.75 3.88301 3.88302 1.75 6.51424 1.75C9.14545 1.75 11.2785 3.88301 11.2785 6.51421C11.2785 7.64942 10.8814 8.69189 10.2186 9.51034L13.75 13.0417L13.0417 13.75L9.51033 10.2186ZM10.2768 6.51421C10.2768 4.43623 8.59224 2.75168 6.51424 2.75168C4.43623 2.75168 2.75168 4.43623 2.75168 6.51421C2.75168 8.59219 4.43623 10.2767 6.51424 10.2767C8.59224 10.2767 10.2768 8.59219 10.2768 6.51421Z" fill="black" fill-opacity="0.9"/>
</svg>
