<svg width="16" height="16" viewBox="0 0 16 16" fill="none" xmlns="http://www.w3.org/2000/svg">
<path d="M2.51604 6.37381C2.73216 3.53404 5.10482 1.29712 7.99995 1.29712C10.8949 1.29712 13.2674 3.53373 13.4838 6.37322C13.4944 6.41369 13.5 6.45616 13.5 6.49994V10.4999C13.5 10.5506 13.4925 10.5994 13.4785 10.6455C13.2561 12.9229 11.3359 14.7027 9 14.7027H8V13.7027H9C10.6587 13.7027 12.048 12.5488 12.4088 10.9999H10.5C10.2239 10.9999 10 10.7761 10 10.4999V6.49994C10 6.2238 10.2239 5.99994 10.5 5.99994H12.4295C12.0532 3.89492 10.2132 2.29712 7.99995 2.29712C5.78672 2.29712 3.94667 3.89492 3.57038 5.99994H5.5C5.77614 5.99994 6 6.2238 6 6.49994V10.4999C6 10.7761 5.77614 10.9999 5.5 10.9999H3C2.72386 10.9999 2.5 10.7761 2.5 10.4999V6.49994C2.5 6.45637 2.50557 6.4141 2.51604 6.37381ZM12.4999 6.99994H11V9.99994H12.5L12.4999 6.99994ZM3.5 6.99994V9.99994H5V6.99994H3.5Z" fill="black" fill-opacity="0.9"/>
</svg>
