<svg width="16" height="16" viewBox="0 0 16 16" fill="none" xmlns="http://www.w3.org/2000/svg">
<path d="M10.9997 8C10.9997 9.65685 9.65653 11 7.99968 11C6.34282 11 4.99968 9.65685 4.99968 8C4.99968 6.34315 6.34282 5 7.99968 5C9.65653 5 10.9997 6.34315 10.9997 8ZM9.99968 8C9.99968 6.89543 9.10425 6 7.99968 6C6.89511 6 5.99968 6.89543 5.99968 8C5.99968 9.10457 6.89511 10 7.99968 10C9.10425 10 9.99968 9.10457 9.99968 8Z" fill="black" fill-opacity="0.9"/>
<path d="M7.99968 1.25L14.0619 4.625V11.375L7.99968 14.75L1.9375 11.375V4.625L7.99968 1.25ZM2.9375 5.2128V10.7872L7.99968 13.6055L13.0619 10.7872V5.2128L7.99968 2.39453L2.9375 5.2128Z" fill="black" fill-opacity="0.9"/>
</svg>
