<svg width="16" height="16" viewBox="0 0 16 16" fill="none" xmlns="http://www.w3.org/2000/svg">
<path d="M9.93164 5.35786C10.355 5.81628 10.9612 6.10337 11.6344 6.10337C12.9142 6.10337 13.9517 5.06587 13.9517 3.78606C13.9517 2.50624 12.9142 1.46875 11.6344 1.46875C10.3546 1.46875 9.3171 2.50624 9.3171 3.78606C9.3171 4.03309 9.35575 4.27108 9.42734 4.49434L6.06804 6.45475C5.64466 5.99625 5.03844 5.70912 4.36516 5.70912C3.08535 5.70912 2.04785 6.74661 2.04785 8.02643C2.04785 9.30624 3.08535 10.3437 4.36516 10.3437C5.03854 10.3437 5.64484 10.0565 6.06822 9.5979L9.4282 11.5558C9.35606 11.7799 9.3171 12.0188 9.3171 12.2668C9.3171 13.5466 10.3546 14.5841 11.6344 14.5841C12.9142 14.5841 13.9517 13.5466 13.9517 12.2668C13.9517 10.987 12.9142 9.94949 11.6344 9.94949C10.9622 9.94949 10.3568 10.2357 9.93356 10.6929L6.57236 8.73428C6.64386 8.51115 6.68247 8.2733 6.68247 8.02643C6.68247 7.77946 6.64383 7.54152 6.57228 7.31831L9.93164 5.35786ZM11.6344 2.46875C12.3619 2.46875 12.9517 3.05853 12.9517 3.78606C12.9517 4.51359 12.3619 5.10337 11.6344 5.10337C11.1607 5.10337 10.7454 4.85336 10.5133 4.4781C10.5084 4.46822 10.5031 4.45843 10.4974 4.44876C10.4918 4.43899 10.4858 4.4295 10.4795 4.42027C10.376 4.23213 10.3171 4.01597 10.3171 3.78606C10.3171 3.05853 10.9069 2.46875 11.6344 2.46875ZM5.48783 7.33694C5.49239 7.34596 5.49725 7.3549 5.50242 7.36375C5.50761 7.37265 5.51305 7.38134 5.5187 7.3898C5.62306 7.5785 5.68247 7.79553 5.68247 8.02643C5.68247 8.25737 5.62304 8.47444 5.51864 8.66316C5.51295 8.67168 5.50748 8.68043 5.50226 8.6894C5.49717 8.69812 5.49239 8.70693 5.48789 8.71583C5.25607 9.09255 4.83995 9.34374 4.36516 9.34374C3.63763 9.34374 3.04785 8.75396 3.04785 8.02643C3.04785 7.2989 3.63763 6.70912 4.36516 6.70912C4.83991 6.70912 5.256 6.96026 5.48783 7.33694ZM10.3171 12.2668C10.3171 12.0492 10.3699 11.8439 10.4633 11.6631C10.4779 11.6446 10.4914 11.6248 10.5037 11.6038C10.5154 11.5836 10.5256 11.5629 10.5343 11.5419C10.77 11.185 11.1747 10.9495 11.6344 10.9495C12.3619 10.9495 12.9517 11.5393 12.9517 12.2668C12.9517 12.9943 12.3619 13.5841 11.6344 13.5841C10.9069 13.5841 10.3171 12.9943 10.3171 12.2668Z" fill="black" fill-opacity="0.9"/>
</svg>
