<svg width="16" height="16" viewBox="0 0 16 16" fill="none" xmlns="http://www.w3.org/2000/svg">
<path d="M9.54158 6.38026L8.00145 3.25962L6.46132 6.38026L3.01749 6.88068L5.50947 9.30976L4.9212 12.7397L8.00145 11.1203L11.0817 12.7397L10.4934 9.30976L12.9854 6.88068L9.54158 6.38026ZM14.5328 6.09503C14.7789 6.13078 14.8771 6.43317 14.6991 6.60674L11.5679 9.65888L12.3071 13.9686C12.3491 14.2136 12.0919 14.4005 11.8718 14.2848L8.00145 12.2501L4.13111 14.2848C3.91102 14.4005 3.65379 14.2136 3.69582 13.9686L4.43499 9.65888L1.30382 6.60674C1.12576 6.43318 1.22401 6.13078 1.47008 6.09503L5.79726 5.46625L7.73243 1.54516C7.84248 1.32219 8.16043 1.32219 8.27047 1.54516L10.2056 5.46625L14.5328 6.09503Z" fill="black" fill-opacity="0.9"/>
</svg>
