<svg width="16" height="16" viewBox="0 0 16 16" fill="none" xmlns="http://www.w3.org/2000/svg">
<path d="M7.59756 1.81764C7.76262 1.48318 8.23955 1.48318 8.40462 1.81764L10.2053 5.46619L14.2317 6.05126C14.6008 6.10489 14.7482 6.55848 14.4811 6.81882L11.5675 9.65881L12.2553 13.6689C12.3184 14.0366 11.9325 14.3169 11.6024 14.1433L8.00109 12.25L4.39976 14.1433C4.06963 14.3169 3.68378 14.0366 3.74683 13.6689L4.43463 9.65881L1.52109 6.81882C1.25401 6.55848 1.40139 6.10489 1.77049 6.05126L5.79689 5.46619L7.59756 1.81764Z" fill="black" fill-opacity="0.9"/>
<mask id="mask0_16845_6019" style="mask-type:alpha" maskUnits="userSpaceOnUse" x="1" y="1" width="14" height="14">
<path d="M7.59756 1.81764C7.76262 1.48318 8.23955 1.48318 8.40462 1.81764L10.2053 5.46619L14.2317 6.05126C14.6008 6.10489 14.7482 6.55848 14.4811 6.81882L11.5675 9.65881L12.2553 13.6689C12.3184 14.0366 11.9325 14.3169 11.6024 14.1433L8.00109 12.25L4.39976 14.1433C4.06963 14.3169 3.68378 14.0366 3.74683 13.6689L4.43463 9.65881L1.52109 6.81882C1.25401 6.55848 1.40139 6.10489 1.77049 6.05126L5.79689 5.46619L7.59756 1.81764Z" fill="black" fill-opacity="0.9"/>
</mask>
<g mask="url(#mask0_16845_6019)">
<rect width="8" height="16" fill="black" fill-opacity="0.9"/>
</g>
</svg>
