<svg width="16" height="16" viewBox="0 0 16 16" fill="none" xmlns="http://www.w3.org/2000/svg">
<path d="M10 9.771H13.2192C13.8698 9.771 14.3472 9.15961 14.1894 8.52846L12.6894 2.52846C12.5781 2.08329 12.1781 1.771 11.7192 1.771L3 1.771C2.44772 1.771 2 2.21871 2 2.771L2 7.771C2 8.32328 2.44772 8.771 3 8.771L5 8.771L7 13.771H9C9.55229 13.771 10 13.3233 10 12.771V9.771ZM6 8.57841L6 2.771L11.7192 2.771L13.2192 8.771H9L9 12.771H7.67703L6 8.57841ZM5 7.771L3 7.771L3 2.771L5 2.771L5 7.771Z" fill="black" fill-opacity="0.9"/>
</svg>
