<svg width="16" height="16" viewBox="0 0 16 16" fill="none" xmlns="http://www.w3.org/2000/svg">
<path d="M8 1C6.6247 1 5.36829 1.5546 4.46644 2.46644C3.5546 3.36829 3 4.6247 3 6C3 7.37457 3.554 8.63036 4.46498 9.53211C4.77388 9.84935 5.12363 10.1126 5.5 10.3289V12C5.5 12.5523 5.94772 13 6.5 13H9.5C10.0523 13 10.5 12.5523 10.5 12V10.3289C10.8764 10.1126 11.2261 9.84935 11.535 9.5321C12.446 8.63036 13 7.37456 13 6C13 3.23386 10.7661 1 8 1ZM5.17572 3.17138C5.89371 2.44452 6.8964 2 8 2C10.2139 2 12 3.78614 12 6C12 7.1036 11.5555 8.10629 10.8286 8.82428L10.8214 8.83161C10.5255 9.13619 10.173 9.3845 9.77639 9.58279L9.5 9.72098V12H6.5V9.72098L6.22361 9.58279C5.82703 9.3845 5.47452 9.13619 5.17864 8.83161L5.17138 8.82428C4.44452 8.10629 4 7.1036 4 6C4 4.8964 4.44452 3.89371 5.17138 3.17572L5.17572 3.17138Z" fill="black" fill-opacity="0.9"/>
<path d="M5.5 14V15H10.5V14H5.5Z" fill="black" fill-opacity="0.9"/>
</svg>
