<svg width="16" height="16" viewBox="0 0 16 16" fill="none" xmlns="http://www.w3.org/2000/svg">
<path d="M13.2349 12.75H11.4849V11.75H13.2349V10H14.2349V11.75H15.9849V12.75H14.2349V14.5H13.2349V12.75Z" fill="black" fill-opacity="0.9"/>
<path d="M7.46171 1.34645L6.83144 2.1586C6.57424 2.05626 6.2937 2 6.00003 2C4.75739 2 3.75003 3.00736 3.75003 4.25C3.75003 5.47717 4.73246 6.47488 5.95373 6.49953V7.49968C4.18015 7.47491 2.75003 6.02947 2.75003 4.25C2.75003 2.45507 4.2051 1 6.00003 1C6.52575 1 7.02232 1.12482 7.46171 1.34645Z" fill="black" fill-opacity="0.9"/>
<path d="M5.95373 8.22094V9.22095C4.18421 9.22774 2.51071 9.62379 1 10.3252V12H2.85709V13H0.5C0.223857 13 0 12.7761 0 12.5V10.3086C0 9.9372 0.204537 9.59344 0.540929 9.43593C2.18917 8.66419 4.01922 8.22779 5.95373 8.22094Z" fill="black" fill-opacity="0.9"/>
<path d="M13.2499 5.06354C13.2499 6.85846 11.7948 8.31354 9.99992 8.31354C8.20499 8.31354 6.74992 6.85846 6.74992 5.06354C6.74992 3.26861 8.20499 1.81354 9.99992 1.81354C11.7948 1.81354 13.2499 3.26861 13.2499 5.06354ZM12.2499 5.06354C12.2499 3.8209 11.2426 2.81354 9.99992 2.81354C8.75728 2.81354 7.74992 3.8209 7.74992 5.06354C7.74992 6.30618 8.75728 7.31354 9.99992 7.31354C11.2426 7.31354 12.2499 6.30618 12.2499 5.06354Z" fill="black" fill-opacity="0.9"/>
<path d="M12 10.5988C11.35 10.4879 10.6821 10.43 9.99997 10.43C8.21334 10.43 6.52384 10.8269 4.99996 11.5344V13.5H12V14.5H4.49996C4.22382 14.5 3.99996 14.2761 3.99996 14V11.5178C3.99996 11.1464 4.2045 10.8026 4.54089 10.6451C6.20227 9.86723 8.04837 9.43005 9.99997 9.43005C10.6806 9.43005 11.3484 9.48322 12 9.58548V10.5988Z" fill="black" fill-opacity="0.9"/>
</svg>
