<svg width="16" height="16" viewBox="0 0 16 16" fill="none" xmlns="http://www.w3.org/2000/svg">
<path d="M13.3284 7.82832C14.8905 6.26622 14.8905 3.73356 13.3284 2.17146L14.0355 1.46436C15.9881 3.41698 15.9881 6.5828 14.0355 8.53542L13.3284 7.82832Z" fill="black" fill-opacity="0.9"/>
<path d="M11 4.99988C11 6.93287 9.433 8.49988 7.5 8.49988C5.567 8.49988 4 6.93287 4 4.99988C4 3.06688 5.567 1.49988 7.5 1.49988C9.433 1.49988 11 3.06688 11 4.99988ZM10 4.99988C10 3.61917 8.88071 2.49988 7.5 2.49988C6.11929 2.49988 5 3.61917 5 4.99988C5 6.38059 6.11929 7.49988 7.5 7.49988C8.88071 7.49988 10 6.38059 10 4.99988Z" fill="black" fill-opacity="0.9"/>
<path d="M13.4631 10.8527C13.797 11.0121 14 11.3545 14 11.7245L14 13.9999C14 14.276 13.7761 14.4999 13.5 14.4999L1.5 14.4999C1.22386 14.4999 1 14.276 1 13.9999V11.7245C1 11.3545 1.20302 11.0121 1.53686 10.8527C3.3494 9.98695 5.36651 9.49988 7.5 9.49988C9.63349 9.49988 11.6506 9.98695 13.4631 10.8527ZM7.5 10.4999C5.5334 10.4999 3.67434 10.9456 2 11.7397L2 13.4999H13V11.7397C11.3257 10.9456 9.4666 10.4999 7.5 10.4999Z" fill="black" fill-opacity="0.9"/>
<path d="M11.9142 3.58565L12.6213 2.87854C13.7929 4.05011 13.7929 5.94961 12.6213 7.12118L11.9142 6.41407C12.6953 5.63303 12.6953 4.3667 11.9142 3.58565Z" fill="black" fill-opacity="0.9"/>
</svg>
