<svg width="16" height="16" viewBox="0 0 16 16" fill="none" xmlns="http://www.w3.org/2000/svg">
<g opacity="0.9">
<path d="M8 9C9.53535 9 10.78 7.75535 10.78 6.22C10.78 4.68465 9.53535 3.44 8 3.44C6.46465 3.44 5.22 4.68465 5.22 6.22C5.22 7.75535 6.46465 9 8 9ZM8 8C7.01693 8 6.22 7.20307 6.22 6.22C6.22 5.23693 7.01693 4.44 8 4.44C8.98307 4.44 9.78 5.23693 9.78 6.22C9.78 7.20307 8.98307 8 8 8Z" fill="black" fill-opacity="0.9"/>
<path d="M8 15C11.866 15 15 11.866 15 8C15 4.13401 11.866 1 8 1C4.13401 1 1 4.13401 1 8C1 11.866 4.13401 15 8 15ZM12.9955 11.3246C11.4748 10.4765 9.78555 10 7.99998 10C6.21441 10 4.52519 10.4765 3.00451 11.3246C2.36991 10.3729 2 9.22966 2 8C2 4.68629 4.68629 2 8 2C11.3137 2 14 4.68629 14 8C14 9.22966 13.6301 10.3729 12.9955 11.3246ZM12.3632 12.1185C11.2693 13.277 9.71909 14 8 14C6.2809 14 4.73066 13.277 3.63675 12.1185C4.9805 11.3976 6.45282 11 7.99998 11C9.54714 11 11.0195 11.3976 12.3632 12.1185Z" fill="black" fill-opacity="0.9"/>
</g>
</svg>
