<svg width="16" height="16" viewBox="0 0 16 16" fill="none" xmlns="http://www.w3.org/2000/svg">
<path d="M11.25 1.75C9.59315 1.75 8.25 3.09315 8.25 4.75C8.25 6.40685 9.59315 7.75 11.25 7.75C12.9069 7.75 14.25 6.40685 14.25 4.75C14.25 3.09315 12.9069 1.75 11.25 1.75ZM9.25 4.75C9.25 3.64543 10.1454 2.75 11.25 2.75C12.3546 2.75 13.25 3.64543 13.25 4.75C13.25 5.85457 12.3546 6.75 11.25 6.75C10.1454 6.75 9.25 5.85457 9.25 4.75Z" fill="black" fill-opacity="0.9"/>
<path d="M2 3C2 2.44772 2.44772 2 3 2H6.5C7.05228 2 7.5 2.44772 7.5 3V6.5C7.5 7.05228 7.05228 7.5 6.5 7.5H3C2.44772 7.5 2 7.05228 2 6.5V3ZM3 3V6.5H6.5V3H3Z" fill="black" fill-opacity="0.9"/>
<path d="M2 9.5C2 8.94772 2.44772 8.5 3 8.5H6.5C7.05228 8.5 7.5 8.94772 7.5 9.5V13C7.5 13.5523 7.05228 14 6.5 14H3C2.44772 14 2 13.5523 2 13V9.5ZM3 9.5V13H6.5V9.5H3Z" fill="black" fill-opacity="0.9"/>
<path d="M8.5 9.5C8.5 8.94772 8.94772 8.5 9.5 8.5H13C13.5523 8.5 14 8.94772 14 9.5V13C14 13.5523 13.5523 14 13 14H9.5C8.94772 14 8.5 13.5523 8.5 13V9.5ZM9.5 13H13V9.5H9.5V13Z" fill="black" fill-opacity="0.9"/>
</svg>
