<svg width="16" height="16" viewBox="0 0 16 16" fill="none" xmlns="http://www.w3.org/2000/svg">
<path d="M12.1271 3.85578C11.3382 3.07643 10.068 3.08032 9.28386 3.86448L2.07429 11.074L1.36719 10.3669L8.57675 3.15737C9.74975 1.98437 11.6498 1.97856 12.8299 3.14436C14.0203 4.32029 14.0262 6.24042 12.843 7.42361L7.003 13.2636C6.26746 13.9991 5.0749 13.9991 4.33936 13.2636C3.60382 12.5281 3.60382 11.3355 4.33936 10.6L10.0133 4.92602L10.7204 5.63313L5.04647 11.3071C4.70145 11.6521 4.70145 12.2115 5.04647 12.5565C5.39149 12.9015 5.95087 12.9015 6.29589 12.5565L12.1359 6.7165C12.9269 5.92553 12.9229 4.6419 12.1271 3.85578Z" fill="black" fill-opacity="0.9"/>
</svg>
