<svg width="16" height="16" viewBox="0 0 16 16" fill="none" xmlns="http://www.w3.org/2000/svg">
<path d="M12.1271 3.85591C11.3382 3.07655 10.068 3.08044 9.28386 3.8646L2.07429 11.0742L1.36719 10.3671L8.57675 3.15749C9.74975 1.98449 11.6498 1.97869 12.8299 3.14449C14.0203 4.32042 14.0262 6.24054 12.843 7.42373L7.003 13.2637C6.26746 13.9993 5.0749 13.9993 4.33936 13.2637C3.60382 12.5282 3.60382 11.3356 4.33936 10.6001L10.0133 4.92614L10.7204 5.63325L5.04647 11.3072C4.70145 11.6522 4.70145 12.2116 5.04647 12.5566C5.39149 12.9016 5.95087 12.9016 6.29589 12.5566L12.1359 6.71663C12.9269 5.92565 12.9229 4.64203 12.1271 3.85591Z" fill="black" fill-opacity="0.9"/>
</svg>
