<svg width="16" height="16" viewBox="0 0 16 16" fill="none" xmlns="http://www.w3.org/2000/svg">
<path d="M1.24175 8.39077C0.99103 8.1906 0.99103 7.80944 1.24175 7.60927L6.87913 3.1086C7.20659 2.84717 7.69109 3.08033 7.69109 3.49935L7.69109 7.76543C7.72051 7.71 7.7611 7.65903 7.81285 7.6159L13.1793 3.14379C13.5049 2.8724 13.9994 3.10398 13.9994 3.5279L13.9994 12.4721C13.9994 12.896 13.5049 13.1276 13.1793 12.8562L7.81285 8.38412C7.7611 8.34099 7.72051 8.29002 7.69109 8.23459L7.69109 12.5007C7.69109 12.9197 7.20659 13.1529 6.87913 12.8914L1.24175 8.39077ZM6.69109 11.4617L6.69109 4.53833L2.3551 8.00002L6.69109 11.4617ZM12.9994 11.4046L12.9994 4.59544L8.91396 8.00001L12.9994 11.4046Z" fill="black" fill-opacity="0.9"/>
</svg>
