<svg width="16" height="16" viewBox="0 0 16 16" fill="none" xmlns="http://www.w3.org/2000/svg">
<path d="M7.49755 8.19542L5.9441 9.72019L5.2282 9.02199L8.00185 6.29956L10.8007 9.02923L10.087 9.72972L8.50841 8.19011L8.50847 11.9988L7.49761 11.9989L7.49755 8.19542Z" fill="black" fill-opacity="0.9"/>
<path d="M4.49903 5.4989H11.499V4.4989H4.49903V5.4989Z" fill="black" fill-opacity="0.9"/>
<path d="M2.99903 1.9989C2.44674 1.9989 1.99903 2.44662 1.99903 2.9989L1.99902 12.9989C1.99902 13.5512 2.44674 13.9989 2.99902 13.9989L12.999 13.9989C13.5513 13.9989 13.999 13.5512 13.999 12.9989L13.999 2.9989C13.999 2.44662 13.5513 1.9989 12.999 1.9989L2.99903 1.9989ZM12.999 2.9989L12.999 12.9989L2.99902 12.9989L2.99903 2.9989L12.999 2.9989Z" fill="black" fill-opacity="0.9"/>
</svg>
