<svg width="16" height="16" viewBox="0 0 16 16" fill="none" xmlns="http://www.w3.org/2000/svg">
<path d="M10.7732 11.9803L12.1465 13.3536L12.8535 12.6465L3.14969 2.94263L2.44266 3.64978L3.65332 4.86038C2.60522 5.58548 1.72754 6.57565 1.11694 7.76993L1 7.99991L1.11694 8.22989C2.46143 10.8699 5.10156 12.4999 8.00488 12.4999C8.96875 12.4999 9.9043 12.3191 10.7732 11.9803ZM9.99121 11.1983C9.35718 11.3958 8.68921 11.4999 8.00488 11.4999C5.5498 11.4999 3.3186 10.1699 2.1106 7.99991C2.66992 6.99508 3.44873 6.17044 4.36743 5.57449L5.45093 6.65805C5.2395 7.05874 5.11987 7.51535 5.11987 7.99991C5.11987 9.59042 6.40918 10.8798 7.99976 10.8798C8.48438 10.8798 8.94092 10.7601 9.34155 10.5487L9.99121 11.1983ZM6.21143 7.41861L8.58105 9.78818C8.39795 9.84762 8.20264 9.87979 7.99976 9.87979C6.96143 9.87979 6.11987 9.03811 6.11987 7.99991C6.11987 7.79703 6.15186 7.60165 6.21143 7.41861Z" fill="black" fill-opacity="0.9"/>
<path d="M14.8831 8.22989L15 7.99991L14.8831 7.76993C13.5386 5.13992 10.8984 3.49991 8.00488 3.49991C7.14868 3.49991 6.31519 3.64255 5.53125 3.91122L6.3313 4.71139C6.87012 4.57248 7.4314 4.49991 8.00488 4.49991C10.4502 4.49991 12.6814 5.82992 13.8992 7.99991C13.3894 8.91537 12.696 9.68136 11.8809 10.261L12.5894 10.9693C13.53 10.2636 14.3201 9.33529 14.8831 8.22989Z" fill="black" fill-opacity="0.9"/>
<path d="M10.8796 7.99991C10.8796 6.40945 9.59033 5.12008 7.99976 5.12008C7.62598 5.12008 7.26855 5.19131 6.94092 5.32095L7.75562 6.13577C7.83545 6.12539 7.91699 6.12008 7.99976 6.12008C9.03784 6.12008 9.87964 6.9617 9.87964 7.99991C9.87964 8.08261 9.87427 8.16415 9.86401 8.24405L10.6787 9.05881C10.8083 8.73105 10.8796 8.37381 10.8796 7.99991Z" fill="black" fill-opacity="0.9"/>
</svg>
