<svg width="16" height="16" viewBox="0 0 16 16" fill="none" xmlns="http://www.w3.org/2000/svg">
<path d="M10.8796 7.99988C10.8796 9.59039 9.59033 10.8798 7.99976 10.8798C6.40918 10.8798 5.11987 9.59039 5.11987 7.99988C5.11987 6.40942 6.40918 5.12006 7.99976 5.12006C9.59033 5.12006 10.8796 6.40942 10.8796 7.99988ZM9.87964 7.99988C9.87964 6.96167 9.03784 6.12006 7.99976 6.12006C6.96143 6.12006 6.11987 6.96167 6.11987 7.99988C6.11987 9.03809 6.96143 9.87976 7.99976 9.87976C9.03784 9.87976 9.87964 9.03809 9.87964 7.99988Z" fill="black" fill-opacity="0.9"/>
<path d="M1.11694 8.22986C2.46143 10.8699 5.10156 12.4999 8.00488 12.4999C10.8984 12.4999 13.5386 10.8699 14.8831 8.22986L15 7.99988L14.8831 7.7699C13.5386 5.13989 10.8984 3.49988 8.00488 3.49988C5.10156 3.49988 2.46143 5.13989 1.11694 7.7699L1 7.99988L1.11694 8.22986ZM8.00488 11.4999C5.5498 11.4999 3.3186 10.1699 2.1106 7.99988C3.3186 5.8299 5.5498 4.49988 8.00488 4.49988C10.4502 4.49988 12.6814 5.8299 13.8992 7.99988C12.6909 10.1699 10.4502 11.4999 8.00488 11.4999Z" fill="black" fill-opacity="0.9"/>
</svg>
