<svg width="16" height="16" viewBox="0 0 16 16" fill="none" xmlns="http://www.w3.org/2000/svg">
<path d="M13.9996 11.0571C14.0094 11.656 13.8406 12.3013 13.4825 12.8172L13.3562 12.9841C13.1203 13.3295 12.7802 13.5823 12.3763 13.7333C12.0957 13.8382 11.92 13.8686 11.467 13.9206C9.51866 14.1028 7.38954 13.1934 5.28719 11.3231C3.8828 10.0711 2.83116 8.50511 2.32479 6.90415C2.11109 6.22714 1.99984 5.57675 1.99984 4.9881C1.99984 4.28226 2.15924 3.67085 2.47982 3.21159C2.78396 2.79386 3.36194 2.44687 4.23086 2.1189C4.65696 1.95807 5.13791 2.10548 5.40072 2.47746L7.06606 4.83489C7.34085 5.22387 7.30316 5.75267 6.97604 6.09879L6.7593 6.32024L6.49703 6.57443C6.43153 6.62982 6.33187 6.76339 6.33187 6.76339C6.30907 7.07011 6.63615 7.70117 7.58846 8.67568L7.87185 8.9415C8.75003 9.75141 8.98642 9.81638 9.25619 9.62851L9.34609 9.55508C9.44154 9.48247 9.69138 9.30859 10.2242 8.94226C10.5298 8.73213 10.9267 8.70843 11.2551 8.88068L11.4976 9.00892C13.1606 9.8967 13.9203 10.431 13.9937 10.9791L13.9996 11.0571ZM12.9997 11.0731C13.001 11.1553 12.8854 11.0287 12.6447 10.8549C12.2936 10.6014 11.7532 10.279 11.0283 9.89197L10.7907 9.7663L10.0027 10.3101C9.98437 10.322 9.97594 10.3268 9.97927 10.323C9.11992 10.9979 8.37978 10.8086 6.88619 9.38735C5.74004 8.21495 5.28626 7.33947 5.33425 6.69456C5.35666 6.34167 5.59986 6.0185 5.8359 5.82509C5.9363 5.72853 6.03513 5.63144 6.12417 5.54118L6.24929 5.41186L4.58401 3.05447C3.88251 3.31925 3.4487 3.57965 3.29391 3.79216C3.10764 4.05918 2.99984 4.47289 2.99984 4.9881C2.99984 5.46851 3.09399 6.01883 3.27834 6.60286C3.72853 8.02618 4.67843 9.44076 5.95223 10.5764C7.86462 12.2776 9.73829 13.0779 11.3635 12.926L11.621 12.8939C11.799 12.8686 11.8995 12.8439 12.0261 12.7966C12.2452 12.7147 12.4181 12.5862 12.5589 12.382C12.8261 12.0557 12.9688 11.6382 12.9954 11.2418L12.9997 11.0731Z" fill="black" fill-opacity="0.9"/>
</svg>
