<svg width="16" height="16" viewBox="0 0 16 16" fill="none" xmlns="http://www.w3.org/2000/svg">
<path d="M1 3H2.57644L3.96502 11.3315C4.02931 11.7173 4.36307 12 4.75414 12H14V11H4.92356L4.59023 9H13.2239C13.591 9 13.911 8.75016 14 8.39403L14.85 4.99403C14.9762 4.48911 14.5943 4 14.0739 4H3.7569L3.53498 2.66848C3.47069 2.28273 3.13693 2 2.74586 2H1V3ZM13.0677 8H4.42356L3.92356 5H13.8177L13.0677 8Z" fill="black" fill-opacity="0.9"/>
<path d="M4.75 14.5C5.16421 14.5 5.5 14.1642 5.5 13.75C5.5 13.3358 5.16421 13 4.75 13C4.33579 13 4 13.3358 4 13.75C4 14.1642 4.33579 14.5 4.75 14.5Z" fill="black" fill-opacity="0.9"/>
<path d="M12.813 14.5C13.2272 14.5 13.563 14.1642 13.563 13.75C13.563 13.3358 13.2272 13 12.813 13C12.3987 13 12.063 13.3358 12.063 13.75C12.063 14.1642 12.3987 14.5 12.813 14.5Z" fill="black" fill-opacity="0.9"/>
</svg>
