<svg width="16" height="16" viewBox="0 0 16 16" fill="none" xmlns="http://www.w3.org/2000/svg">
<path d="M4.49999 12L4.5 7.49994L5.5 7.49994L5.49999 12H4.49999Z" fill="black" fill-opacity="0.9"/>
<path d="M7.5 4.5L7.5 12H8.5L8.5 4.5H7.5Z" fill="black" fill-opacity="0.9"/>
<path d="M10.5 12L10.5 9L11.5 9L11.5 12H10.5Z" fill="black" fill-opacity="0.9"/>
<path d="M2 3C2 2.44771 2.44772 2 3 2H13C13.5523 2 14 2.44772 14 3L14 13C14 13.5523 13.5523 14 13 14L3 14C2.44771 14 2 13.5523 2 13V3ZM3 3L3 13L13 13L13 3L3 3Z" fill="black" fill-opacity="0.9"/>
</svg>
