<svg width="16" height="16" viewBox="0 0 16 16" fill="none" xmlns="http://www.w3.org/2000/svg">
<path d="M5.20711 9.79293L8.00004 7L10.793 9.79293L11.5001 9.08582L8.00004 5.58579L4.5 9.08582L5.20711 9.79293Z" fill="black" fill-opacity="0.9"/>
<path d="M15 8C15 11.866 11.866 15 8 15C4.13401 15 1 11.866 1 8C1 4.13401 4.13401 1 8 1C11.866 1 15 4.13401 15 8ZM14 8C14 4.68629 11.3137 2 8 2C4.68629 2 2 4.68629 2 8C2 11.3137 4.68629 14 8 14C11.3137 14 14 11.3137 14 8Z" fill="black" fill-opacity="0.9"/>
</svg>
