<svg width="16" height="16" viewBox="0 0 16 16" fill="none" xmlns="http://www.w3.org/2000/svg">
<path d="M4.818 10.4748L7.29291 7.99994L4.81812 5.52515L5.52522 4.81804L8.00001 7.29283L10.4749 4.81799L11.182 5.5251L8.70712 7.99994L11.1821 10.4749L10.475 11.182L8.00001 8.70705L5.52511 11.182L4.818 10.4748Z" fill="black" fill-opacity="0.9"/>
<path d="M3 14C2.44772 14 2 13.5523 2 13V3C2 2.44771 2.44772 2 3 2H13C13.5523 2 14 2.44772 14 3L14 13C14 13.5523 13.5523 14 13 14L3 14ZM3 13L13 13L13 3L3 3L3 13Z" fill="black" fill-opacity="0.9"/>
</svg>
