<svg width="16" height="16" viewBox="0 0 16 16" fill="none" xmlns="http://www.w3.org/2000/svg">
<path d="M4.7309 7.26147L4.88063 6.56004C5.19679 5.07899 6.48401 3.9989 8 3.9989C9.51599 3.9989 10.8032 5.07899 11.1194 6.56004L11.2691 7.26147L11.9815 7.34455C13.1039 7.47544 14 8.45177 14 9.66557C14 10.9705 12.9634 11.9989 11.7333 11.9989H4.26667C3.03657 11.9989 2 10.9705 2 9.66557C2 8.45177 2.89613 7.47544 4.0185 7.34455L4.7309 7.26147ZM12.0973 6.35128C11.6867 4.42747 10.0067 2.9989 8 2.9989C5.99333 2.9989 4.31333 4.42747 3.90267 6.35128C2.26933 6.54176 1 7.95128 1 9.66557C1 11.5037 2.46533 12.9989 4.26667 12.9989H11.7333C13.5347 12.9989 15 11.5037 15 9.66557C15 7.95128 13.7307 6.54176 12.0973 6.35128Z" fill="black" fill-opacity="0.9"/>
</svg>
