<svg width="16" height="16" viewBox="0 0 16 16" fill="none" xmlns="http://www.w3.org/2000/svg">
<path d="M4.7309 6.26257L4.0185 6.34565C2.89613 6.47654 2 7.45287 2 8.66667C2 9.8761 2.89038 10.848 4 10.9838V11.989C2.32292 11.8501 1 10.4132 1 8.66667C1 6.95238 2.26933 5.54286 3.90267 5.35238C4.31333 3.42857 5.99333 2 8 2C10.0067 2 11.6867 3.42857 12.0973 5.35238C13.7307 5.54286 15 6.95238 15 8.66667C15 10.4132 13.6771 11.8501 12 11.989V10.9838C13.1096 10.848 14 9.8761 14 8.66667C14 7.45287 13.1039 6.47654 11.9815 6.34565L11.2691 6.26257L11.1194 5.56114C10.8032 4.08009 9.51599 3 8 3C6.48401 3 5.19679 4.08009 4.88063 5.56114L4.7309 6.26257Z" fill="black" fill-opacity="0.9"/>
<path d="M9.79665 11.2999L8.50332 12.589L8.50338 7.99696L7.50172 7.99694L7.50165 12.589L6.20828 11.2999L5.5 12.0058L7.6495 14.1482C7.84463 14.3427 8.16031 14.3427 8.35543 14.1482L10.5049 12.0058L9.79665 11.2999Z" fill="black" fill-opacity="0.9"/>
</svg>
