<svg width="16" height="16" viewBox="0 0 16 16" fill="none" xmlns="http://www.w3.org/2000/svg">
<g opacity="0.9">
<path d="M1.5 10C1.5 6.41015 4.41015 3.5 8 3.5C9.08905 3.5 10.1142 3.76743 11.0147 4.23978L11.4792 3.35421C10.4388 2.8085 9.2547 2.5 8 2.5C3.85786 2.5 0.5 5.85786 0.5 10C0.5 11.5928 0.997092 13.071 1.8446 14.286L2.66478 13.714C1.93054 12.6613 1.5 11.3817 1.5 10ZM13.7679 6.99999C14.2355 7.89696 14.5 8.91685 14.5 10C14.5 11.3817 14.0695 12.6613 13.3352 13.714L14.1554 14.286C15.0029 13.071 15.5 11.5928 15.5 10C15.5 8.75212 15.1948 7.57405 14.6547 6.53776L13.7679 6.99999ZM13.8745 4.90662L9.7451 9.03599C9.92105 9.33375 10.022 9.68109 10.022 10.052C10.022 11.1566 9.1266 12.052 8.02203 12.052C6.91746 12.052 6.02203 11.1566 6.02203 10.052C6.02203 8.94743 6.91746 8.052 8.02203 8.052C8.39292 8.052 8.74023 8.15296 9.03798 8.32889L13.1674 4.19951L13.8745 4.90662ZM8.02203 11.052C8.57431 11.052 9.02203 10.6043 9.02203 10.052C9.02203 9.49972 8.57431 9.052 8.02203 9.052C7.46974 9.052 7.02203 9.49972 7.02203 10.052C7.02203 10.6043 7.46974 11.052 8.02203 11.052Z" fill="black" fill-opacity="0.9"/>
</g>
</svg>
