<svg width="16" height="16" viewBox="0 0 16 16" fill="none" xmlns="http://www.w3.org/2000/svg">
<g opacity="0.9">
<path d="M13.8745 4.90662L9.37556 9.40553L8.66845 8.69843L13.1674 4.19951L13.8745 4.90662Z" fill="black" fill-opacity="0.9"/>
<path d="M8.02203 11.052C7.46974 11.052 7.02203 10.6043 7.02203 10.052C7.02203 9.49972 7.46974 9.052 8.02203 9.052C8.57431 9.052 9.02203 9.49972 9.02203 10.052C9.02203 10.6043 8.57431 11.052 8.02203 11.052ZM8.02203 12.052C9.1266 12.052 10.022 11.1566 10.022 10.052C10.022 8.94743 9.1266 8.052 8.02203 8.052C6.91746 8.052 6.02203 8.94743 6.02203 10.052C6.02203 11.1566 6.91746 12.052 8.02203 12.052Z" fill="black" fill-opacity="0.9"/>
<path d="M8 3.5C4.41015 3.5 1.5 6.41015 1.5 10C1.5 11.3817 1.93054 12.6613 2.66478 13.714L1.8446 14.286C0.997092 13.071 0.5 11.5928 0.5 10C0.5 5.85786 3.85786 2.5 8 2.5C9.2547 2.5 10.4388 2.8085 11.4792 3.35421L11.0147 4.23978C10.1142 3.76743 9.08905 3.5 8 3.5ZM14.5 10C14.5 8.91685 14.2355 7.89696 13.7679 6.99999L14.6547 6.53776C15.1948 7.57405 15.5 8.75212 15.5 10C15.5 11.5928 15.0029 13.071 14.1554 14.286L13.3352 13.714C14.0695 12.6613 14.5 11.3817 14.5 10Z" fill="black" fill-opacity="0.9"/>
</g>
</svg>
