<svg width="16" height="16" viewBox="0 0 16 16" fill="none" xmlns="http://www.w3.org/2000/svg">
<path d="M6.98714 5.32938C7.44495 5.78719 7.44495 6.52946 6.98714 6.98728C6.52932 7.4451 5.78705 7.4451 5.32923 6.98728C4.87141 6.52946 4.87141 5.78719 5.32923 5.32938C5.78705 4.87156 6.52932 4.87156 6.98714 5.32938Z" fill="black" fill-opacity="0.9"/>
<path d="M2 7.72999C1.99999 7.99522 2.10535 8.24958 2.29289 8.43713L8.20507 14.3493C8.5956 14.7398 9.22876 14.7398 9.61929 14.3493L14.3493 9.6193C14.7398 9.22877 14.7399 8.59561 14.3493 8.20508L8.43714 2.29289C8.2496 2.10535 7.99524 2 7.73002 2L2.00017 2.00005L2 7.72999ZM7.69424 4.62227C8.54259 5.47061 8.54259 6.84605 7.69424 7.69439C6.8459 8.54273 5.47047 8.54273 4.62212 7.69439C3.77378 6.84605 3.77378 5.47061 4.62212 4.62227C5.47047 3.77393 6.8459 3.77393 7.69424 4.62227Z" fill="black" fill-opacity="0.9"/>
</svg>
