<svg width="16" height="16" viewBox="0 0 16 16" fill="none" xmlns="http://www.w3.org/2000/svg">
<path d="M7.83885 5.01035C8.6199 5.7914 8.6199 7.05773 7.83885 7.83877C7.0578 8.61982 5.79147 8.61982 5.01042 7.83877C4.22937 7.05773 4.22937 5.7914 5.01042 5.01035C5.79147 4.2293 7.0578 4.2293 7.83885 5.01035ZM7.13174 5.71745C6.74122 5.32693 6.10805 5.32693 5.71753 5.71745C5.32701 6.10798 5.32701 6.74114 5.71753 7.13167C6.10805 7.52219 6.74122 7.52219 7.13174 7.13167C7.52227 6.74114 7.52227 6.10798 7.13174 5.71745Z" fill="black" fill-opacity="0.9"/>
<path fill-rule="evenodd" clip-rule="evenodd" d="M2 7.94985L2.00002 2L7.94975 2.0001C8.21497 2.0001 8.46931 2.10546 8.65685 2.29299L14.7903 8.42646C15.1808 8.81698 15.1808 9.45014 14.7903 9.84067L9.84057 14.7904C9.45004 15.1809 8.81688 15.1809 8.42635 14.7904L2.29289 8.65696C2.10536 8.46942 2 8.21507 2 7.94985ZM7.94974 3.0001L14.0832 9.13356L9.13346 14.0833L3 7.94985L3.00002 3.00002L7.94974 3.0001Z" fill="black" fill-opacity="0.9"/>
</svg>
