<svg width="16" height="16" viewBox="0 0 16 16" fill="none" xmlns="http://www.w3.org/2000/svg">
<path d="M3 9C2.44775 9 2 8.55228 2 8C2 7.44772 2.44775 7 3 7C3.55225 7 4 7.44772 4 8C4 8.55228 3.55225 9 3 9Z" fill="black" fill-opacity="0.9"/>
<path d="M7 8C7 8.55228 7.44775 9 8 9C8.55225 9 9 8.55228 9 8C9 7.44772 8.55225 7 8 7C7.44775 7 7 7.44772 7 8Z" fill="black" fill-opacity="0.9"/>
<path d="M12 8C12 8.55228 12.4478 9 13 9C13.5522 9 14 8.55228 14 8C14 7.44772 13.5522 7 13 7C12.4478 7 12 7.44772 12 8Z" fill="black" fill-opacity="0.9"/>
</svg>
