<svg width="16" height="16" viewBox="0 0 16 16" fill="none" xmlns="http://www.w3.org/2000/svg">
<path d="M8.5 4.00037V9.5H7.5V4.00037H8.5Z" fill="black" fill-opacity="0.9"/>
<path d="M8.59424 10.5H7.39429V11.7H8.59424V10.5Z" fill="black" fill-opacity="0.9"/>
<path d="M15 8C15 4.13403 11.866 1 8 1C4.13403 1 1 4.13403 1 8C1 11.866 4.13403 15 8 15C11.866 15 15 11.866 15 8ZM14 8C14 11.3137 11.3137 14 8 14C4.68628 14 2 11.3137 2 8C2 4.68628 4.68628 2 8 2C11.3137 2 14 4.68628 14 8Z" fill="black" fill-opacity="0.9"/>
</svg>
