<svg width="16" height="16" viewBox="0 0 16 16" fill="none" xmlns="http://www.w3.org/2000/svg">
<path d="M3.5 14V2H8.50008V6.01275H12.5V7.5H13.5V5.70431C13.5 5.44241 13.3973 5.19096 13.2138 5.004L9.57972 1.29969C9.39167 1.108 9.13442 1 8.86589 1H3.49534C3.02005 1 2.5 1.33727 2.5 1.92191V14.0781C2.5 14.6627 3.02005 15 3.49534 15H12V14H3.5ZM11.8215 5.01275H9.50008V2.64645L11.8215 5.01275Z" fill="black" fill-opacity="0.9"/>
<path d="M8.37695 9H10.2384C10.7216 9 11.1134 9.39175 11.1134 9.875V12.1064C11.1134 12.5897 10.7216 12.9814 10.2384 12.9814H8.37695V9ZM9.12695 9.75V12.2314H10.2384C10.3074 12.2314 10.3634 12.1755 10.3634 12.1064L10.3634 9.875C10.3634 9.80596 10.3074 9.75 10.2384 9.75H9.12695Z" fill="black" fill-opacity="0.9"/>
<path d="M5 9.00593H6.86142C7.34467 9.00593 7.73642 9.39768 7.73642 9.88093V10.9327C7.73642 11.416 7.34467 11.8077 6.86142 11.8077H5.75V12.9977H5V9.00593ZM5.75 11.0577H6.86142C6.93046 11.0577 6.98642 11.0017 6.98642 10.9327V9.88093C6.98642 9.81189 6.93046 9.75593 6.86142 9.75593H5.75V11.0577Z" fill="black" fill-opacity="0.9"/>
<path d="M11.7539 12.9977H12.5039V11.4166H14.1153V10.6666H12.5039V9.75005H14.1153V9.00005H11.7539V12.9977Z" fill="black" fill-opacity="0.9"/>
</svg>
