<svg width="16" height="16" viewBox="0 0 16 16" fill="none" xmlns="http://www.w3.org/2000/svg">
<path d="M4 1C3.44386 1 3 1.44386 3 2V13C3 13.5561 3.44386 14 4 14H8.53613V13H4V2H8V6H12V8.48438H13V5.70711C13 5.44189 12.8946 5.18754 12.7071 5L12.6246 4.91753L12.6236 4.91644L8.91355 1.20645C8.82878 1.12167 8.72835 1.07544 8.62863 1.05804C8.52186 1.01999 8.40841 1 8.29289 1H4ZM11.2929 5H9V2.70711L11.2929 5Z" fill="black" fill-opacity="0.9"/>
<path d="M12 15V13H10V12H12V10H13V12H15V13H13V15H12Z" fill="black" fill-opacity="0.9"/>
</svg>
