<svg width="16" height="16" viewBox="0 0 16 16" fill="none" xmlns="http://www.w3.org/2000/svg">
<path d="M3.5 2V14H11.2336V15H3.49534C3.02005 15 2.5 14.6627 2.5 14.0781V1.92191C2.5 1.33727 3.02005 1 3.49534 1H8.86589C9.13442 1 9.39167 1.108 9.57972 1.29969L13.2138 5.004C13.3973 5.19096 13.5 5.44241 13.5 5.70431V7.5H12.5V6.01275H8.50008V2H3.5ZM9.50008 5.01275H11.8215L9.50008 2.64645V5.01275Z" fill="black" fill-opacity="0.9"/>
<path d="M4.48145 9H6.48145V9.8H5.88145V12.2H6.48145V13H4.48145V12.2H5.08145V9.8H4.48145V9Z" fill="black" fill-opacity="0.9"/>
<path d="M8.99999 9H7.79246C7.35479 9 6.99999 9.35817 6.99999 9.8V12.2C6.99999 12.6418 7.35479 13 7.79246 13H8.99999V12.2H7.79246V9.8H8.99999V9Z" fill="black" fill-opacity="0.9"/>
<path d="M13.7972 9.8L13.7972 13H13L13 9H14.7434C15.1837 9 15.5406 9.35817 15.5406 9.8V13H14.7434V9.8H13.7972Z" fill="black" fill-opacity="0.9"/>
<path d="M9.5 9.80928L9.5 12.201C9.5 12.6413 9.85693 12.9982 10.2972 12.9982H11.4931C11.9334 12.9982 12.2903 12.6413 12.2903 12.201V9.80928C12.2903 9.36899 11.9334 9.01205 11.4931 9.01205H10.2972C9.85693 9.01205 9.5 9.36899 9.5 9.80928ZM10.2972 12.201L10.2972 9.80928H11.4931V12.201H10.2972Z" fill="black" fill-opacity="0.9"/>
</svg>
