<svg width="16" height="16" viewBox="0 0 16 16" fill="none" xmlns="http://www.w3.org/2000/svg">
<path d="M3.5 2.00006V14.0001H6.5V15.0001H3.49534C3.02005 15.0001 2.5 14.6628 2.5 14.0781V1.92197C2.5 1.33733 3.02005 1.00006 3.49534 1.00006L8.8658 1C9.13433 1 9.39158 1.108 9.57964 1.29969L13.2138 5.004C13.3972 5.19096 13.4999 5.44241 13.4999 5.70431V8H12.4999V6.01275H8.5V2L3.5 2.00006ZM9.5 2.64645V5.01275H11.8215L9.5 2.64645Z" fill="black" fill-opacity="0.9"/>
<path d="M9 14L9 9.5H8L8 14C8 14.5523 8.44772 15 9 15H12.5C13.0523 15 13.5 14.5523 13.5 14V9.5H12.5L12.5 14H11.25L11.25 9.5H10.25L10.25 14H9Z" fill="black" fill-opacity="0.9"/>
</svg>
