<svg width="16" height="16" viewBox="0 0 16 16" fill="none" xmlns="http://www.w3.org/2000/svg">
<path d="M3.5 2V14H8V15H3.49534C3.02005 15 2.5 14.6627 2.5 14.0781V1.92191C2.5 1.33727 3.02005 1 3.49534 1H8.86589C9.13442 1 9.39167 1.108 9.57972 1.29969L13.2138 5.004C13.3973 5.19096 13.5 5.44241 13.5 5.70431V7.5H12.5V6.01275H8.50008V2H3.5ZM9.50008 2.64645V5.01275H11.8215L9.50008 2.64645Z" fill="black" fill-opacity="0.9"/>
<path d="M10.3363 9.7921C10.3363 9.82234 10.3466 9.85167 10.3656 9.87524L11.4181 11.1851L12.4707 9.87524C12.4896 9.85167 12.5 9.82234 12.5 9.7921V8.9524H13.5V9.7921C13.5 10.0502 13.4119 10.3005 13.2502 10.5016L12.0596 11.9833L13.2502 13.465C13.4119 13.6662 13.5 13.9165 13.5 14.1745V15.0142H12.5V14.1745C12.5 14.1443 12.4896 14.115 12.4707 14.0914L11.4181 12.7815L10.3656 14.0914C10.3466 14.115 10.3363 14.1443 10.3363 14.1745L10.3363 15.0142L9.33631 15.0142L9.33631 14.1745C9.33631 13.9165 9.42442 13.6662 9.58607 13.465L10.7767 11.9833L9.58607 10.5016C9.42442 10.3005 9.33631 10.0502 9.33631 9.79211L9.3363 8.9524L10.3363 8.95239L10.3363 9.7921Z" fill="black" fill-opacity="0.9"/>
</svg>
