<svg width="16" height="16" viewBox="0 0 16 16" fill="none" xmlns="http://www.w3.org/2000/svg">
<path d="M3.5 2V14H8V15H3.49534C3.02005 15 2.5 14.6627 2.5 14.0781V1.92191C2.5 1.33727 3.02005 1 3.49534 1H8.86589C9.13442 1 9.39167 1.108 9.57972 1.29969L13.2138 5.004C13.3973 5.19096 13.5 5.44241 13.5 5.70431V7.5H12.5V6.01275H8.50008V2H3.5ZM9.50008 2.64645V5.01275H11.8215L9.50008 2.64645Z" fill="black" fill-opacity="0.9"/>
<path d="M12.5 8.5H9.5V15H10.5V12.5H12.5C13.0523 12.5 13.5 12.0523 13.5 11.5V9.5C13.5 8.94772 13.0523 8.5 12.5 8.5ZM12.5 11.5H10.5V9.5H12.5V11.5Z" fill="black" fill-opacity="0.9"/>
</svg>
