<svg width="16" height="16" viewBox="0 0 16 16" fill="none" xmlns="http://www.w3.org/2000/svg">
<path d="M11 11.5H5V12.5H11V11.5Z" fill="black" fill-opacity="0.9"/>
<path d="M2.5 1.92191C2.5 1.33727 3.02005 1 3.49534 1L8.7929 1.00007C9.05812 1.00007 9.31246 1.10543 9.5 1.29296L13.2071 5.00007C13.3946 5.18761 13.5 5.44196 13.5 5.70718V14.0782C13.5 14.6628 12.9799 15.0001 12.5047 15.0001L3.49534 15C3.02005 15 2.5 14.6627 2.5 14.0781V1.92191ZM3.5 2V14L12.5 14.0001V6.01283H8.50005V2.00007L3.5 2ZM9.50005 5.01283H11.8056L9.50005 2.70722V5.01283Z" fill="black" fill-opacity="0.9"/>
</svg>
