<svg width="16" height="16" viewBox="0 0 16 16" fill="none" xmlns="http://www.w3.org/2000/svg">
<path d="M3.5 2V14H9V15H3.49534C3.02005 15 2.5 14.6627 2.5 14.0781V1.92191C2.5 1.33727 3.02005 1 3.49534 1H8.78616C9.05469 1 9.31194 1.108 9.5 1.29969L13.1341 5.004C13.3175 5.19096 13.4203 5.44241 13.4203 5.70431V7.5H12.4203V6.01275H8.42036V2H3.5ZM9.42036 2.64645V5.01275H11.7418L9.42036 2.64645Z" fill="black" fill-opacity="0.9"/>
<path d="M11.4203 8.42065C10.3495 8.42065 9.42028 9.24178 9.42028 10.3222H10.4203C10.4203 9.85692 10.8368 9.42065 11.4203 9.42065C12.0038 9.42065 12.4203 9.85692 12.4203 10.3222C12.4203 10.6216 12.1402 10.9812 11.7014 11.1477L11.699 11.1487C11.2559 11.3196 10.9203 11.7405 10.9203 12.2599V12.9207H11.9203V12.2599C11.9203 12.1949 11.9616 12.1195 12.0579 12.0821C12.7159 11.8317 13.4203 11.1914 13.4203 10.3222C13.4203 9.24178 12.491 8.42065 11.4203 8.42065Z" fill="black" fill-opacity="0.9"/>
<path d="M11.4202 13.8C11.0888 13.8 10.8202 14.0686 10.8202 14.4C10.8202 14.7314 11.0888 15 11.4202 15C11.7515 15 12.0202 14.7314 12.0202 14.4C12.0202 14.0686 11.7515 13.8 11.4202 13.8Z" fill="black" fill-opacity="0.9"/>
</svg>
