<svg width="16" height="16" viewBox="0 0 16 16" fill="none" xmlns="http://www.w3.org/2000/svg">
<path d="M3.99995 1.92191C3.99995 1.33727 4.52001 1 4.9953 1H9.36584C9.63437 1 9.89162 1.108 10.0797 1.29969L13.7139 5.00415C13.8972 5.19093 13.9999 5.44209 14.0001 5.70375L14.0046 12.0777C14.0046 12.6624 13.4846 13 13.0093 13H4.99995C4.52472 13 4.00474 12.6628 4.00461 12.0783L3.99995 1.92191ZM4.99999 2L5.00457 12H13.0046L13.0003 6.01275H9.00004V2H4.99999ZM10 2.64645V5.01275H12.3215L10 2.64645Z" fill="black" fill-opacity="0.9"/>
<path d="M2 5.00001V14.0128C2 14.565 2.44772 15.0128 3 15.0128H11V14.0128L3 14.0128V5.00001H2Z" fill="black" fill-opacity="0.9"/>
</svg>
