<svg width="16" height="16" viewBox="0 0 16 16" fill="none" xmlns="http://www.w3.org/2000/svg">
<path d="M3.5 1.99988V13.9999H8V14.9999H3.49534C3.02005 14.9999 2.5 14.6626 2.5 14.078V1.92179C2.5 1.33715 3.02005 0.999878 3.49534 0.999878H8.86589C9.13442 0.999878 9.39167 1.10788 9.57972 1.29957L13.2138 5.00388C13.3973 5.19083 13.5 5.44229 13.5 5.70419V7.49988H12.5V6.01263H8.50008V1.99988H3.5ZM9.50008 2.64633V5.01263H11.8215L9.50008 2.64633Z" fill="black" fill-opacity="0.9"/>
<path d="M10.3363 9.79198L10.3363 8.95227L9.3363 8.95228L9.33631 9.79198C9.33631 10.05 9.42442 10.3004 9.58607 10.5015L10.7767 11.9832L9.58607 13.4649C9.42442 13.666 9.33631 13.9164 9.33631 14.1744L9.33631 15.0141L10.3363 15.0141L10.3363 14.1744C10.3363 14.1442 10.3466 14.1148 10.3656 14.0913L11.4181 12.7814L12.4707 14.0913C12.4896 14.1148 12.5 14.1442 12.5 14.1744V15.0141H13.5V14.1744C13.5 13.9164 13.4119 13.666 13.2502 13.4649L12.0596 11.9832L13.2502 10.5015C13.4119 10.3004 13.5 10.05 13.5 9.79198V8.95227H12.5V9.79198C12.5 9.82222 12.4896 9.85155 12.4707 9.87512L11.4181 11.185L10.3656 9.87512C10.3466 9.85155 10.3363 9.82222 10.3363 9.79198Z" fill="black" fill-opacity="0.9"/>
</svg>
