<svg width="16" height="16" viewBox="0 0 16 16" fill="none" xmlns="http://www.w3.org/2000/svg">
<path d="M2.5 2.7439H6.42857L8.5 4.39461H13.5V3.39461H8.84972L6.77829 1.7439L2.5 1.7439V2.7439Z" fill="black" fill-opacity="0.9"/>
<path d="M2.5 4.3946C1.94772 4.3946 1.5 4.84231 1.5 5.3946V13C1.5 13.5523 1.94772 14 2.5 14L13.5 14C14.0523 14 14.5 13.5522 14.5 13V7.04531C14.5 6.49303 14.0523 6.04531 13.5 6.04531H8.17486L6.10343 4.39459L2.5 4.3946ZM2.5 5.3946L5.75371 5.39459L7.82514 7.04531H13.5V13L2.5 13V5.3946Z" fill="black" fill-opacity="0.9"/>
</svg>
