<svg width="16" height="16" viewBox="0 0 16 16" fill="none" xmlns="http://www.w3.org/2000/svg">
<path d="M2.5 2.74396H6.42857L8.5 4.39468H13.5V3.39468H8.84972L6.77829 1.74396L2.5 1.74396V2.74396Z" fill="black" fill-opacity="0.9"/>
<path d="M2.5 4.39466C1.94772 4.39466 1.5 4.84237 1.5 5.39466V13C1.5 13.5523 1.94772 14 2.5 14L13.5 14C14.0523 14 14.5 13.5523 14.5 13V7.04537C14.5 6.49309 14.0523 6.04537 13.5 6.04537H8.17486L6.10343 4.39465L2.5 4.39466ZM2.5 5.39466L5.75371 5.39465L7.82514 7.04537H13.5V13L2.5 13V5.39466Z" fill="black" fill-opacity="0.9"/>
</svg>
