<svg width="16" height="16" viewBox="0 0 16 16" fill="none" xmlns="http://www.w3.org/2000/svg">
<path d="M14.7576 7.60926C15.0084 7.80943 15.0084 8.19058 14.7576 8.39075L9.12025 12.8914C8.79279 13.1529 8.30829 12.9197 8.30829 12.5007L8.30829 8.23459C8.27887 8.29002 8.23829 8.341 8.18653 8.38412L2.8201 12.8562C2.49443 13.1276 2 12.896 2 12.4721L2 3.5279C2 3.10398 2.49443 2.87241 2.8201 3.1438L8.18653 7.61591C8.23829 7.65903 8.27887 7.71 8.30829 7.76544L8.30829 3.49935C8.30829 3.08033 8.79279 2.84717 9.12025 3.1086L14.7576 7.60926ZM9.30829 4.53833L9.30829 11.4617L13.6443 8.00001L9.30829 4.53833ZM3 4.59544L3 11.4046L7.08542 8.00001L3 4.59544Z" fill="black" fill-opacity="0.9"/>
</svg>
