<svg width="16" height="16" viewBox="0 0 16 16" fill="none" xmlns="http://www.w3.org/2000/svg">
<path d="M8 1.67828C6.067 1.67828 4.5 3.24529 4.5 5.17828C4.5 6.94604 5.81055 8.4077 7.51306 8.64468L7.51311 10.0021H5.51315V11.0021H7.51315L7.51329 14.502L8.51329 14.502L8.51315 11.0021H10.5132V10.0021H8.51311L8.51306 8.64095C10.2028 8.39273 11.5 6.93699 11.5 5.17828C11.5 3.24529 9.933 1.67828 8 1.67828ZM8 2.67828C9.38071 2.67828 10.5 3.79757 10.5 5.17828C10.5 6.559 9.38071 7.67828 8 7.67828C6.61929 7.67828 5.5 6.559 5.5 5.17828C5.5 3.79757 6.61929 2.67828 8 2.67828Z" fill="black" fill-opacity="0.9"/>
</svg>
