<svg width="16" height="16" viewBox="0 0 16 16" fill="none" xmlns="http://www.w3.org/2000/svg">
<path fill-rule="evenodd" clip-rule="evenodd" d="M13.0002 3.6C13.0002 3.26863 12.7316 3 12.4002 3H9.00023V4L11.3829 4L7.67257 7.7104C6.29948 6.64114 4.31283 6.73766 3.05052 7.99998C1.68368 9.36682 1.68368 11.5829 3.05052 12.9497C4.41735 14.3166 6.63343 14.3166 8.00026 12.9497C9.23145 11.7185 9.35364 9.79831 8.36682 8.43036L12.0002 4.79693V7H13.0002V3.6ZM3.75762 12.2426C2.78131 11.2663 2.78131 9.6834 3.75762 8.70709C4.73393 7.73078 6.31685 7.73078 7.29316 8.70709C8.26947 9.6834 8.26947 11.2663 7.29316 12.2426C6.31685 13.2189 4.73393 13.2189 3.75762 12.2426Z" fill="black" fill-opacity="0.9"/>
</svg>
