<svg width="16" height="16" viewBox="0 0 16 16" fill="none" xmlns="http://www.w3.org/2000/svg">
<path d="M8 1.67822C6.067 1.67822 4.5 3.24523 4.5 5.17822C4.5 6.94598 5.81055 8.40764 7.51306 8.64462L7.51311 10.0021H5.51315V11.0021H7.51315L7.51329 14.502L8.51329 14.5019L8.51315 11.0021H10.5132V10.0021H8.51311L8.51306 8.64089C10.2028 8.39267 11.5 6.93693 11.5 5.17822C11.5 3.24523 9.933 1.67822 8 1.67822ZM8 2.67822C9.38071 2.67822 10.5 3.79751 10.5 5.17822C10.5 6.55893 9.38071 7.67822 8 7.67822C6.61929 7.67822 5.5 6.55893 5.5 5.17822C5.5 3.79751 6.61929 2.67822 8 2.67822Z" fill="black" fill-opacity="0.9"/>
</svg>
