<svg width="16" height="16" viewBox="0 0 16 16" fill="none" xmlns="http://www.w3.org/2000/svg">
<path d="M3.5 4C3.5 4.5628 3.68597 5.08217 3.99982 5.5H2.5C2.22386 5.5 2 5.72386 2 6V14C2 14.2761 2.22386 14.5 2.5 14.5H13.5C13.7761 14.5 14 14.2761 14 14V6C14 5.72386 13.7761 5.5 13.5 5.5H12.0002C12.314 5.08217 12.5 4.5628 12.5 4C12.5 2.61929 11.3807 1.5 10 1.5C9.1822 1.5 8.45611 1.89267 8 2.49976C7.54388 1.89267 6.8178 1.5 6 1.5C4.61929 1.5 3.5 2.61929 3.5 4ZM11.5 4C11.5 4.82843 10.8284 5.5 10 5.5H8.5V4C8.5 3.17157 9.17157 2.5 10 2.5C10.8284 2.5 11.5 3.17157 11.5 4ZM7.5 6.5V11H8.5V6.5H13V13.5H3V6.5H7.5ZM7.5 5.5H6C5.17157 5.5 4.5 4.82843 4.5 4C4.5 3.17157 5.17157 2.5 6 2.5C6.82843 2.5 7.5 3.17157 7.5 4V5.5Z" fill="black" fill-opacity="0.9"/>
</svg>
