<svg width="16" height="16" viewBox="0 0 16 16" fill="none" xmlns="http://www.w3.org/2000/svg">
<path d="M8 5.85656L9.06389 4.88133C10.5705 3.50029 13 4.56904 13 6.61283C13 7.2358 12.7525 7.83325 12.312 8.27375L8 12.5858L3.68798 8.27376C3.24747 7.83325 3 7.2358 3 6.61283C3 4.56904 5.42952 3.50029 6.93611 4.88133L8 5.85656ZM7.61184 4.14417C5.46385 2.17518 2 3.69894 2 6.61283C2 7.50101 2.35283 8.35282 2.98087 8.98086L7.85429 13.8543C7.93477 13.9348 8.06523 13.9348 8.14571 13.8543L13.0191 8.98086C13.6472 8.35282 14 7.50101 14 6.61283C14 3.69893 10.5362 2.17518 8.38816 4.14418L8 4.49999L7.61184 4.14417Z" fill="black" fill-opacity="0.9"/>
</svg>
