<svg width="16" height="16" viewBox="0 0 16 16" fill="none" xmlns="http://www.w3.org/2000/svg">
<path d="M8 2.5C6.10262 2.5 4.5 3.94793 4.5 5.8H5.5C5.5 4.56407 6.58881 3.5 8 3.5C9.41119 3.5 10.5 4.56407 10.5 5.8C10.5 6.68407 9.72532 7.55083 8.73987 7.92448L8.73742 7.92542C8.02449 8.20003 7.5 8.86853 7.5 9.68V11H8.5V9.68C8.5 9.32382 8.72935 9.0006 9.09579 8.859C10.3042 8.40029 11.5 7.25137 11.5 5.8C11.5 3.94793 9.89738 2.5 8 2.5Z" fill="black" fill-opacity="0.9"/>
<path d="M8 12C7.58579 12 7.25 12.3358 7.25 12.75C7.25 13.1642 7.58579 13.5 8 13.5C8.41421 13.5 8.75 13.1642 8.75 12.75C8.75 12.3358 8.41421 12 8 12Z" fill="black" fill-opacity="0.9"/>
</svg>
