<svg width="16" height="16" viewBox="0 0 16 16" fill="none" xmlns="http://www.w3.org/2000/svg">
<path d="M14.9941 8C14.9941 11.866 11.8601 15 7.99414 15C4.12815 15 0.994138 11.866 0.994141 8C0.994142 4.134 4.12815 0.999998 7.99414 1C11.8601 1 14.9941 4.13401 14.9941 8ZM5.80249 6.6315H6.80249C6.80249 5.9749 7.33739 5.44 7.99399 5.44C8.65059 5.44 9.1855 5.9749 9.1855 6.6315C9.1855 7.07185 8.81772 7.52775 8.32296 7.72875L8.32041 7.7298C7.83289 7.931 7.49403 8.41041 7.49403 8.97008V9.7675H8.49403V8.97008C8.49403 8.82451 8.58005 8.70488 8.701 8.65455C9.4429 8.35248 10.1855 7.60163 10.1855 6.6315C10.1855 5.42262 9.20288 4.44 7.99399 4.44C6.78511 4.44 5.80249 5.42262 5.80249 6.6315ZM7.46673 11.1734C7.46673 11.4646 7.70277 11.7007 7.99395 11.7007C8.28513 11.7007 8.52117 11.4646 8.52117 11.1734C8.52117 10.8823 8.28513 10.6462 7.99395 10.6462C7.70277 10.6462 7.46673 10.8823 7.46673 11.1734Z" fill="black" fill-opacity="0.9"/>
</svg>
