<svg width="16" height="16" viewBox="0 0 16 16" fill="none" xmlns="http://www.w3.org/2000/svg">
<path d="M2 13V8H3L3 10.2929L6 7.29289L11.7071 13H13L13 3L8 3V2H13C13.5523 2 14 2.44772 14 3L14 13C14 13.5523 13.5523 14 13 14L3 14C2.44772 14 2 13.5523 2 13ZM6 8.70711L3 11.7071L3 13L10.2929 13L6 8.70711Z" fill="black" fill-opacity="0.9"/>
<path d="M12 6C12 7.10457 11.1046 8 10 8C8.89543 8 8 7.10457 8 6C8 4.89543 8.89543 4 10 4C11.1046 4 12 4.89543 12 6ZM11 6C11 5.44772 10.5523 5 10 5C9.44772 5 9 5.44772 9 6C9 6.55228 9.44772 7 10 7C10.5523 7 11 6.55228 11 6Z" fill="black" fill-opacity="0.9"/>
<path d="M6.28208 5.55923L5.57497 6.26634L4.16076 4.85213L2.74654 6.26634L2.03943 5.55923L3.45365 4.14502L2.03943 2.73081L2.74654 2.0237L4.16076 3.43791L5.57497 2.0237L6.28208 2.73081L4.86786 4.14502L6.28208 5.55923Z" fill="black" fill-opacity="0.9"/>
</svg>
