<svg width="16" height="16" viewBox="0 0 16 16" fill="none" xmlns="http://www.w3.org/2000/svg">
<path fill-rule="evenodd" clip-rule="evenodd" d="M10 8C11.1046 8 12 7.10457 12 6C12 4.89543 11.1046 4 10 4C8.89543 4 8 4.89543 8 6C8 7.10457 8.89543 8 10 8ZM10 7C10.5523 7 11 6.55228 11 6C11 5.44772 10.5523 5 10 5C9.44772 5 9 5.44772 9 6C9 6.55228 9.44772 7 10 7Z" fill="black" fill-opacity="0.9"/>
<path d="M2 13C2 13.5523 2.44772 14 3 14L13 14C13.5523 14 14 13.5523 14 13L14 3C14 2.44772 13.5523 2 13 2H3C2.44772 2 2 2.44771 2 3V13ZM3 11.7071L6 8.70711L10.2929 13L3 13L3 11.7071ZM3 10.2929L3 3L13 3L13 13H11.7071L6 7.29289L3 10.2929Z" fill="black" fill-opacity="0.9"/>
</svg>
