<svg width="16" height="16" viewBox="0 0 16 16" fill="none" xmlns="http://www.w3.org/2000/svg">
<path d="M2.29329 13.7067C2.48075 13.8942 2.73489 13.9996 3 14H13C13.2651 13.9996 13.5193 13.8942 13.7067 13.7067C13.8942 13.5193 13.9996 13.2651 14 13V8.5H13V13H3V3H7.5V2H3C2.73489 2.00036 2.48075 2.10583 2.29329 2.29329C2.10583 2.48075 2.00036 2.73489 2 3V13C2.00036 13.2651 2.10583 13.5193 2.29329 13.7067Z" fill="black" fill-opacity="0.9"/>
<path d="M9 3V2H13.5C13.7761 2 14 2.22386 14 2.5V7H13V3.707L8.707 8L8 7.293L12.293 3H9Z" fill="black" fill-opacity="0.9"/>
</svg>
