<svg width="16" height="16" viewBox="0 0 16 16" fill="none" xmlns="http://www.w3.org/2000/svg">
<path d="M6.23254 11.8891L8.35386 9.76776L9.06096 10.4749L6.93964 12.5962C5.96333 13.5725 4.38042 13.5725 3.40411 12.5962C2.4278 11.6199 2.4278 10.037 3.40411 9.06066L5.52543 6.93934L6.23253 7.64644L4.11121 9.76776C3.52543 10.3536 3.52543 11.3033 4.11121 11.8891C4.697 12.4749 5.64675 12.4749 6.23254 11.8891Z" fill="black" fill-opacity="0.9"/>
<path d="M10.4752 9.06066L9.76807 8.35355L11.8894 6.23223C12.4752 5.64644 12.4752 4.6967 11.8894 4.11091C11.3036 3.52512 10.3539 3.52512 9.76807 4.11091L7.64675 6.23223L6.93964 5.52512L9.06096 3.4038C10.0373 2.42749 11.6202 2.42749 12.5965 3.4038C13.5728 4.38011 13.5728 5.96303 12.5965 6.93934L10.4752 9.06066Z" fill="black" fill-opacity="0.9"/>
<path d="M9.06111 6.23225L6.23269 9.06068L6.93979 9.76778L9.76822 6.93936L9.06111 6.23225Z" fill="black" fill-opacity="0.9"/>
</svg>
