<svg width="16" height="16" viewBox="0 0 16 16" fill="none" xmlns="http://www.w3.org/2000/svg">
<path d="M6 2L6 4L7 4V2H6Z" fill="black" fill-opacity="0.9"/>
<path d="M8.1767 9.59104L5.8786 11.8891C5.39045 12.3773 4.59899 12.3773 4.11084 11.8891C3.62268 11.401 3.62268 10.6095 4.11084 10.1214L6.40893 7.82327L5.70183 7.11617L3.40373 9.41426C2.52505 10.2929 2.52505 11.7176 3.40373 12.5962C4.28241 13.4749 5.70703 13.4749 6.58571 12.5962L8.88381 10.2981L8.1767 9.59104Z" fill="black" fill-opacity="0.9"/>
<path d="M9.59091 8.17683L10.298 8.88393L12.5961 6.58584C13.4748 5.70716 13.4748 4.28254 12.5961 3.40386C11.7174 2.52518 10.2928 2.52518 9.41414 3.40386L7.11604 5.70195L7.82315 6.40906L10.1212 4.11096C10.6094 3.62281 11.4009 3.62281 11.889 4.11096C12.3772 4.59912 12.3772 5.39058 11.889 5.87873L9.59091 8.17683Z" fill="black" fill-opacity="0.9"/>
<path d="M12 8.99994V9.99994H14V8.99994H12Z" fill="black" fill-opacity="0.9"/>
<path d="M2 7H4V6H2V7Z" fill="black" fill-opacity="0.9"/>
<path d="M10 11.9999H9L9 13.9999H10V11.9999Z" fill="black" fill-opacity="0.9"/>
<path d="M11.7322 11.0251L11.0251 11.7322L12.6464 13.3535L13.3536 12.6464L11.7322 11.0251Z" fill="black" fill-opacity="0.9"/>
<path d="M2.64645 3.35349L4.26777 4.97481L4.97487 4.26771L3.35355 2.64639L2.64645 3.35349Z" fill="black" fill-opacity="0.9"/>
</svg>
