<svg width="16" height="16" viewBox="0 0 16 16" fill="none" xmlns="http://www.w3.org/2000/svg">
<path d="M6 1.99994L6 3.99994L7 3.99994V1.99994H6Z" fill="black" fill-opacity="0.9"/>
<path d="M8.1767 9.59098L5.8786 11.8891C5.39045 12.3772 4.59899 12.3772 4.11084 11.8891C3.62268 11.4009 3.62268 10.6095 4.11084 10.1213L6.40893 7.82321L5.70183 7.11611L3.40373 9.4142C2.52505 10.2929 2.52505 11.7175 3.40373 12.5962C4.28241 13.4749 5.70703 13.4749 6.58571 12.5962L8.88381 10.2981L8.1767 9.59098Z" fill="black" fill-opacity="0.9"/>
<path d="M9.59091 8.17677L10.298 8.88387L12.5961 6.58578C13.4748 5.7071 13.4748 4.28248 12.5961 3.4038C11.7174 2.52512 10.2928 2.52512 9.41414 3.4038L7.11604 5.70189L7.82315 6.409L10.1212 4.1109C10.6094 3.62275 11.4009 3.62275 11.889 4.1109C12.3772 4.59906 12.3772 5.39051 11.889 5.87867L9.59091 8.17677Z" fill="black" fill-opacity="0.9"/>
<path d="M12 8.99988H14V9.99988H12V8.99988Z" fill="black" fill-opacity="0.9"/>
<path d="M2 6.99994H4V5.99994H2V6.99994Z" fill="black" fill-opacity="0.9"/>
<path d="M10 11.9999V13.9999H9L9 11.9999H10Z" fill="black" fill-opacity="0.9"/>
<path d="M11.7322 11.025L13.3536 12.6463L12.6464 13.3534L11.0251 11.7321L11.7322 11.025Z" fill="black" fill-opacity="0.9"/>
<path d="M2.64645 3.35343L4.26777 4.97475L4.97487 4.26765L3.35355 2.64632L2.64645 3.35343Z" fill="black" fill-opacity="0.9"/>
</svg>
