<svg width="16" height="16" viewBox="0 0 16 16" fill="none" xmlns="http://www.w3.org/2000/svg">
<path fill-rule="evenodd" clip-rule="evenodd" d="M8.00007 1.5C7.64595 1.5 7.35889 1.78707 7.35889 2.14118V4.10882C7.35889 4.46293 7.64595 4.75 8.00007 4.75C8.35419 4.75 8.64125 4.46293 8.64125 4.10882V2.14118C8.64125 1.78707 8.35419 1.5 8.00007 1.5ZM11.3778 2.46736C11.0714 2.29065 10.6797 2.3956 10.5027 2.70185L9.51727 4.40655C9.33997 4.71327 9.44511 5.10565 9.75202 5.28262C10.0585 5.45933 10.4501 5.35439 10.6272 5.04813L11.6126 3.34343C11.7899 3.03671 11.6847 2.64433 11.3778 2.46736ZM12.6379 4.57758C12.9441 4.40098 13.3355 4.50586 13.5125 4.81192C13.6896 5.11845 13.5846 5.51059 13.2779 5.68745L11.5697 6.67245C11.2634 6.84905 10.872 6.74417 10.6951 6.43811C10.5179 6.13158 10.623 5.73944 10.9297 5.56258L12.6379 4.57758ZM14.5 7.87493C14.5 7.52125 14.2133 7.23454 13.8596 7.23454H11.8864C11.5327 7.23454 11.246 7.52125 11.246 7.87493C11.246 8.22861 11.5327 8.51533 11.8864 8.51533H13.8596C14.2133 8.51533 14.5 8.22861 14.5 7.87493ZM13.2775 10.3126C13.5842 10.4894 13.6893 10.8816 13.5121 11.1881C13.3352 11.4942 12.9438 11.5991 12.6375 11.4225L10.9293 10.4375C10.6226 10.2606 10.5175 9.86845 10.6947 9.56192C10.8717 9.25586 11.2631 9.15098 11.5693 9.32758L13.2775 10.3126ZM11.3779 13.7827C11.6848 13.6057 11.7899 13.2133 11.6126 12.9066L10.6272 11.2019C10.4501 10.8957 10.0585 10.7907 9.75204 10.9674C9.44514 11.1444 9.34 11.5368 9.5173 11.8435L10.5027 13.5482C10.6798 13.8545 11.0714 13.9594 11.3779 13.7827ZM8.64111 13.8588C8.64111 14.2129 8.35405 14.5 7.99993 14.5C7.64581 14.5 7.35875 14.2129 7.35875 13.8588V11.8912C7.35875 11.5371 7.64581 11.25 7.99993 11.25C8.35405 11.25 8.64111 11.5371 8.64111 11.8912V13.8588ZM4.62216 13.7826C4.92861 13.9593 5.32027 13.8543 5.4973 13.5481L6.48272 11.8434C6.66003 11.5367 6.55489 11.1443 6.24798 10.9673C5.94154 10.7906 5.54988 10.8956 5.37285 11.2018L4.38742 12.9065C4.21012 13.2132 4.31526 13.6056 4.62216 13.7826ZM3.10597 11.4224C2.79972 11.599 2.4083 11.4941 2.23137 11.1881C2.05418 10.8815 2.15925 10.4894 2.46597 10.3125L4.17414 9.32755C4.4804 9.15095 4.87182 9.25583 5.04874 9.56189C5.22593 9.86842 5.12086 10.2606 4.81414 10.4374L3.10597 11.4224ZM1.5 7.87496C1.5 8.22864 1.78671 8.51535 2.14039 8.51535H4.11361C4.46729 8.51535 4.75401 8.22864 4.75401 7.87496C4.75401 7.52128 4.46729 7.23456 4.11361 7.23456H2.14039C1.78671 7.23456 1.5 7.52128 1.5 7.87496ZM2.46586 5.68742C2.15915 5.51056 2.05407 5.11842 2.23126 4.81189C2.40819 4.50583 2.79961 4.40095 3.10586 4.57755L4.81404 5.56255C5.12075 5.73941 5.22582 6.13155 5.04863 6.43808C4.87171 6.74414 4.48029 6.84902 4.17404 6.67242L2.46586 5.68742ZM4.62214 2.46741C4.31524 2.64439 4.2101 3.03677 4.3874 3.34348L5.37282 5.04819C5.54986 5.35444 5.94152 5.45938 6.24796 5.28268C6.55486 5.1057 6.66 4.71332 6.4827 4.40661L5.49728 2.7019C5.32024 2.39565 4.92858 2.29071 4.62214 2.46741Z" fill="url(#paint0_angular_16845_6084)"/>
<defs>
<radialGradient id="paint0_angular_16845_6084" cx="0" cy="0" r="1" gradientUnits="userSpaceOnUse" gradientTransform="translate(8 8) rotate(-15.2551) scale(6.7374)">
<stop stop-color="#0052D9" stop-opacity="0.01"/>
<stop offset="1" stop-color="#0052D9"/>
</radialGradient>
</defs>
</svg>
