<svg width="16" height="16" viewBox="0 0 16 16" fill="none" xmlns="http://www.w3.org/2000/svg">
<path d="M10.5001 5.99993C10.5001 7.38064 9.3808 8.49993 8.00009 8.49993C6.61938 8.49993 5.50009 7.38064 5.50009 5.99993C5.50009 4.61922 6.61938 3.49993 8.00009 3.49993C9.3808 3.49993 10.5001 4.61922 10.5001 5.99993ZM9.50009 5.99993C9.50009 5.1715 8.82852 4.49993 8.00009 4.49993C7.17166 4.49993 6.50009 5.1715 6.50009 5.99993C6.50009 6.82835 7.17166 7.49993 8.00009 7.49993C8.82852 7.49993 9.50009 6.82835 9.50009 5.99993Z" fill="black" fill-opacity="0.9"/>
<path d="M8.36196 14.4683C8.18821 14.7236 7.81196 14.7236 7.63822 14.4683L3.85557 8.91168C2.50041 6.92097 2.75204 4.24798 4.45488 2.54513C6.41284 0.58717 9.58733 0.587169 11.5453 2.54513C13.2481 4.24798 13.4998 6.92097 12.1446 8.91168L8.36196 14.4683ZM11.318 8.34895C12.4028 6.7553 12.2014 4.61544 10.8382 3.25224C9.27075 1.6848 6.72943 1.6848 5.16199 3.25224C3.79878 4.61545 3.59735 6.7553 4.68221 8.34895L8.00009 13.2229L11.318 8.34895Z" fill="black" fill-opacity="0.9"/>
</svg>
