<svg width="16" height="16" viewBox="0 0 16 16" fill="none" xmlns="http://www.w3.org/2000/svg">
<path d="M10.5001 5.99999C10.5001 7.3807 9.3808 8.49999 8.00009 8.49999C6.61938 8.49999 5.50009 7.3807 5.50009 5.99999C5.50009 4.61928 6.61938 3.49999 8.00009 3.49999C9.3808 3.49999 10.5001 4.61928 10.5001 5.99999ZM9.50009 5.99999C9.50009 5.17156 8.82852 4.49999 8.00009 4.49999C7.17166 4.49999 6.50009 5.17156 6.50009 5.99999C6.50009 6.82842 7.17166 7.49999 8.00009 7.49999C8.82852 7.49999 9.50009 6.82842 9.50009 5.99999Z" fill="black" fill-opacity="0.9"/>
<path d="M8.36196 14.4684C8.18821 14.7236 7.81196 14.7236 7.63822 14.4684L3.85557 8.91174C2.50041 6.92103 2.75204 4.24804 4.45488 2.54519C6.41284 0.587231 9.58733 0.58723 11.5453 2.54519C13.2481 4.24804 13.4998 6.92103 12.1446 8.91174L8.36196 14.4684ZM11.318 8.34901C12.4028 6.75536 12.2014 4.61551 10.8382 3.2523C9.27075 1.68486 6.72943 1.68486 5.16199 3.2523C3.79878 4.61551 3.59735 6.75536 4.68221 8.34901L8.00009 13.2229L11.318 8.34901Z" fill="black" fill-opacity="0.9"/>
</svg>
