<svg width="16" height="16" viewBox="0 0 16 16" fill="none" xmlns="http://www.w3.org/2000/svg">
<path d="M8.47744 7.49999L6.23166 5.25421L6.93877 4.5471L10.0381 7.64644C10.2334 7.8417 10.2334 8.15828 10.0381 8.35355L6.93877 11.4529L6.23166 10.7458L8.47745 8.49999L1 8.49998L1 7.49997L8.47744 7.49999Z" fill="black" fill-opacity="0.9"/>
<path d="M4.00006 5V3H12.0001V13H4.00006V11H3.00006V13.5C3.00006 13.7761 3.22391 14 3.50006 14H12.5001C12.7762 14 13.0001 13.7761 13.0001 13.5V2.5C13.0001 2.22386 12.7762 2 12.5001 2H3.50006C3.22391 2 3.00006 2.22386 3.00006 2.5V5H4.00006Z" fill="black" fill-opacity="0.9"/>
</svg>
