<svg width="16" height="16" viewBox="0 0 16 16" fill="none" xmlns="http://www.w3.org/2000/svg">
<path d="M11.2529 3.95899C11.623 4.34218 11.9247 4.77007 12.149 5.23119C12.4506 5.851 12.6036 6.50829 12.6036 7.18426C12.6036 7.29799 12.5985 7.41147 12.5897 7.52469C12.5862 7.52054 12.5827 7.51635 12.5792 7.51217C12.5706 7.50183 12.562 7.49152 12.5524 7.4818C12.2833 7.21285 11.8727 7.17563 11.5621 7.36575C11.5626 7.35447 11.5632 7.34318 11.5638 7.33189C11.566 7.28814 11.5682 7.24434 11.5682 7.20062C11.5682 6.66956 11.4476 6.15253 11.2098 5.66359C11.0305 5.29534 10.7886 4.95233 10.4908 4.64423C9.72201 3.84912 8.63902 3.33609 7.44127 3.19994C7.22372 3.17521 7.00861 3.16272 6.80201 3.16272C6.6052 3.16272 6.39924 3.17431 6.18993 3.19711C4.98651 3.32785 3.89721 3.83817 3.12244 4.63405C2.82336 4.94138 2.58018 5.28375 2.39959 5.6511C2.15783 6.14326 2.0352 6.66453 2.0352 7.20062C2.0352 7.89127 2.24709 8.57458 2.64767 9.17674C2.81782 9.43268 3.0203 9.67135 3.25099 9.89019C3.33317 9.96812 3.41844 10.0437 3.5077 10.1164C3.56579 10.1638 3.62118 10.2067 3.67669 10.2479C3.78579 10.3272 3.85122 10.4564 3.85122 10.5932C3.85122 10.6427 3.84079 10.6868 3.83036 10.7236C3.80575 10.8178 3.77664 10.929 3.74766 11.0391C3.7385 11.074 3.72936 11.1089 3.7204 11.143C3.70378 11.2063 3.68778 11.2673 3.67347 11.322C3.66198 11.366 3.65166 11.4053 3.64287 11.4387C3.63737 11.4596 3.63247 11.4782 3.62826 11.4943L3.58885 11.6531C3.58885 11.6919 3.61924 11.7235 3.6566 11.7235C3.66793 11.7235 3.68043 11.7187 3.70245 11.7058L3.70361 11.7052L4.76612 11.0789C4.77326 11.0748 4.7804 11.0713 4.78753 11.0678C4.79212 11.0656 4.7967 11.0633 4.80129 11.0609C4.89145 11.0143 4.98058 10.9898 5.07242 10.9898C5.13115 10.9898 5.18873 10.9987 5.24283 11.0161C5.50907 11.0939 5.78458 11.1508 6.06319 11.1879C6.07587 11.1896 6.08855 11.1914 6.10123 11.1931C6.13079 11.1973 6.16036 11.2014 6.18993 11.2046C6.39293 11.2271 6.59876 11.2384 6.80201 11.2384C7.00887 11.2384 7.22385 11.2258 7.44127 11.201C7.79947 11.1603 8.14609 11.0847 8.47789 10.9794C8.44865 11.2853 8.59574 11.5944 8.87989 11.757C8.92755 11.7841 8.97688 11.8059 9.02711 11.8225C8.56277 11.9892 8.07357 12.1064 7.56492 12.1644C7.30641 12.1936 7.04957 12.2085 6.80201 12.2085C6.55908 12.2085 6.31307 12.1952 6.07066 12.1685C5.6979 12.1274 5.34407 12.0621 4.98767 11.9598L3.33162 12.791C3.32536 12.7954 3.31886 12.7991 3.31232 12.8028C3.30931 12.8045 3.30629 12.8062 3.30329 12.808C3.30166 12.8089 3.29994 12.8097 3.29828 12.8105C3.29784 12.8108 3.2974 12.811 3.29697 12.8112C3.23167 12.8487 3.15709 12.8718 3.07646 12.8718C2.84526 12.8718 2.65733 12.6952 2.6344 12.4701C2.6339 12.4647 2.63318 12.4594 2.63247 12.4541C2.63118 12.4445 2.6299 12.435 2.6299 12.4252C2.6299 12.4164 2.63108 12.4078 2.63225 12.3992C2.63298 12.3939 2.6337 12.3887 2.63415 12.3833C2.63443 12.3804 2.63471 12.3774 2.63499 12.3744C2.63643 12.3589 2.63786 12.3435 2.6411 12.3286C2.64507 12.3107 2.65148 12.2939 2.65792 12.277C2.65858 12.2753 2.65925 12.2735 2.65991 12.2718L2.83392 10.9027V10.902C2.44841 10.5601 2.02954 10.0749 1.77334 9.68964C1.2674 8.92905 1 8.06284 1 7.18426C1 6.50198 1.1556 5.83954 1.46215 5.21548C1.68795 4.75565 1.99102 4.32866 2.36301 3.94637C3.30535 2.97827 4.62238 2.3582 6.07156 2.2008C6.32054 2.17363 6.56617 2.15997 6.80201 2.15997C7.04931 2.15997 7.30589 2.17491 7.56492 2.20428C9.00753 2.36825 10.3172 2.99154 11.2529 3.95899Z" fill="black" fill-opacity="0.9"/>
<path d="M11.3472 9.05044C11.0323 8.73538 11.0323 8.22454 11.3472 7.90948C11.6622 7.59443 12.1731 7.59443 12.4881 7.90948C12.5909 8.0124 12.66 8.13605 12.6958 8.26692C12.7034 8.29513 12.7095 8.32359 12.7141 8.35219C12.7183 8.37808 12.7211 8.40422 12.7227 8.4305C12.8158 8.89626 13.0426 9.34051 13.4038 9.70154C13.4222 9.71996 13.4408 9.73787 13.4596 9.75551C13.4691 9.76208 13.4781 9.7693 13.4866 9.7778C13.4914 9.78269 13.4959 9.78771 13.5 9.793C13.5615 9.86873 13.557 9.98015 13.4866 10.0506C13.4111 10.126 13.2892 10.126 13.2137 10.0506C13.1884 10.0232 13.1627 9.99586 13.136 9.96933C12.7667 9.60005 12.3105 9.37116 11.833 9.28216C11.8168 9.28048 11.8006 9.27816 11.7843 9.27546C11.7682 9.27275 11.7521 9.26966 11.7362 9.26593C11.5937 9.23308 11.4582 9.16147 11.3472 9.05044Z" fill="black" fill-opacity="0.9"/>
<path d="M14.7637 10.1909C14.4488 9.87581 13.9378 9.87581 13.6228 10.1909C13.5117 10.3019 13.4401 10.4373 13.4073 10.5799C13.4037 10.5958 13.4004 10.6119 13.3977 10.628C13.3952 10.6443 13.3927 10.6605 13.391 10.6766C13.302 11.1541 13.0731 11.6104 12.7037 11.9797C12.6772 12.0064 12.65 12.0321 12.6226 12.0571L12.6227 12.0574C12.5472 12.1326 12.5472 12.2547 12.6227 12.3301C12.693 12.4005 12.8045 12.405 12.8803 12.3437C12.8853 12.3396 12.8905 12.3349 12.8955 12.3301C12.9039 12.3217 12.9111 12.3127 12.9178 12.3031C12.9353 12.2845 12.9532 12.2658 12.9716 12.2474C13.3327 11.8863 13.7769 11.6594 14.2428 11.5665C14.269 11.5648 14.2951 11.562 14.321 11.5576C14.3497 11.5532 14.3781 11.5469 14.4063 11.5393C14.5373 11.5035 14.6611 11.4345 14.7637 11.3318C15.0788 11.0168 15.0788 10.5059 14.7637 10.1909Z" fill="black" fill-opacity="0.9"/>
<path d="M10.3432 11.4663C10.2726 11.5366 10.2682 11.6481 10.3295 11.7238C10.3336 11.7291 10.3381 11.7341 10.3432 11.7391C10.3515 11.7475 10.3607 11.7547 10.3701 11.7614C10.3889 11.7788 10.4076 11.7971 10.4259 11.8152C10.7869 12.1764 11.0139 12.6207 11.107 13.0864C11.1085 13.1126 11.1114 13.1387 11.1157 13.1647C11.1202 13.1932 11.1263 13.2217 11.1339 13.2499C11.1696 13.3809 11.2387 13.5044 11.3415 13.6073C11.6566 13.9224 12.1674 13.9224 12.4824 13.6073C12.7974 13.2922 12.7974 12.7814 12.4824 12.4663C12.3713 12.3553 12.2358 12.2837 12.0934 12.2509C12.0775 12.2473 12.0614 12.244 12.0453 12.2413C12.0292 12.2386 12.013 12.2364 11.9965 12.2346C11.5192 12.1458 11.0628 11.9167 10.6936 11.5475C10.667 11.5209 10.6411 11.4937 10.6161 11.4662L10.616 11.4663C10.5782 11.4286 10.5289 11.4098 10.4796 11.4098C10.4301 11.4098 10.3808 11.4286 10.3432 11.4663Z" fill="black" fill-opacity="0.9"/>
<path d="M10.4318 10.889C10.4345 10.8726 10.4367 10.8564 10.4385 10.8402C10.5277 10.3629 10.7566 9.90646 11.1257 9.53717C11.1524 9.51064 11.1796 9.48475 11.2071 9.45963L11.207 9.4595C11.2823 9.38415 11.2823 9.26205 11.207 9.18669C11.1365 9.11624 11.025 9.11173 10.9494 9.17317C10.9441 9.17742 10.9391 9.1818 10.9342 9.18669C10.9258 9.1952 10.9185 9.20421 10.9119 9.21361C10.8943 9.23255 10.8763 9.25097 10.8579 9.26952C10.497 9.63043 10.0526 9.85738 9.58675 9.95051C9.56074 9.95205 9.53459 9.95489 9.50844 9.95914C9.47985 9.96365 9.45138 9.96983 9.42343 9.97756C9.29244 10.0132 9.16865 10.0823 9.06587 10.1851C8.75068 10.5001 8.75068 11.011 9.06587 11.3261C9.38092 11.6412 9.89176 11.6412 10.2068 11.3261C10.3178 11.215 10.3896 11.0795 10.4224 10.9372C10.426 10.9212 10.4293 10.9051 10.4318 10.889Z" fill="black" fill-opacity="0.9"/>
</svg>
