<svg width="16" height="16" viewBox="0 0 16 16" fill="none" xmlns="http://www.w3.org/2000/svg">
<path d="M5.50039 14.5V12.6941H4.59414C3.87089 12.6941 3.28457 12.1078 3.28455 11.3846C3.28455 11.1308 3.07878 10.925 2.82496 10.925H2.09473V10.075H2.82496C2.88111 10.075 2.93644 10.0785 2.99073 10.0854C3.02585 10.0898 3.06053 10.0957 3.09473 10.1028C3.51724 10.1913 3.86489 10.4834 4.03033 10.8718C4.09742 11.0293 4.13455 11.2026 4.13455 11.3846C4.13456 11.6063 4.29153 11.7913 4.50039 11.8346C4.53066 11.8409 4.56201 11.8441 4.59414 11.8441H5.50039V11.4628C5.50039 11.3371 5.51221 11.2129 5.53515 11.0915C5.57033 10.9053 5.63168 10.7258 5.71663 10.5583C5.39228 10.4479 5.08476 10.3144 4.79775 10.1606L4.77682 10.1493C4.27921 9.88006 3.84399 9.54951 3.49058 9.17236C2.86084 8.5003 2.49093 7.68026 2.49093 6.79514C2.49093 5.95029 2.82795 5.16473 3.40626 4.51055L3.36157 4.29107C3.16545 3.32799 3.36011 2.32645 3.90269 1.50695C4.88369 1.44681 5.84838 1.779 6.58437 2.43038L6.93558 2.74123C7.27093 2.69292 7.61713 2.66764 7.97116 2.66764C8.36121 2.66764 8.74174 2.69833 9.10872 2.75668L9.47732 2.43045C10.2133 1.77907 11.178 1.44688 12.159 1.50701C12.7016 2.32652 12.8962 3.32806 12.7001 4.29114L12.6324 4.6235C13.1516 5.25433 13.4514 5.99837 13.4514 6.79514C13.4514 8.17549 12.5517 9.39757 11.17 10.1469C10.8833 10.3024 10.5759 10.4375 10.2515 10.5494C10.3621 10.7498 10.4379 10.9685 10.4747 11.1962C10.4917 11.3011 10.5004 11.4079 10.5004 11.5156V14.5H5.50039ZM7.07815 3.73101L6.61969 3.79705L5.92162 3.17922C5.51701 2.82113 5.01772 2.59517 4.48997 2.52415C4.2876 3.01671 4.23364 3.56208 4.34146 4.09153L4.48561 4.79943L4.15547 5.17288C3.71402 5.67224 3.49093 6.22919 3.49093 6.79514C3.49093 7.89333 4.38156 9.04753 6.03885 9.61164L7.12962 9.98291L6.60851 11.0106C6.53829 11.149 6.50039 11.3035 6.50039 11.4628V13.5H9.50039V11.5156C9.50039 11.3448 9.45674 11.179 9.37594 11.0325L8.80183 9.99188L9.9253 9.60416C11.5692 9.03682 12.4514 7.88849 12.4514 6.79514C12.4514 6.26048 12.2527 5.73566 11.8603 5.25899L11.5574 4.89099L11.7202 4.0916C11.828 3.56215 11.7741 3.01677 11.5717 2.52422C11.044 2.59524 10.5447 2.82119 10.1401 3.17929L9.41795 3.8184L8.9517 3.74427C8.63682 3.69421 8.3088 3.66764 7.97116 3.66764C7.6647 3.66764 7.36615 3.68953 7.07815 3.73101Z" fill="black" fill-opacity="0.9"/>
</svg>
