<svg width="16" height="16" viewBox="0 0 16 16" fill="none" xmlns="http://www.w3.org/2000/svg">
<path d="M1 6.5499C1 4.20274 3.26552 2.2998 6.0602 2.2998C8.58473 2.2998 10.6089 3.85258 10.99 5.88305C10.9678 5.88197 10.9496 5.88097 10.9334 5.88009C10.8834 5.87736 10.8529 5.8757 10.7832 5.8757C8.23432 5.8757 6.16822 7.61128 6.16822 9.75192C6.16822 10.113 6.22806 10.462 6.3381 10.7937C6.24606 10.7977 6.15351 10.8002 6.0602 10.8002C5.48273 10.8002 4.92529 10.7171 4.40842 10.5672C4.36138 10.5528 4.31156 10.545 4.25971 10.545C4.16247 10.545 4.07436 10.5748 3.99119 10.6231L2.88316 11.2678C2.85235 11.2858 2.82256 11.2994 2.78579 11.2994C2.69261 11.2994 2.61718 11.2234 2.61718 11.1295C2.61718 11.0977 2.62656 11.0661 2.63575 11.0352C2.63873 11.0251 2.64169 11.0151 2.64431 11.0052C2.64974 10.9847 2.75058 10.6055 2.83294 10.2958L2.87225 10.148C2.88214 10.1117 2.89013 10.0774 2.89013 10.0397C2.89013 9.92523 2.83409 9.82419 2.74839 9.76257C1.68168 8.98352 1 7.83074 1 6.5499ZM3.77516 5.18996C3.77516 5.52287 4.04305 5.79291 4.37368 5.79291C4.70381 5.79291 4.97169 5.52287 4.97169 5.18996C4.97169 4.85691 4.70381 4.587 4.37368 4.587C4.04305 4.587 3.77516 4.85691 3.77516 5.18996ZM7.14872 5.18996C7.14872 5.52287 7.4166 5.79278 7.74698 5.79278C8.07737 5.79278 8.34525 5.52287 8.34525 5.18996C8.34525 4.85691 8.07737 4.587 7.74698 4.587C7.4166 4.587 7.14872 4.85691 7.14872 5.18996Z" fill="black" fill-opacity="0.9"/>
<path d="M15 9.75186C15 10.8191 14.432 11.7797 13.5431 12.429C13.4716 12.4804 13.4249 12.5648 13.4249 12.6599C13.4249 12.6912 13.4316 12.7201 13.4397 12.7502C13.5109 13.017 13.6245 13.4445 13.6298 13.4645C13.632 13.4731 13.6346 13.4818 13.6372 13.4905C13.6447 13.516 13.6525 13.542 13.6525 13.5682C13.6525 13.6463 13.5896 13.7099 13.5119 13.7099C13.4813 13.7099 13.4564 13.6982 13.4305 13.6835L12.5076 13.1462C12.4381 13.1058 12.3645 13.0809 12.2837 13.0809C12.2404 13.0809 12.1988 13.0876 12.1597 13.0997C11.7289 13.2244 11.2642 13.2938 10.7831 13.2938C8.45434 13.2938 6.56624 11.708 6.56624 9.75186C6.56624 7.79568 8.45434 6.2102 10.7831 6.2102C13.1122 6.2102 15 7.79568 15 9.75186ZM8.85103 8.61859C8.85103 8.91158 9.08683 9.14903 9.37754 9.14903C9.66836 9.14903 9.90404 8.91158 9.90404 8.61859C9.90404 8.32548 9.66836 8.0879 9.37754 8.0879C9.08683 8.0879 8.85103 8.32548 8.85103 8.61859ZM11.6626 8.61859C11.6626 8.91158 11.898 9.14903 12.1888 9.14903C12.4797 9.14903 12.7153 8.91158 12.7153 8.61859C12.7153 8.32548 12.4797 8.0879 12.1888 8.0879C11.898 8.0879 11.6626 8.32548 11.6626 8.61859Z" fill="black" fill-opacity="0.9"/>
</svg>
