<svg width="16" height="16" viewBox="0 0 16 16" fill="none" xmlns="http://www.w3.org/2000/svg">
<path d="M8 1C4.13483 1 1 4.21349 1 8.17696C1 11.348 3.0055 14.0381 5.78742 14.9873C6.13683 15.0537 6.25 14.8312 6.25 14.6422V13.3061C4.30283 13.7403 3.89742 12.4592 3.89742 12.4592C3.57892 11.6297 3.11983 11.409 3.11983 11.409C2.48458 10.9634 3.16825 10.973 3.16825 10.973C3.87117 11.0232 4.241 11.7128 4.241 11.7128C4.86517 12.8097 5.87842 12.4927 6.278 12.3091C6.34042 11.8456 6.52183 11.5286 6.7225 11.3498C5.16792 11.1674 3.53342 10.5519 3.53342 7.80256C3.53342 7.01848 3.807 6.37854 4.25442 5.87615C4.18208 5.69493 3.94233 4.96467 4.32267 3.97664C4.32267 3.97664 4.91067 3.78406 6.24825 4.71228C6.8065 4.55319 7.405 4.47365 8 4.47066C8.595 4.47365 9.19408 4.55319 9.7535 4.71228C11.0899 3.78406 11.6768 3.97664 11.6768 3.97664C12.0577 4.96527 11.8179 5.69553 11.7456 5.87615C12.1947 6.37854 12.466 7.01908 12.466 7.80256C12.466 10.5591 10.8286 11.1662 9.26992 11.3438C9.52075 11.5663 9.75 12.0029 9.75 12.6727V14.6422C9.75 14.833 9.862 15.0573 10.2172 14.9867C12.9968 14.0364 15 11.3468 15 8.17696C15 4.21349 11.8658 1 8 1Z" fill="black" fill-opacity="0.9"/>
</svg>
