<svg width="16" height="16" viewBox="0 0 16 16" fill="none" xmlns="http://www.w3.org/2000/svg">
<path d="M4.50019 1.93783C7.84824 0.00483471 12.1294 1.15196 14.0624 4.50001C15.9954 7.84806 14.8482 12.1292 11.5002 14.0622C8.15214 15.9952 3.87101 14.8481 1.93801 11.5C0.00501782 8.15196 1.15214 3.87083 4.50019 1.93783ZM13.4542 5.49839L10.452 5.49837C11.5424 6.56769 11.8338 8.26397 11.078 9.66049L11.0792 9.66116L8.59007 13.9724C9.41475 13.8915 10.2358 13.6375 11.0002 13.1962C13.7062 11.6338 14.7349 8.28186 13.4542 5.49839ZM7.43459 13.9738L8.93933 11.3675C8.81644 11.4017 8.6917 11.4293 8.56571 11.4501C8.31959 11.4917 8.07155 11.5064 7.8258 11.4953C6.5146 11.4407 5.38974 10.6647 4.83771 9.55389L2.52418 5.54674C1.76575 7.24342 1.80376 9.26747 2.80404 11C3.81294 12.7475 5.56813 13.7954 7.43459 13.9738ZM5.00019 2.80386C4.22219 3.25304 3.58283 3.85015 3.09715 4.53915L4.58571 7.11742C4.94941 5.71465 6.16124 4.65352 7.64124 4.51397L7.68118 4.51033C7.83386 4.49628 7.98779 4.4922 8.14195 4.49837L12.873 4.49839C11.0969 2.0206 7.69573 1.24759 5.00019 2.80386ZM7.97256 5.49837C7.91118 5.4984 7.85031 5.50065 7.79004 5.50503L7.75173 5.50823C6.97838 5.58575 6.25223 6.02168 5.83395 6.74616C5.14359 7.94189 5.55328 9.47087 6.74901 10.1612C7.20527 10.4246 7.71005 10.5279 8.19824 10.4884C9.47385 10.375 10.4739 9.30347 10.4739 7.99837C10.4739 6.61811 9.35535 5.4991 7.97526 5.49837H7.97256Z" fill="black" fill-opacity="0.9"/>
</svg>
