<svg width="16" height="16" viewBox="0 0 16 16" fill="none" xmlns="http://www.w3.org/2000/svg">
<path d="M1.53218 5.5873C1.36714 5.70019 1.29592 5.88732 1.31854 6.06428L1.31854 9.93573C1.29592 10.1127 1.36714 10.2998 1.53218 10.4127L7.71758 14.6433C7.88776 14.7597 8.11195 14.7597 8.28213 14.6433L14.4675 10.4127C14.6286 10.3026 14.7003 10.1217 14.6826 9.94852V6.05151C14.7003 5.87837 14.6286 5.69748 14.4675 5.58731L8.28212 1.35671C8.11194 1.24031 7.88776 1.24031 7.71757 1.35671L1.53218 5.5873ZM2.43442 6.00001L7.57485 2.48413V5.45433L4.60573 7.48511L2.43442 6.00001ZM8.42485 5.45433V2.48413L13.5653 6.00001L11.394 7.48511L8.42485 5.45433ZM3.85291 8.00001L2.16854 9.15206V6.84796L3.85291 8.00001ZM13.8326 6.84696V9.15307L12.1468 8.00001L13.8326 6.84696ZM11.394 8.51492L13.5653 10L8.42485 13.5159V10.5457L11.394 8.51492ZM7.57485 10.5457V13.5159L2.43442 10L4.60573 8.51491L7.57485 10.5457ZM10.6412 8.00001L7.99985 9.80657L5.35855 8.00001L7.99985 6.19345L10.6412 8.00001Z" fill="black" fill-opacity="0.9"/>
</svg>
