<svg width="16" height="16" viewBox="0 0 16 16" fill="none" xmlns="http://www.w3.org/2000/svg">
<path d="M11.2529 3.95917C11.623 4.34237 11.9247 4.77026 12.149 5.23138C12.4506 5.85118 12.6036 6.50848 12.6036 7.18444C12.6036 7.29818 12.5985 7.41165 12.5897 7.52487C12.5862 7.52072 12.5827 7.51653 12.5792 7.51235C12.5706 7.50201 12.562 7.4917 12.5524 7.48198C12.2833 7.21304 11.8727 7.17581 11.5621 7.36593C11.5626 7.35465 11.5632 7.34336 11.5638 7.33207C11.566 7.28832 11.5682 7.24452 11.5682 7.2008C11.5682 6.66974 11.4476 6.15272 11.2098 5.66377C11.0305 5.29552 10.7886 4.95251 10.4908 4.64441C9.72201 3.8493 8.63902 3.33627 7.44127 3.20013C7.22372 3.1754 7.00861 3.1629 6.80201 3.1629C6.6052 3.1629 6.39924 3.17449 6.18993 3.19729C4.98651 3.32803 3.89721 3.83835 3.12244 4.63424C2.82336 4.94157 2.58018 5.28393 2.39959 5.65128C2.15783 6.14344 2.0352 6.66472 2.0352 7.2008C2.0352 7.89145 2.24709 8.57476 2.64767 9.17692C2.81782 9.43286 3.0203 9.67153 3.25099 9.89037C3.33317 9.9683 3.41844 10.0439 3.5077 10.1166C3.56579 10.164 3.62118 10.2068 3.67669 10.2481C3.78579 10.3274 3.85122 10.4566 3.85122 10.5934C3.85122 10.6429 3.84079 10.687 3.83036 10.7237C3.80575 10.818 3.77664 10.9292 3.74766 11.0393C3.7385 11.0742 3.72936 11.1091 3.7204 11.1432C3.70378 11.2065 3.68778 11.2674 3.67347 11.3222C3.66198 11.3662 3.65166 11.4055 3.64287 11.4389C3.63737 11.4598 3.63247 11.4784 3.62826 11.4945L3.58885 11.6533C3.58885 11.6921 3.61924 11.7237 3.6566 11.7237C3.66793 11.7237 3.68043 11.7189 3.70245 11.706L3.70361 11.7054L4.76612 11.0791C4.77326 11.075 4.7804 11.0715 4.78753 11.068C4.79212 11.0657 4.7967 11.0635 4.80129 11.0611C4.89145 11.0145 4.98058 10.99 5.07242 10.99C5.13115 10.99 5.18873 10.9989 5.24283 11.0163C5.50907 11.0941 5.78458 11.151 6.06319 11.1881C6.07587 11.1898 6.08855 11.1916 6.10123 11.1933C6.13079 11.1975 6.16036 11.2016 6.18993 11.2048C6.39293 11.2272 6.59876 11.2386 6.80201 11.2386C7.00887 11.2386 7.22385 11.2259 7.44127 11.2012C7.79947 11.1605 8.14609 11.0849 8.47789 10.9795C8.44865 11.2855 8.59574 11.5946 8.87989 11.7571C8.92755 11.7843 8.97688 11.8061 9.02711 11.8227C8.56277 11.9894 8.07357 12.1066 7.56492 12.1645C7.30641 12.1938 7.04957 12.2087 6.80201 12.2087C6.55908 12.2087 6.31307 12.1953 6.07066 12.1687C5.6979 12.1276 5.34407 12.0623 4.98767 11.96L3.33162 12.7912C3.32536 12.7956 3.31886 12.7993 3.31232 12.803C3.30931 12.8047 3.30629 12.8064 3.30329 12.8082C3.30166 12.8091 3.29994 12.8099 3.29828 12.8107C3.29784 12.8109 3.2974 12.8112 3.29698 12.8114C3.23167 12.8489 3.15709 12.8719 3.07646 12.8719C2.84526 12.8719 2.65733 12.6954 2.6344 12.4703C2.6339 12.4649 2.63318 12.4596 2.63247 12.4543C2.63118 12.4447 2.6299 12.4352 2.6299 12.4254C2.6299 12.4165 2.63107 12.408 2.63225 12.3994C2.63298 12.3941 2.6337 12.3888 2.63415 12.3835C2.63443 12.3805 2.63471 12.3776 2.63499 12.3746C2.63643 12.3591 2.63786 12.3437 2.6411 12.3288C2.64507 12.3109 2.65148 12.2941 2.65792 12.2772C2.65858 12.2755 2.65925 12.2737 2.65991 12.272L2.83392 10.9029V10.9021C2.44841 10.5603 2.02954 10.0751 1.77334 9.68982C1.2674 8.92923 1 8.06302 1 7.18444C1 6.50216 1.1556 5.83972 1.46215 5.21566C1.68795 4.75583 1.99102 4.32884 2.36301 3.94655C3.30535 2.97845 4.62238 2.35839 6.07156 2.20099C6.32054 2.17381 6.56617 2.16016 6.80201 2.16016C7.04931 2.16016 7.30589 2.1751 7.56492 2.20447C9.00753 2.36843 10.3172 2.99172 11.2529 3.95917Z" fill="black" fill-opacity="0.9"/>
<path d="M11.3472 9.05062C11.0323 8.73556 11.0323 8.22472 11.3472 7.90967C11.6622 7.59461 12.1731 7.59461 12.4881 7.90967C12.5909 8.01258 12.66 8.13623 12.6958 8.2671C12.7034 8.29531 12.7095 8.32377 12.7141 8.35237C12.7183 8.37826 12.7211 8.40441 12.7227 8.43068C12.8158 8.89644 13.0426 9.34069 13.4038 9.70173C13.4222 9.72015 13.4408 9.73805 13.4596 9.7557C13.4691 9.76227 13.4781 9.76948 13.4866 9.77798C13.4914 9.78287 13.4959 9.7879 13.5 9.79318C13.5615 9.86892 13.557 9.98033 13.4866 10.0508C13.4111 10.1261 13.2892 10.1261 13.2137 10.0508C13.1884 10.0234 13.1627 9.99605 13.136 9.96951C12.7667 9.60023 12.3105 9.37134 11.833 9.28234C11.8168 9.28066 11.8006 9.27835 11.7843 9.27564C11.7682 9.27294 11.7521 9.26985 11.7362 9.26611C11.5937 9.23326 11.4582 9.16165 11.3472 9.05062Z" fill="black" fill-opacity="0.9"/>
<path d="M14.7637 10.191C14.4488 9.87599 13.9378 9.87599 13.6228 10.191C13.5117 10.3021 13.4401 10.4374 13.4073 10.58C13.4037 10.596 13.4004 10.6121 13.3977 10.6282C13.3952 10.6444 13.3927 10.6607 13.391 10.6768C13.302 11.1542 13.0731 11.6106 12.7037 11.9799C12.6772 12.0065 12.65 12.0323 12.6226 12.0573L12.6227 12.0576C12.5472 12.1328 12.5472 12.2549 12.6227 12.3302C12.693 12.4007 12.8045 12.4052 12.8803 12.3439C12.8853 12.3398 12.8905 12.3351 12.8955 12.3302C12.9039 12.3219 12.9111 12.3128 12.9178 12.3033C12.9353 12.2846 12.9532 12.266 12.9716 12.2475C13.3327 11.8865 13.7769 11.6595 14.2428 11.5667C14.269 11.565 14.2951 11.5622 14.321 11.5578C14.3497 11.5534 14.3781 11.5471 14.4063 11.5395C14.5373 11.5037 14.6611 11.4347 14.7637 11.332C15.0788 11.0169 15.0788 10.5061 14.7637 10.191Z" fill="black" fill-opacity="0.9"/>
<path d="M10.3432 11.4665C10.2726 11.5368 10.2682 11.6482 10.3295 11.724C10.3336 11.7293 10.3381 11.7343 10.3432 11.7393C10.3515 11.7477 10.3607 11.7549 10.3701 11.7616C10.3889 11.779 10.4076 11.7973 10.4259 11.8154C10.7869 12.1766 11.0139 12.6208 11.107 13.0866C11.1085 13.1127 11.1114 13.1389 11.1157 13.1649C11.1202 13.1934 11.1263 13.2218 11.1339 13.2501C11.1696 13.381 11.2387 13.5046 11.3415 13.6075C11.6566 13.9225 12.1674 13.9225 12.4824 13.6075C12.7974 13.2924 12.7974 12.7816 12.4824 12.4665C12.3713 12.3555 12.2358 12.2839 12.0934 12.251C12.0775 12.2474 12.0614 12.2442 12.0453 12.2415C12.0292 12.2388 12.013 12.2366 11.9965 12.2348C11.5192 12.1459 11.0628 11.9169 10.6936 11.5476C10.667 11.5211 10.6411 11.4939 10.6161 11.4664L10.616 11.4665C10.5782 11.4288 10.5289 11.4099 10.4796 11.4099C10.4301 11.4099 10.3808 11.4288 10.3432 11.4665Z" fill="black" fill-opacity="0.9"/>
<path d="M10.4318 10.8892C10.4345 10.8728 10.4367 10.8566 10.4385 10.8403C10.5277 10.3631 10.7566 9.90664 11.1257 9.53736C11.1524 9.51082 11.1796 9.48493 11.2071 9.45982L11.207 9.45969C11.2823 9.38434 11.2823 9.26223 11.207 9.18688C11.1365 9.11642 11.025 9.11191 10.9494 9.17335C10.9441 9.1776 10.9391 9.18198 10.9342 9.18688C10.9258 9.19538 10.9185 9.2044 10.9119 9.2138C10.8943 9.23273 10.8763 9.25115 10.8579 9.2697C10.497 9.63061 10.0526 9.85756 9.58675 9.95069C9.56074 9.95224 9.53459 9.95507 9.50844 9.95932C9.47985 9.96383 9.45138 9.97001 9.42343 9.97774C9.29244 10.0134 9.16865 10.0825 9.06587 10.1852C8.75068 10.5003 8.75068 11.0111 9.06587 11.3263C9.38092 11.6414 9.89176 11.6414 10.2068 11.3263C10.3178 11.2152 10.3896 11.0797 10.4224 10.9373C10.426 10.9214 10.4293 10.9053 10.4318 10.8892Z" fill="black" fill-opacity="0.9"/>
</svg>
