<svg width="16" height="16" viewBox="0 0 16 16" fill="none" xmlns="http://www.w3.org/2000/svg">
<path d="M4.50019 1.93801C7.84824 0.00501782 12.1294 1.15214 14.0624 4.50019C15.9954 7.84824 14.8482 12.1294 11.5002 14.0624C8.15214 15.9954 3.87101 14.8482 1.93801 11.5002C0.00501782 8.15214 1.15214 3.87101 4.50019 1.93801ZM13.4542 5.49858L10.452 5.49855C11.5424 6.56788 11.8338 8.26416 11.078 9.66067L11.0792 9.66135L8.59007 13.9726C9.41475 13.8916 10.2358 13.6376 11.0002 13.1963C13.7062 11.634 14.7349 8.28204 13.4542 5.49858ZM7.43459 13.974L8.93933 11.3677C8.81644 11.4019 8.6917 11.4295 8.56571 11.4503C8.31959 11.4919 8.07155 11.5066 7.8258 11.4955C6.5146 11.4409 5.38974 10.6649 4.83771 9.55407L2.52418 5.54692C1.76575 7.2436 1.80376 9.26765 2.80404 11.0002C3.81294 12.7477 5.56813 13.7956 7.43459 13.974ZM5.00019 2.80404C4.22219 3.25322 3.58283 3.85034 3.09715 4.53934L4.58571 7.1176C4.94941 5.71483 6.16124 4.6537 7.64124 4.51416L7.68118 4.51052C7.83386 4.49646 7.98779 4.49238 8.14195 4.49855L12.873 4.49857C11.0969 2.02079 7.69573 1.24777 5.00019 2.80404ZM7.97256 5.49855C7.91118 5.49858 7.85031 5.50083 7.79004 5.50521L7.75173 5.50842C6.97838 5.58593 6.25223 6.02186 5.83395 6.74634C5.14359 7.94208 5.55328 9.47105 6.74901 10.1614C7.20527 10.4248 7.71005 10.5281 8.19824 10.4886C9.47385 10.3752 10.4739 9.30366 10.4739 7.99855C10.4739 6.61829 9.35535 5.49928 7.97526 5.49855H7.97256Z" fill="black" fill-opacity="0.9"/>
</svg>
