<svg width="16" height="16" viewBox="0 0 16 16" fill="none" xmlns="http://www.w3.org/2000/svg">
<path fill-rule="evenodd" clip-rule="evenodd" d="M1 6.55008C1 4.20292 3.26552 2.29999 6.0602 2.29999C8.58473 2.29999 10.6089 3.85276 10.99 5.88323C10.9678 5.88215 10.9496 5.88116 10.9334 5.88027C10.8834 5.87754 10.8529 5.87588 10.7832 5.87588C8.23432 5.87588 6.16822 7.61147 6.16822 9.75211C6.16822 10.1132 6.22806 10.4622 6.3381 10.7938C6.24606 10.7979 6.15351 10.8004 6.0602 10.8004C5.48273 10.8004 4.92529 10.7173 4.40842 10.5674C4.36138 10.553 4.31156 10.5452 4.25971 10.5452C4.16247 10.5452 4.07436 10.575 3.99119 10.6233L2.88316 11.268C2.85235 11.286 2.82256 11.2996 2.78579 11.2996C2.69261 11.2996 2.61718 11.2236 2.61718 11.1297C2.61718 11.0979 2.62656 11.0663 2.63575 11.0354C2.63873 11.0253 2.64169 11.0153 2.64431 11.0054C2.64974 10.9849 2.75058 10.6057 2.83294 10.296L2.87225 10.1482C2.88214 10.1119 2.89013 10.0775 2.89013 10.0399C2.89013 9.92541 2.83409 9.82437 2.74839 9.76276C1.68168 8.98371 1 7.83092 1 6.55008ZM3.77516 5.19014C3.77516 5.52306 4.04305 5.79309 4.37368 5.79309C4.70381 5.79309 4.97169 5.52306 4.97169 5.19014C4.97169 4.85709 4.70381 4.58718 4.37368 4.58718C4.04305 4.58718 3.77516 4.85709 3.77516 5.19014ZM7.14872 5.19014C7.14872 5.52306 7.4166 5.79297 7.74698 5.79297C8.07736 5.79297 8.34525 5.52306 8.34525 5.19014C8.34525 4.85709 8.07736 4.58718 7.74698 4.58718C7.4166 4.58718 7.14872 4.85709 7.14872 5.19014Z" fill="black" fill-opacity="0.9"/>
<path fill-rule="evenodd" clip-rule="evenodd" d="M15 9.75204C15 10.8193 14.432 11.7799 13.5431 12.4292C13.4716 12.4806 13.4249 12.565 13.4249 12.6601C13.4249 12.6914 13.4316 12.7203 13.4397 12.7503C13.5109 13.0172 13.6245 13.4447 13.6298 13.4647C13.632 13.4733 13.6346 13.482 13.6372 13.4907C13.6447 13.5162 13.6525 13.5422 13.6525 13.5684C13.6525 13.6465 13.5896 13.71 13.5119 13.71C13.4813 13.71 13.4564 13.6984 13.4305 13.6837L12.5076 13.1464C12.4381 13.1059 12.3645 13.0811 12.2837 13.0811C12.2404 13.0811 12.1988 13.0878 12.1597 13.0999C11.7289 13.2246 11.2642 13.294 10.7831 13.294C8.45434 13.294 6.56624 11.7082 6.56624 9.75204C6.56624 7.79586 8.45434 6.21038 10.7831 6.21038C13.1122 6.21038 15 7.79586 15 9.75204ZM8.85103 8.61878C8.85103 8.91176 9.08683 9.14921 9.37754 9.14921C9.66836 9.14921 9.90404 8.91176 9.90404 8.61878C9.90404 8.32567 9.66836 8.08808 9.37754 8.08808C9.08683 8.08808 8.85103 8.32567 8.85103 8.61878ZM11.6626 8.61878C11.6626 8.91176 11.898 9.14921 12.1888 9.14921C12.4797 9.14921 12.7153 8.91176 12.7153 8.61878C12.7153 8.32567 12.4797 8.08808 12.1888 8.08808C11.898 8.08808 11.6626 8.32567 11.6626 8.61878Z" fill="black" fill-opacity="0.9"/>
</svg>
