<svg width="16" height="16" viewBox="0 0 16 16" fill="none" xmlns="http://www.w3.org/2000/svg">
<path d="M8.29006 4.00804C8.39216 4.00804 8.49363 4.00196 8.59399 3.99C9.16299 3.92218 9.69626 3.66534 10.1056 3.25603C10.5149 2.84672 10.7717 2.31345 10.8395 1.74445C10.8515 1.64409 10.8576 1.54262 10.8576 1.44052V1H10.4171C10.315 1 10.2135 1.00608 10.1131 1.01804C9.54414 1.08586 9.01086 1.3427 8.60155 1.75201C8.19224 2.16132 7.9354 2.69459 7.86759 3.26359C7.85565 3.36373 7.84957 3.46497 7.84954 3.56684V4.00804H8.29006ZM9.57917 2.72962C9.3173 2.99149 8.98397 3.16546 8.62502 3.23256C8.69212 2.87361 8.8661 2.54028 9.12796 2.27842C9.38982 2.01655 9.72315 1.84258 10.0821 1.77548C10.015 2.13443 9.84103 2.46776 9.57917 2.72962Z" fill="black" fill-opacity="0.9"/>
<path d="M12.6931 5.08954C12.9171 5.26573 13.133 5.48579 13.3255 5.76088C13.3038 5.77264 13.1447 5.86243 12.9359 6.03364C12.4712 6.41459 11.7606 7.19865 11.7714 8.42318C11.7947 10.547 13.6752 11.2524 13.6985 11.26C13.6952 11.2714 13.6793 11.3244 13.6496 11.4103C13.5986 11.5579 13.5068 11.8027 13.3675 12.1011C13.2101 12.4383 12.9921 12.8439 12.7039 13.2548C12.1055 14.1119 11.4839 14.9614 10.5047 14.9765C10.0319 14.9877 9.71618 14.8546 9.38781 14.7161C9.04705 14.5723 8.69261 14.4228 8.13464 14.4228C7.54173 14.4228 7.16869 14.5783 6.80938 14.7281C6.49998 14.857 6.20075 14.9817 5.78009 14.9993C4.83205 15.0296 4.11714 14.0739 3.51102 13.2244C2.27546 11.4799 1.33519 8.30941 2.60183 6.16288C3.23127 5.09341 4.35026 4.41836 5.57028 4.40319C6.09584 4.39025 6.60635 4.58803 7.05329 4.76118C7.39273 4.89268 7.69551 5.00998 7.94037 5.00998C8.15548 5.00998 8.43608 4.90234 8.76801 4.77501C9.29941 4.57115 9.96241 4.31682 10.699 4.37285C11.0542 4.39635 11.9224 4.48359 12.6931 5.08954ZM10.6393 5.27485L10.6304 5.27426C10.2284 5.24369 9.82647 5.34827 9.38919 5.507C9.32293 5.53106 9.22662 5.56773 9.12493 5.60646C8.98504 5.65974 8.83454 5.71706 8.73726 5.75104C8.53876 5.82038 8.24562 5.91396 7.94037 5.91396C7.64946 5.91396 7.37621 5.83645 7.1757 5.76982C7.02455 5.71959 6.85603 5.65429 6.70724 5.59663C6.65817 5.57762 6.61125 5.55943 6.5678 5.5429C6.16487 5.38953 5.86112 5.30028 5.59251 5.30689L5.58152 5.30709C4.6936 5.31813 3.85761 5.81141 3.38037 6.62229C2.89586 7.44337 2.79895 8.5289 3.00766 9.68362C3.21513 10.8314 3.70666 11.9362 4.24784 12.7007C4.55663 13.1335 4.83541 13.5075 5.1276 13.7749C5.41383 14.0368 5.60819 14.0992 5.74752 14.0959C6.00039 14.0845 6.16227 14.0175 6.49116 13.8813L6.53909 13.8615C6.91849 13.7046 7.40861 13.5189 8.13464 13.5189C8.87008 13.5189 9.35948 13.7231 9.72037 13.8752C10.0534 14.0156 10.2133 14.0792 10.4834 14.0728L10.4907 14.0727C10.6923 14.0695 10.8904 13.9891 11.1381 13.7633C11.4046 13.5204 11.6555 13.1772 11.9626 12.7373L11.9638 12.7357C12.2313 12.3543 12.4318 11.9746 12.5733 11.6646C12.4273 11.5619 12.273 11.4401 12.1192 11.297C11.5041 10.7248 10.8824 9.79485 10.8674 8.43311L10.8674 8.4311C10.8572 7.26653 11.3496 6.40488 11.8343 5.84749C11.8825 5.79208 11.9308 5.73937 11.9789 5.68934C11.4696 5.35557 10.9236 5.29366 10.6393 5.27485Z" fill="black" fill-opacity="0.9"/>
</svg>
