<svg width="16" height="16" viewBox="0 0 16 16" fill="none" xmlns="http://www.w3.org/2000/svg">
<path d="M5.31701 8.37857C5.31701 8.00808 5.61735 7.70773 5.98784 7.70773C6.35833 7.70773 6.65868 8.00808 6.65868 8.37857C6.65868 8.74906 6.35833 9.0494 5.98784 9.0494C5.61735 9.0494 5.31701 8.74906 5.31701 8.37857Z" fill="black" fill-opacity="0.9"/>
<path d="M10.0129 7.70773C9.64236 7.70773 9.34202 8.00808 9.34202 8.37857C9.34202 8.74906 9.64236 9.0494 10.0129 9.0494C10.3833 9.0494 10.6837 8.74906 10.6837 8.37857C10.6837 8.00808 10.3833 7.70773 10.0129 7.70773Z" fill="black" fill-opacity="0.9"/>
<path d="M2.31638 4L3.9958 5.67942C5.11346 4.84654 6.49933 4.35355 8.00035 4.35355C9.50137 4.35355 10.8872 4.84654 12.0049 5.67942L13.6843 4L14.3914 4.70711L12.762 6.33656C13.8933 7.47647 14.618 9.02038 14.7008 10.7327C14.706 10.8418 14.7087 10.9515 14.7087 11.0619V11.7327H1.29199V11.0619C1.29199 10.9515 1.29466 10.8418 1.29993 10.7327C1.38266 9.02038 2.10744 7.47647 3.23872 6.33656L1.60927 4.70711L2.31638 4ZM2.30132 10.7327H13.6994C13.5288 7.73328 11.0425 5.35355 8.00035 5.35355C4.95819 5.35355 2.47185 7.73328 2.30132 10.7327Z" fill="black" fill-opacity="0.9"/>
</svg>
