<svg width="16" height="16" viewBox="0 0 16 16" fill="none" xmlns="http://www.w3.org/2000/svg">
<path d="M11.5662 9.0391H14.9633C14.9895 8.81289 15 8.58172 15 8.34541C15 7.23681 14.69 6.19698 14.1491 5.30153C14.7086 3.8739 14.6887 2.66224 13.9396 1.93809C13.2273 1.25711 11.3162 1.36766 9.15576 2.28633C8.99595 2.27472 8.8346 2.26875 8.67172 2.26875C5.70638 2.26875 3.21841 4.22822 2.53076 6.86845C3.46096 5.72486 4.43959 4.89573 5.74691 4.29191C5.62804 4.39887 4.93446 5.06098 4.8178 5.17308C1.37033 8.48243 0.283168 12.8054 1.45294 13.9289C2.34213 14.7826 3.95356 14.6384 5.80456 13.7679C6.66526 14.1888 7.63947 14.4262 8.67162 14.4262C11.451 14.4262 13.8065 12.7082 14.6598 10.3157H11.2365C10.7654 11.1501 9.8442 11.718 8.78689 11.718C7.72958 11.718 6.80825 11.1501 6.33721 10.3157C6.12782 9.93872 6.00744 9.50652 6.00744 9.04905V9.0391H11.5662ZM6.01254 7.43574C6.09106 6.09377 7.25309 5.02314 8.67162 5.02314C10.0901 5.02314 11.2522 6.09374 11.3307 7.43574H6.01254ZM13.9086 2.61293C14.3911 3.08112 14.3791 3.9425 13.9664 5.01774C13.2593 3.98258 12.2319 3.16688 11.0191 2.70112C12.3159 2.16718 13.3708 2.09645 13.9086 2.61293ZM2.34533 13.7158C1.72963 13.1245 1.91523 11.8832 2.7084 10.3878C3.20214 11.7182 4.16419 12.835 5.40444 13.5545C4.03109 14.1531 2.907 14.2547 2.34533 13.7158Z" fill="black" fill-opacity="0.9"/>
</svg>
