<svg width="16" height="16" viewBox="0 0 16 16" fill="none" xmlns="http://www.w3.org/2000/svg">
<path d="M14.0005 12.0138L2.00115 12L2 13L13.9994 13.0138L14.0005 12.0138Z" fill="black" fill-opacity="0.9"/>
<path d="M8.49997 7.5L2.00058 7.5L2.00058 8.5L8.49997 8.5V7.5Z" fill="black" fill-opacity="0.9"/>
<path d="M14.0005 3.0138L2.00115 3L2 4L13.9994 4.0138L14.0005 3.0138Z" fill="black" fill-opacity="0.9"/>
<path d="M10.0333 8.40693C9.76663 8.20693 9.76663 7.80693 10.0333 7.60693L13.2 5.23193C13.5296 4.98472 14 5.21991 14 5.63193L14 10.3819C14 10.794 13.5296 11.0291 13.2 10.7819L10.0333 8.40693ZM13 9.38193L13 6.63193L11.1666 8.00693L13 9.38193Z" fill="black" fill-opacity="0.9"/>
</svg>
