<svg width="16" height="16" viewBox="0 0 16 16" fill="none" xmlns="http://www.w3.org/2000/svg">
<path d="M4 3C4 3.55231 3.55231 4 3 4C2.44769 4 2 3.55231 2 3C2 2.44769 2.44769 2 3 2C3.55231 2 4 2.44769 4 3Z" fill="black" fill-opacity="0.9"/>
<path d="M4 8C4 8.55231 3.55231 9 3 9C2.44769 9 2 8.55231 2 8C2 7.44769 2.44769 7 3 7C3.55231 7 4 7.44769 4 8Z" fill="black" fill-opacity="0.9"/>
<path d="M3 14C3.55231 14 4 13.5523 4 13C4 12.4477 3.55231 12 3 12C2.44769 12 2 12.4477 2 13C2 13.5523 2.44769 14 3 14Z" fill="black" fill-opacity="0.9"/>
<path d="M9 3C9 3.55231 8.55231 4 8 4C7.44769 4 7 3.55231 7 3C7 2.44769 7.44769 2 8 2C8.55231 2 9 2.44769 9 3Z" fill="black" fill-opacity="0.9"/>
<path d="M8 9C8.55231 9 9 8.55231 9 8C9 7.44769 8.55231 7 8 7C7.44769 7 7 7.44769 7 8C7 8.55231 7.44769 9 8 9Z" fill="black" fill-opacity="0.9"/>
<path d="M9 13C9 13.5523 8.55231 14 8 14C7.44769 14 7 13.5523 7 13C7 12.4477 7.44769 12 8 12C8.55231 12 9 12.4477 9 13Z" fill="black" fill-opacity="0.9"/>
<path d="M13 4C13.5523 4 14 3.55231 14 3C14 2.44769 13.5523 2 13 2C12.4477 2 12 2.44769 12 3C12 3.55231 12.4477 4 13 4Z" fill="black" fill-opacity="0.9"/>
<path d="M14 8C14 8.55231 13.5523 9 13 9C12.4477 9 12 8.55231 12 8C12 7.44769 12.4477 7 13 7C13.5523 7 14 7.44769 14 8Z" fill="black" fill-opacity="0.9"/>
<path d="M13 14C13.5523 14 14 13.5523 14 13C14 12.4477 13.5523 12 13 12C12.4477 12 12 12.4477 12 13C12 13.5523 12.4477 14 13 14Z" fill="black" fill-opacity="0.9"/>
</svg>
