<svg width="16" height="16" viewBox="0 0 16 16" fill="none" xmlns="http://www.w3.org/2000/svg">
<path d="M7.5 1H8.5V15H7.5V1Z" fill="black" fill-opacity="0.9"/>
<path d="M14.7193 12.4367C14.7501 12.6777 14.6031 12.906 14.3709 12.9777C14.2988 13 14.196 13 13.9904 13H10.6499C10.5104 13 10.4407 13 10.3831 12.9862C10.2003 12.9423 10.0576 12.7995 10.0137 12.6167C9.99986 12.5592 9.99986 12.4895 9.99986 12.35V5.0008C9.99986 4.47031 9.99986 4.20506 10.0408 4.11027C10.1766 3.79537 10.5819 3.70757 10.8359 3.93804C10.9123 4.00742 11.0221 4.24889 11.2416 4.73183L14.5821 12.081C14.6672 12.2682 14.7098 12.3618 14.7193 12.4367ZM10.9999 12H13.4469L10.9999 6.61661V12Z" fill="black" fill-opacity="0.9"/>
<path d="M1.62882 12.9777C1.70093 13 1.80374 13 2.00935 13H5.3499C5.48935 13 5.55908 13 5.61662 12.9862C5.79944 12.9423 5.94219 12.7995 5.98608 12.6167C5.9999 12.5592 5.9999 12.4895 5.9999 12.35V5.0008C5.9999 4.47031 5.9999 4.20506 5.95901 4.11027C5.82317 3.79537 5.41786 3.70757 5.16389 3.93804C5.08744 4.00742 4.97768 4.24889 4.75816 4.73183L1.41761 12.081C1.33253 12.2682 1.28999 12.3618 1.28043 12.4367C1.24964 12.6777 1.39664 12.906 1.62882 12.9777ZM4.9999 6.61661V12H2.5529L4.9999 6.61661Z" fill="black" fill-opacity="0.9"/>
</svg>
