<svg width="16" height="16" viewBox="0 0 16 16" fill="none" xmlns="http://www.w3.org/2000/svg">
<path d="M8 4C8.55225 4 9 3.55228 9 3C9 2.44772 8.55225 2 8 2C7.44775 2 7 2.44772 7 3C7 3.55228 7.44775 4 8 4Z" fill="black" fill-opacity="0.9"/>
<path d="M8 9C8.55225 9 9 8.55228 9 8C9 7.44772 8.55225 7 8 7C7.44775 7 7 7.44772 7 8C7 8.55228 7.44775 9 8 9Z" fill="black" fill-opacity="0.9"/>
<path d="M9 13C9 13.5523 8.55225 14 8 14C7.44775 14 7 13.5523 7 13C7 12.4477 7.44775 12 8 12C8.55225 12 9 12.4477 9 13Z" fill="black" fill-opacity="0.9"/>
</svg>
