<svg width="16" height="16" viewBox="0 0 16 16" fill="none" xmlns="http://www.w3.org/2000/svg">
<path d="M5 1C4.44772 1 4 1.44772 4 2C4 2.55228 4.44772 3 5 3C5.55228 3 6 2.55228 6 2C6 1.44772 5.55228 1 5 1Z" fill="black" fill-opacity="0.9"/>
<path d="M11 1C10.4477 1 10 1.44772 10 2C10 2.55228 10.4477 3 11 3C11.5523 3 12 2.55228 12 2C12 1.44772 11.5523 1 11 1Z" fill="black" fill-opacity="0.9"/>
<path d="M4 6C4 5.44772 4.44772 5 5 5C5.55228 5 6 5.44772 6 6C6 6.55228 5.55228 7 5 7C4.44772 7 4 6.55228 4 6Z" fill="black" fill-opacity="0.9"/>
<path d="M11 5C10.4477 5 10 5.44772 10 6C10 6.55228 10.4477 7 11 7C11.5523 7 12 6.55228 12 6C12 5.44772 11.5523 5 11 5Z" fill="black" fill-opacity="0.9"/>
<path d="M4 10C4 9.44771 4.44772 9 5 9C5.55228 9 6 9.44771 6 10C6 10.5523 5.55228 11 5 11C4.44772 11 4 10.5523 4 10Z" fill="black" fill-opacity="0.9"/>
<path d="M5 13C4.44772 13 4 13.4477 4 14C4 14.5523 4.44772 15 5 15C5.55228 15 6 14.5523 6 14C6 13.4477 5.55228 13 5 13Z" fill="black" fill-opacity="0.9"/>
<path d="M10 10C10 9.44771 10.4477 9 11 9C11.5523 9 12 9.44771 12 10C12 10.5523 11.5523 11 11 11C10.4477 11 10 10.5523 10 10Z" fill="black" fill-opacity="0.9"/>
<path d="M11 13C10.4477 13 10 13.4477 10 14C10 14.5523 10.4477 15 11 15C11.5523 15 12 14.5523 12 14C12 13.4477 11.5523 13 11 13Z" fill="black" fill-opacity="0.9"/>
</svg>
