<svg width="16" height="16" viewBox="0 0 16 16" fill="none" xmlns="http://www.w3.org/2000/svg">
<path d="M11 8C11 9.65685 9.65685 11 8 11C6.34315 11 5 9.65685 5 8C5 6.34315 6.34315 5 8 5C9.65685 5 11 6.34315 11 8ZM10 8C10 6.89543 9.10457 6 8 6C6.89543 6 6 6.89543 6 8C6 9.10457 6.89543 10 8 10C9.10457 10 10 9.10457 10 8Z" fill="black" fill-opacity="0.9"/>
<path d="M6.05352 2C5.85291 2 5.66557 2.10026 5.55429 2.26718L4.73241 3.5H2.01C1.72834 3.5 1.5 3.72833 1.5 4.01V12.49C1.5 12.7717 1.72833 13 2.01 13H13.99C14.2716 13 14.5 12.7717 14.5 12.49V4.01C14.5 3.72834 14.2717 3.5 13.99 3.5H11.2676L10.4457 2.26718C10.3344 2.10026 10.1471 2 9.94648 2H6.05352ZM6.26759 3H9.73241L10.7324 4.5H13.5V12H2.5V4.5H5.26759L6.26759 3Z" fill="black" fill-opacity="0.9"/>
</svg>
