<svg width="16" height="16" viewBox="0 0 16 16" fill="none" xmlns="http://www.w3.org/2000/svg">
<path d="M12.5174 1.33919C12.297 1.11875 11.9444 1.10385 11.7062 1.30492L7.66118 4.71867L6.89006 3.94755C6.65574 3.71324 6.27585 3.71324 6.04153 3.94755L3.93685 6.05223C3.70253 6.28655 3.70253 6.66645 3.93685 6.90076L6.1643 9.12821L2.05664 13.2359L2.76375 13.943L6.8714 9.83532L9.09873 12.0626C9.33304 12.297 9.71294 12.297 9.94726 12.0626L12.0519 9.95796C12.2863 9.72364 12.2863 9.34375 12.0519 9.10943L11.2808 8.33831L14.6946 4.29331C14.8956 4.05506 14.8807 3.70252 14.6603 3.48208L12.5174 1.33919ZM12.0702 2.30621L13.6933 3.92927L9.92392 8.39563L11.062 9.53369L9.52299 11.0727L4.9268 6.4765L6.4658 4.9375L7.60386 6.07557L12.0702 2.30621Z" fill="black" fill-opacity="0.9"/>
</svg>
