<svg width="16" height="16" viewBox="0 0 16 16" fill="none" xmlns="http://www.w3.org/2000/svg">
<g opacity="0.9">
<path d="M11.55 7.74017C11.75 7.85564 11.75 8.14432 11.55 8.25979L6.45 11.2043C6.25 11.3198 6 11.1754 6 10.9445L6 5.0555C6 4.82456 6.25 4.68022 6.45 4.79569L11.55 7.74017Z" fill="black" fill-opacity="0.9"/>
<path d="M8 1C11.866 1 15 4.13401 15 8C15 11.866 11.866 15 8 15C4.134 15 0.999998 11.866 1 8C1 4.134 4.13401 0.999998 8 1ZM8 2C4.68629 2 2 4.68629 2 8C2 11.3137 4.68629 14 8 14C11.3137 14 14 11.3137 14 8C14 4.68629 11.3137 2 8 2Z" fill="black" fill-opacity="0.9"/>
</g>
</svg>
