<svg width="16" height="16" viewBox="0 0 16 16" fill="none" xmlns="http://www.w3.org/2000/svg">
<path d="M7.5 1V8H8.5V1H7.5Z" fill="black" fill-opacity="0.9"/>
<path d="M1.5 8.50007C1.5 6.00518 2.90561 3.83859 4.96813 2.74901L5.46865 3.61594C3.70487 4.53193 2.5 6.3753 2.5 8.50008C2.5 11.5376 4.96243 14.0001 8 14.0001C11.0376 14.0001 13.5 11.5376 13.5 8.50008C13.5 6.37522 12.295 4.53179 10.5311 3.61583L11.0317 2.7489C13.0943 3.83844 14.5 6.0051 14.5 8.50008C14.5 12.0899 11.5898 15.0001 8 15.0001C4.41015 15.0001 1.5 12.0899 1.5 8.50007Z" fill="black" fill-opacity="0.9"/>
</svg>
