<svg width="16" height="16" viewBox="0 0 16 16" fill="none" xmlns="http://www.w3.org/2000/svg">
<g opacity="0.9">
<path d="M7.5 1.5V5H8.5V1.5H7.5ZM6.23223 5.52513L2.6967 1.98959L1.98959 2.6967L5.52513 6.23223L6.23223 5.52513ZM9.76777 5.52513L13.3033 1.98959L14.0104 2.6967L10.4749 6.23223L9.76777 5.52513ZM9 8C9 8.55229 8.55229 9 8 9C7.62986 9 7.30669 8.7989 7.13378 8.5H1.5V7.5H7.13378C7.30669 7.2011 7.62986 7 8 7C8.55229 7 9 7.44772 9 8ZM5.52513 9.76777L1.98959 13.3033L2.6967 14.0104L6.23223 10.4749L5.52513 9.76777ZM10.4749 9.76777L14.0104 13.3033L13.3033 14.0104L9.76777 10.4749L10.4749 9.76777ZM14.5 7.5H11V8.5H14.5V7.5ZM7.5 14.5V11H8.5V14.5H7.5Z" fill="black"/>
</g>
</svg>
