<svg width="16" height="16" viewBox="0 0 16 16" fill="none" xmlns="http://www.w3.org/2000/svg">
<path d="M3.99902 1.9989V3.9989H2.99902C2.44288 3.9989 1.99902 4.44276 1.99902 4.9989V9.9989C1.99902 10.555 2.44288 10.9989 2.99902 10.9989H3.99902V13.9989H11.999V10.9989H12.999C13.5552 10.9989 13.999 10.555 13.999 9.9989V4.9989C13.999 4.44276 13.5552 3.9989 12.999 3.9989H11.999V1.9989H3.99902ZM10.999 3.9989H4.99902V2.9989H10.999V3.9989ZM2.99902 4.9989H12.999V9.9989H11.999V7.9989H3.99902V9.9989H2.99902V4.9989ZM4.99902 12.9989V8.9989H10.999V12.9989H4.99902Z" fill="black" fill-opacity="0.9"/>
</svg>
