<svg width="16" height="16" viewBox="0 0 16 16" fill="none" xmlns="http://www.w3.org/2000/svg">
<path d="M6 4H4V6H6V4Z" fill="black" fill-opacity="0.9"/>
<path d="M2.5 2C2.22386 2 2 2.22386 2 2.5V7.5C2 7.77614 2.22386 8 2.5 8H7.5C7.77614 8 8 7.77614 8 7.5V2.5C8 2.22386 7.77614 2 7.5 2H2.5ZM3 3H7V7H3V3Z" fill="black" fill-opacity="0.9"/>
<path d="M10.5 2C10.2239 2 10 2.22386 10 2.5V5.5C10 5.77614 10.2239 6 10.5 6H13.5C13.7761 6 14 5.77614 14 5.5V2.5C14 2.22386 13.7761 2 13.5 2H10.5ZM11 5V3H13V5H11Z" fill="black" fill-opacity="0.9"/>
<path d="M10 10.5C10 10.2239 10.2239 10 10.5 10H13.5C13.7761 10 14 10.2239 14 10.5V13.5C14 13.7761 13.7761 14 13.5 14H10.5C10.2239 14 10 13.7761 10 13.5V10.5ZM11 13H13V11H11V13Z" fill="black" fill-opacity="0.9"/>
<path d="M2.5 10C2.22386 10 2 10.2239 2 10.5V13.5C2 13.7761 2.22386 14 2.5 14H5.5C5.77614 14 6 13.7761 6 13.5V10.5C6 10.2239 5.77614 10 5.5 10H2.5ZM3 11H5V13H3V11Z" fill="black" fill-opacity="0.9"/>
<path d="M14 7.5L10 7.5V8.5L14 8.5V7.5Z" fill="black" fill-opacity="0.9"/>
<path d="M8.5 11V14H7.5V11H8.5Z" fill="black" fill-opacity="0.9"/>
<path d="M8.5 10V9H7.5V10H8.5Z" fill="black" fill-opacity="0.9"/>
</svg>
