<svg width="16" height="16" viewBox="0 0 16 16" fill="none" xmlns="http://www.w3.org/2000/svg">
<path fill-rule="evenodd" clip-rule="evenodd" d="M5.5 5.5V2.5C5.5 1.94772 5.94772 1.5 6.5 1.5H13.5C14.0523 1.5 14.5 1.94772 14.5 2.5V9.5C14.5 10.0523 14.0523 10.5 13.5 10.5H10.5V13.5C10.5 14.0523 10.0523 14.5 9.5 14.5H2.5C1.94772 14.5 1.5 14.0523 1.5 13.5V6.5C1.5 5.94772 1.94772 5.5 2.5 5.5H5.5ZM6.5 2.5H13.5V9.5H10.5V6.5C10.5 5.94772 10.0523 5.5 9.5 5.5H6.5V2.5ZM9.5 10.5V13.5H2.5V6.5H5.5V9.5C5.5 10.0523 5.94772 10.5 6.5 10.5H9.5ZM9.5 9.5H6.5V6.5H9.5V9.5Z" fill="black" fill-opacity="0.9"/>
</svg>
