<svg width="16" height="16" viewBox="0 0 16 16" fill="none" xmlns="http://www.w3.org/2000/svg">
<path d="M7.3894 9.92886L10.9644 6.35379L10.2573 5.64669L7.38939 8.51464L5.74265 6.8679L5.03555 7.57501L7.3894 9.92886Z" fill="black" fill-opacity="0.9"/>
<path d="M2.50003 2L2.5 9.00005C2.5 10.4165 3.24315 11.729 4.45772 12.4578L7.99979 14.5831L11.5423 12.4578C12.7569 11.729 13.5 10.4165 13.5 9.00005L13.5001 2H2.50003ZM3.5 9.00005L3.50002 3H12.5001L12.5 9.00005C12.5 10.0652 11.9412 11.0523 11.0278 11.6003L7.99982 13.417L4.97223 11.6003C4.05886 11.0523 3.5 10.0652 3.5 9.00005Z" fill="black" fill-opacity="0.9"/>
</svg>
