<svg width="16" height="16" viewBox="0 0 16 16" fill="none" xmlns="http://www.w3.org/2000/svg">
<path d="M6.99976 5.25H3.99976V4.25H6.99976V5.25Z" fill="black" fill-opacity="0.9"/>
<path d="M1.5 2.50014C1.49993 2.22394 1.7238 2 2 2H14C14.2761 2 14.4999 2.22377 14.5 2.49986L14.5009 6.99988C14.501 7.27608 14.2771 7.50002 14.0009 7.50002H2.00095C1.72486 7.50002 1.50102 7.27624 1.50095 7.00015L1.5 2.50014ZM2.50081 6.50002H13.5008L13.5001 3H2.50014L2.50081 6.50002Z" fill="black" fill-opacity="0.9"/>
<path d="M3.99986 11.75H6.99986V10.75H3.99986V11.75Z" fill="black" fill-opacity="0.9"/>
<path d="M1.50109 9.00001C1.50109 8.72387 1.72494 8.50001 2.00109 8.50001H14.0011C14.2772 8.50001 14.5011 8.72387 14.5011 9.00001V13.5C14.5011 13.7761 14.2772 14 14.0011 14H2.00109C1.72494 14 1.50109 13.7761 1.50109 13.5V9.00001ZM2.50109 13H13.5011V9.50001H2.50109V13Z" fill="black" fill-opacity="0.9"/>
</svg>
