<svg width="16" height="16" viewBox="0 0 16 16" fill="none" xmlns="http://www.w3.org/2000/svg">
<path d="M2.51604 6.37387C2.73216 3.5341 5.10482 1.29718 7.99995 1.29718C10.8949 1.29718 13.2674 3.5338 13.4838 6.37328C13.4944 6.41375 13.5 6.45622 13.5 6.5V10.5C13.5 10.5506 13.4925 10.5995 13.4785 10.6455C13.2561 12.923 11.3359 14.7028 9 14.7028H8V13.7028H9C10.6587 13.7028 12.048 12.5489 12.4088 11H10.5C10.2239 11 10 10.7761 10 10.5V6.5C10 6.22386 10.2239 6 10.5 6H12.4295C12.0532 3.89498 10.2132 2.29718 7.99995 2.29718C5.78672 2.29718 3.94667 3.89498 3.57038 6H5.5C5.77614 6 6 6.22386 6 6.5V10.5C6 10.7761 5.77614 11 5.5 11H3C2.72386 11 2.5 10.7761 2.5 10.5V6.5C2.5 6.45643 2.50557 6.41416 2.51604 6.37387ZM12.4999 7H11V10H12.5L12.4999 7ZM3.5 7V10H5V7H3.5Z" fill="black" fill-opacity="0.9"/>
</svg>
