<svg width="16" height="16" viewBox="0 0 16 16" fill="none" xmlns="http://www.w3.org/2000/svg">
<path d="M9.93164 5.35774C10.355 5.81616 10.9612 6.10324 11.6344 6.10324C12.9142 6.10324 13.9517 5.06575 13.9517 3.78594C13.9517 2.50612 12.9142 1.46863 11.6344 1.46863C10.3546 1.46863 9.3171 2.50612 9.3171 3.78594C9.3171 4.03296 9.35575 4.27096 9.42734 4.49422L6.06804 6.45463C5.64466 5.99613 5.03844 5.709 4.36516 5.709C3.08535 5.709 2.04785 6.74649 2.04785 8.02631C2.04785 9.30612 3.08535 10.3436 4.36516 10.3436C5.03854 10.3436 5.64484 10.0564 6.06822 9.59778L9.4282 11.5557C9.35606 11.7797 9.3171 12.0187 9.3171 12.2667C9.3171 13.5465 10.3546 14.584 11.6344 14.584C12.9142 14.584 13.9517 13.5465 13.9517 12.2667C13.9517 10.9869 12.9142 9.94937 11.6344 9.94937C10.9622 9.94937 10.3568 10.2356 9.93356 10.6928L6.57236 8.73416C6.64386 8.51103 6.68247 8.27318 6.68247 8.02631C6.68247 7.77934 6.64383 7.5414 6.57228 7.31819L9.93164 5.35774ZM11.6344 2.46863C12.3619 2.46863 12.9517 3.05841 12.9517 3.78594C12.9517 4.51346 12.3619 5.10324 11.6344 5.10324C11.1607 5.10324 10.7454 4.85324 10.5133 4.47798C10.5084 4.4681 10.5031 4.45831 10.4974 4.44864C10.4918 4.43887 10.4858 4.42937 10.4795 4.42015C10.376 4.23201 10.3171 4.01585 10.3171 3.78594C10.3171 3.05841 10.9069 2.46863 11.6344 2.46863ZM5.48783 7.33682C5.49239 7.34584 5.49725 7.35478 5.50242 7.36363C5.50761 7.37253 5.51305 7.38122 5.5187 7.38968C5.62306 7.57838 5.68247 7.79541 5.68247 8.02631C5.68247 8.25725 5.62304 8.47431 5.51864 8.66304C5.51295 8.67156 5.50748 8.68031 5.50226 8.68928C5.49717 8.698 5.49239 8.70681 5.48789 8.7157C5.25607 9.09243 4.83995 9.34361 4.36516 9.34361C3.63763 9.34361 3.04785 8.75383 3.04785 8.02631C3.04785 7.29878 3.63763 6.709 4.36516 6.709C4.83991 6.709 5.256 6.96014 5.48783 7.33682ZM10.3171 12.2667C10.3171 12.0491 10.3699 11.8438 10.4633 11.663C10.4779 11.6445 10.4914 11.6247 10.5037 11.6037C10.5154 11.5835 10.5256 11.5628 10.5343 11.5418C10.77 11.1849 11.1747 10.9494 11.6344 10.9494C12.3619 10.9494 12.9517 11.5391 12.9517 12.2667C12.9517 12.9942 12.3619 13.584 11.6344 13.584C10.9069 13.584 10.3171 12.9942 10.3171 12.2667Z" fill="black" fill-opacity="0.9"/>
</svg>
