<svg width="16" height="16" viewBox="0 0 16 16" fill="none" xmlns="http://www.w3.org/2000/svg">
<path d="M3.99966 11L8.24241 13.5457C8.57568 13.7456 8.99966 13.5056 8.99966 13.1169V2.8831C8.99966 2.49445 8.57568 2.25439 8.24241 2.45435L3.99966 5H2.10448C1.77333 5 1.50479 5.26829 1.50448 5.59944L1.5 10.3994C1.49969 10.731 1.76841 11 2.1 11H3.99966ZM4.99966 5.56619L7.99966 3.76619V12.2338L4.99966 10.4338V5.56619ZM3.99966 10H2.50037L2.50411 6H3.99966V10Z" fill="black" fill-opacity="0.9"/>
<path d="M13.5147 5.72686C13.1938 5.00368 12.7213 4.34191 12.1206 3.78131L12.803 3.05025C13.4994 3.70026 14.0518 4.47194 14.4288 5.32122C14.8057 6.1705 14.9997 7.08075 14.9997 8C14.9997 8.91925 14.8057 9.8295 14.4288 10.6788C14.0518 11.5281 13.4994 12.2997 12.803 12.9497L12.1206 12.2187C12.7213 11.6581 13.1938 10.9963 13.5147 10.2731C13.8356 9.55017 13.9997 8.77797 13.9997 8C13.9997 7.22203 13.8356 6.44984 13.5147 5.72686Z" fill="black" fill-opacity="0.9"/>
<path d="M11.4997 8.00027C11.5005 7.12735 11.14 6.24663 10.4272 5.54638L11.128 4.83301C12.0228 5.71203 12.5007 6.84639 12.4997 8.00113C12.4987 9.15589 12.0188 10.2897 11.1224 11.1675L10.4228 10.453C11.137 9.75363 11.499 8.87324 11.4997 8.00027Z" fill="black" fill-opacity="0.9"/>
</svg>
