<svg width="16" height="16" viewBox="0 0 16 16" fill="none" xmlns="http://www.w3.org/2000/svg">
<path d="M5.49796 5.49805H10.502V10.5021H5.49796V5.49805Z" fill="black" fill-opacity="0.9"/>
<path d="M8 1C6.61553 1 5.26216 1.41054 4.11101 2.17971C2.95987 2.94888 2.06266 4.04213 1.53285 5.32122C1.00303 6.6003 0.86441 8.00776 1.13451 9.36563C1.4046 10.7235 2.07129 11.9708 3.05026 12.9497C4.02922 13.9287 5.2765 14.5954 6.63437 14.8655C7.99224 15.1356 9.3997 14.997 10.6788 14.4672C11.9579 13.9373 13.0511 13.0401 13.8203 11.889C14.5895 10.7378 15 9.38447 15 8C15 6.14348 14.2625 4.36301 12.9497 3.05025C11.637 1.7375 9.85652 1 8 1ZM8 2C9.18669 2 10.3467 2.35189 11.3334 3.01118C12.3201 3.67047 13.0892 4.60754 13.5433 5.7039C13.9974 6.80026 14.1162 8.00666 13.8847 9.17054C13.6532 10.3344 13.0818 11.4035 12.2426 12.2426C11.4035 13.0818 10.3344 13.6532 9.17054 13.8847C8.00666 14.1162 6.80026 13.9974 5.7039 13.5433C4.60755 13.0892 3.67047 12.3201 3.01119 11.3334C2.3519 10.3467 2 9.18669 2 8C2 6.4087 2.63214 4.88258 3.75736 3.75736C4.88258 2.63214 6.4087 2 8 2Z" fill="black" fill-opacity="0.9"/>
</svg>
