<svg width="48" height="48" viewBox="0 0 48 48" fill="none" xmlns="http://www.w3.org/2000/svg">
<path d="M18.5111 44.3535H10.3239C10.1883 44.3533 10.0543 44.3241 9.93092 44.2678C9.80754 44.2115 9.69767 44.1294 9.6087 44.027C9.51973 43.9247 9.45373 43.8044 9.41516 43.6744C9.37659 43.5444 9.36634 43.4076 9.3851 43.2733L10.9801 34.2684H21.0752L19.4297 43.5963C19.386 43.8084 19.271 43.9991 19.1039 44.1369C18.9368 44.2746 18.7276 44.351 18.5111 44.3535Z" fill="#009BFF"/>
<path d="M41.5585 13.9975H14.5439L16.3207 3.90236H42.9718C43.1177 3.88842 43.2649 3.90885 43.4015 3.96202C43.5382 4.01519 43.6604 4.09962 43.7586 4.20855C43.8567 4.31747 43.9279 4.44786 43.9666 4.58928C44.0053 4.7307 44.0103 4.87921 43.9813 5.02291L42.4872 13.2403C42.4467 13.4559 42.3312 13.6501 42.1613 13.7887C41.9913 13.9273 41.7777 14.0012 41.5585 13.9975Z" fill="url(#paint0_linear_23719_7530)"/>
<path d="M14.5438 13.9963H5.55914C5.42169 13.9979 5.28554 13.9695 5.16012 13.9133C5.0347 13.857 4.92301 13.7742 4.83276 13.6705C4.74251 13.5668 4.67587 13.4447 4.63744 13.3127C4.59901 13.1808 4.58972 13.042 4.6102 12.9061L6.07399 4.67857C6.11398 4.46109 6.22866 4.2644 6.39824 4.12248C6.56781 3.98055 6.78162 3.9023 7.00274 3.90125H16.3205L14.5438 13.9963Z" fill="#0064FF"/>
<path d="M21.086 34.2382H10.9707L14.5444 14.0177H24.6597L21.086 34.2382Z" fill="url(#paint1_linear_23719_7530)"/>
<defs>
<linearGradient id="paint0_linear_23719_7530" x1="15.4103" y1="8.96" x2="42.3495" y2="13.8091" gradientUnits="userSpaceOnUse">
<stop offset="0.03" stop-color="#E9FFFF"/>
<stop offset="0.17" stop-color="#C4FAC9"/>
<stop offset="0.33" stop-color="#A0F694"/>
<stop offset="0.48" stop-color="#82F269"/>
<stop offset="0.63" stop-color="#6AEF47"/>
<stop offset="0.76" stop-color="#5AED2F"/>
<stop offset="0.89" stop-color="#4FEB20"/>
<stop offset="1" stop-color="#4CEB1B"/>
</linearGradient>
<linearGradient id="paint1_linear_23719_7530" x1="19.5897" y1="13.2807" x2="19.7808" y2="32.3058" gradientUnits="userSpaceOnUse">
<stop stop-color="#009BFF"/>
<stop offset="0.35" stop-color="#0081FE"/>
<stop offset="0.75" stop-color="#006AFD"/>
<stop offset="1" stop-color="#0062FD"/>
</linearGradient>
</defs>
</svg>
