<svg width="16" height="16" viewBox="0 0 16 16" fill="none" xmlns="http://www.w3.org/2000/svg">
<path d="M9.75056 8.24943L10.3118 8.40417C11.3109 8.67963 12.3996 8.42901 13.1581 7.67052C13.8303 6.99831 14.1035 6.06341 13.9654 5.16621L12.909 6.22262C12.3232 6.80839 11.3735 6.80841 10.7877 6.22265L10.3634 5.7984C9.77758 5.21262 9.77757 4.26285 10.3634 3.67705L11.4198 2.62058C10.5226 2.48241 9.58765 2.75565 8.91542 3.42788C8.15697 4.18632 7.90634 5.27494 8.18172 6.27395L8.33641 6.83516L2.53207 12.6395L3.94628 14.0537L9.75056 8.24943ZM12.2439 1.7965C12.5739 1.90785 12.893 2.06333 13.1918 2.26284L11.0705 4.38415C10.8752 4.57942 10.8752 4.89601 11.0705 5.09127L11.4948 5.51552C11.69 5.71077 12.0066 5.71077 12.2019 5.51551L14.3231 3.39423C14.5227 3.69303 14.6781 4.01209 14.7895 4.34211C15.255 5.72209 14.9491 7.29373 13.8652 8.37763C12.8375 9.40526 11.3715 9.73365 10.046 9.3682L4.65339 14.7608C4.26287 15.1513 3.6297 15.1513 3.23918 14.7608L1.82496 13.3466C1.43444 12.9561 1.43444 12.3229 1.82496 11.9324L7.21767 6.53969C6.85233 5.21428 7.18074 3.74834 8.20831 2.72077C9.29223 1.63686 10.8639 1.33087 12.2439 1.7965Z" fill="black" fill-opacity="0.9"/>
</svg>
