<svg width="16" height="16" viewBox="0 0 16 16" fill="none" xmlns="http://www.w3.org/2000/svg">
<path d="M7.46171 1.34645C7.02232 1.12482 6.52575 1 6.00003 1C4.2051 1 2.75003 2.45507 2.75003 4.25C2.75003 6.02947 4.18015 7.47491 5.95373 7.49968V6.49953C4.73246 6.47488 3.75003 5.47717 3.75003 4.25C3.75003 3.00736 4.75739 2 6.00003 2C6.2937 2 6.57424 2.05626 6.83144 2.1586L7.46171 1.34645Z" fill="black" fill-opacity="0.9"/>
<path d="M5.95373 8.22094C4.01922 8.22779 2.18917 8.66419 0.540929 9.43593C0.204537 9.59344 0 9.9372 0 10.3086V12.5C0 12.7761 0.223857 13 0.5 13H2.85709V12H1V10.3252C2.51071 9.62379 4.18421 9.22774 5.95373 9.22095V8.22094Z" fill="black" fill-opacity="0.9"/>
<path d="M13.2499 5.06354C13.2499 6.85846 11.7948 8.31354 9.99992 8.31354C8.20499 8.31354 6.74992 6.85846 6.74992 5.06354C6.74992 3.26861 8.20499 1.81354 9.99992 1.81354C11.7948 1.81354 13.2499 3.26861 13.2499 5.06354ZM12.2499 5.06354C12.2499 3.8209 11.2426 2.81354 9.99992 2.81354C8.75728 2.81354 7.74992 3.8209 7.74992 5.06354C7.74992 6.30618 8.75728 7.31354 9.99992 7.31354C11.2426 7.31354 12.2499 6.30618 12.2499 5.06354Z" fill="black" fill-opacity="0.9"/>
<path d="M11 10.4718C10.6704 10.4442 10.3369 10.43 9.99997 10.43C8.21334 10.43 6.52384 10.8269 4.99996 11.5344V13.5H10.5V14.5H4.49996C4.22382 14.5 3.99996 14.2761 3.99996 14V11.5178C3.99996 11.1464 4.2045 10.8026 4.54089 10.6451C6.20227 9.86723 8.04837 9.43005 9.99997 9.43005C10.3366 9.43005 10.6701 9.44305 11 9.46857V10.4718Z" fill="black" fill-opacity="0.9"/>
<path d="M13.1369 12.344L11.6881 13.7929L12.3952 14.5L13.844 13.0512L15.2929 14.5L16 13.7929L14.5512 12.344L16.0001 10.8951L15.293 10.188L13.844 11.6369L12.3951 10.188L11.688 10.8951L13.1369 12.344Z" fill="black" fill-opacity="0.9"/>
</svg>
