<svg width="16" height="16" viewBox="0 0 16 16" fill="none" xmlns="http://www.w3.org/2000/svg">
<path d="M8 8.5C9.933 8.5 11.5 6.933 11.5 5C11.5 3.067 9.933 1.5 8 1.5C6.067 1.5 4.5 3.067 4.5 5C4.5 6.933 6.067 8.5 8 8.5ZM8 7.5C6.61929 7.5 5.5 6.38071 5.5 5C5.5 3.61929 6.61929 2.5 8 2.5C9.38071 2.5 10.5 3.61929 10.5 5C10.5 6.38071 9.38071 7.5 8 7.5Z" fill="black" fill-opacity="0.9"/>
<path d="M10.5 10.7452C9.69127 10.5844 8.85582 10.5 8 10.5C6.0334 10.5 4.17435 10.9457 2.5 11.7398V13.5H10.5V14.5H2C1.72386 14.5 1.5 14.2761 1.5 14V11.7246C1.5 11.3547 1.70302 11.0122 2.03686 10.8528C3.8494 9.98708 5.86651 9.5 8 9.5C8.85386 9.5 9.68908 9.57802 10.5 9.7271V10.7452Z" fill="black" fill-opacity="0.9"/>
<path d="M11.4038 14.2929L12.9947 12.702L11.4037 11.1109L12.1108 10.4038L13.7018 11.9949L15.2929 10.4038L16 11.1109L14.4089 12.702L15.9999 14.2929L15.2928 15L13.7018 13.4091L12.1109 15L11.4038 14.2929Z" fill="black" fill-opacity="0.9"/>
</svg>
