<svg width="16" height="16" viewBox="0 0 16 16" fill="none" xmlns="http://www.w3.org/2000/svg">
<path d="M4.18182 5.3913C4.18182 3.51834 5.64707 2 7.45455 2C9.26202 2 10.7273 3.51834 10.7273 5.3913C10.7273 7.26427 9.26202 8.78261 7.45455 8.78261C5.64707 8.78261 4.18182 7.26427 4.18182 5.3913ZM9.63636 5.3913C9.63636 4.14266 8.65953 3.13043 7.45455 3.13043C6.24956 3.13043 5.27273 4.14266 5.27273 5.3913C5.27273 6.63995 6.24956 7.65217 7.45455 7.65217C8.65953 7.65217 9.63636 6.63995 9.63636 5.3913Z" fill="black" fill-opacity="0.9"/>
<path d="M7.45455 9.34783C8.20793 9.34783 8.93901 9.44675 9.63636 9.63274V10.806C8.94504 10.5927 8.2127 10.4783 7.45455 10.4783C5.83209 10.4783 4.32782 11.0026 3.09091 11.8966L3.09091 13.8696H9.63636V15H3.09091C2.48842 15 2 14.4939 2 13.8696V11.808C2 11.384 2.22893 10.9957 2.59296 10.8022L3.22384 10.4783H3.22617C4.47881 9.75799 5.92045 9.34783 7.45455 9.34783Z" fill="black" fill-opacity="0.9"/>
<path d="M11.8182 9.34783V11.6087H14V12.7391H11.8182V15H10.7273V12.7391H8.54545V11.6087H10.7273V9.34783H11.8182Z" fill="black" fill-opacity="0.9"/>
</svg>
