<svg width="16" height="16" viewBox="0 0 16 16" fill="none" xmlns="http://www.w3.org/2000/svg">
<path d="M13.3284 7.82844C14.8905 6.26634 14.8905 3.73368 13.3284 2.17158L14.0355 1.46448C15.9881 3.4171 15.9881 6.58292 14.0355 8.53555L13.3284 7.82844Z" fill="black" fill-opacity="0.9"/>
<path d="M11 5C11 6.933 9.433 8.5 7.5 8.5C5.567 8.5 4 6.933 4 5C4 3.067 5.567 1.5 7.5 1.5C9.433 1.5 11 3.067 11 5ZM10 5C10 3.61929 8.88071 2.5 7.5 2.5C6.11929 2.5 5 3.61929 5 5C5 6.38071 6.11929 7.5 7.5 7.5C8.88071 7.5 10 6.38071 10 5Z" fill="black" fill-opacity="0.9"/>
<path d="M13.4631 10.8528C13.797 11.0122 14 11.3547 14 11.7246L14 14C14 14.2761 13.7761 14.5 13.5 14.5L1.5 14.5C1.22386 14.5 1 14.2761 1 14V11.7246C1 11.3547 1.20302 11.0122 1.53686 10.8528C3.3494 9.98707 5.36651 9.5 7.5 9.5C9.63349 9.5 11.6506 9.98708 13.4631 10.8528ZM7.5 10.5C5.5334 10.5 3.67435 10.9457 2 11.7398L2 13.5H13V11.7398C11.3257 10.9457 9.4666 10.5 7.5 10.5Z" fill="black" fill-opacity="0.9"/>
<path d="M11.9142 3.58577C12.6953 4.36682 12.6953 5.63315 11.9142 6.4142L12.6213 7.1213C13.7929 5.94973 13.7929 4.05023 12.6213 2.87866L11.9142 3.58577Z" fill="black" fill-opacity="0.9"/>
</svg>
