<svg width="16" height="16" viewBox="0 0 16 16" fill="none" xmlns="http://www.w3.org/2000/svg">
<path d="M8 10.5C9.24124 10.5 10.4221 10.8126 11.5 11.3795V12.5L12.5 12.5V11.3584C12.5 11.0106 12.3213 10.6842 12.0145 10.5204C10.7893 9.86653 9.43252 9.5 8 9.5C6.56748 9.5 5.21075 9.86653 3.9855 10.5204C3.67873 10.6842 3.5 11.0106 3.5 11.3584V12.5H4.5V11.3795C5.57794 10.8126 6.75876 10.5 8 10.5Z" fill="black" fill-opacity="0.9"/>
<path d="M10.5 6C10.5 7.38071 9.38071 8.5 8 8.5C6.61929 8.5 5.5 7.38071 5.5 6C5.5 4.61929 6.61929 3.5 8 3.5C9.38071 3.5 10.5 4.61929 10.5 6ZM9.5 6C9.5 5.17157 8.82843 4.5 8 4.5C7.17157 4.5 6.5 5.17157 6.5 6C6.5 6.82843 7.17157 7.5 8 7.5C8.82843 7.5 9.5 6.82843 9.5 6Z" fill="black" fill-opacity="0.9"/>
<path d="M2.5 1.5C1.94772 1.5 1.5 1.94772 1.5 2.5V13.5C1.5 14.0523 1.94772 14.5 2.5 14.5H13.5C14.0523 14.5 14.5 14.0523 14.5 13.5V2.5C14.5 1.94772 14.0523 1.5 13.5 1.5H2.5ZM13.5 2.5V13.5H2.5L2.5 2.5H13.5Z" fill="black" fill-opacity="0.9"/>
</svg>
