<svg width="16" height="16" viewBox="0 0 16 16" fill="none" xmlns="http://www.w3.org/2000/svg">
<path d="M6.00003 1C6.52575 1 7.02232 1.12482 7.46171 1.34645L6.83144 2.1586C6.57424 2.05626 6.2937 2 6.00003 2C4.75739 2 3.75003 3.00736 3.75003 4.25C3.75003 5.47717 4.73246 6.47488 5.95373 6.49953V7.49968C4.18015 7.47491 2.75003 6.02947 2.75003 4.25C2.75003 2.45507 4.2051 1 6.00003 1Z" fill="black" fill-opacity="0.9"/>
<path d="M0.540929 9.43593C2.18917 8.66419 4.01922 8.22779 5.95373 8.22094V9.22095C4.18421 9.22774 2.51071 9.62379 1 10.3252V12H2.85709V13H0.5C0.223857 13 0 12.7761 0 12.5V10.3086C0 9.9372 0.204537 9.59344 0.540929 9.43593Z" fill="black" fill-opacity="0.9"/>
<path d="M9.99992 8.31354C8.20499 8.31354 6.74992 6.85846 6.74992 5.06354C6.74992 3.26861 8.20499 1.81354 9.99992 1.81354C11.7948 1.81354 13.2499 3.26861 13.2499 5.06354C13.2499 6.85846 11.7948 8.31354 9.99992 8.31354ZM9.99992 7.31354C11.2426 7.31354 12.2499 6.30618 12.2499 5.06354C12.2499 3.8209 11.2426 2.81354 9.99992 2.81354C8.75728 2.81354 7.74992 3.8209 7.74992 5.06354C7.74992 6.30618 8.75728 7.31354 9.99992 7.31354Z" fill="black" fill-opacity="0.9"/>
<path d="M16 11.5178C16 11.1464 15.7954 10.8026 15.459 10.6451C13.7977 9.86723 11.9516 9.43005 9.99997 9.43005C8.04837 9.43005 6.20227 9.86723 4.54089 10.6451C4.2045 10.8026 3.99996 11.1464 3.99996 11.5178V14C3.99996 14.2761 4.22382 14.5 4.49996 14.5H15.5C15.7761 14.5 16 14.2761 16 14V11.5178ZM15 11.5344V13.5H4.99996V11.5344C6.52384 10.8269 8.21334 10.43 9.99997 10.43C11.7866 10.43 13.4761 10.8269 15 11.5344Z" fill="black" fill-opacity="0.9"/>
</svg>
