<svg width="16" height="16" viewBox="0 0 16 16" fill="none" xmlns="http://www.w3.org/2000/svg">
<path d="M10.1538 10.7039L10.8518 9.98792C10.0273 9.14911 9.02344 8.68878 7.98511 8.68878C6.95947 8.68878 5.96729 9.13812 5.14844 9.95776L5.84619 10.6735C6.50928 10.0049 7.26562 9.68878 7.98511 9.68878C8.71558 9.68878 9.48364 10.0145 10.1538 10.7039Z" fill="black" fill-opacity="0.9"/>
<path d="M12.1787 8.62726L12.877 7.91107C11.5032 6.49573 9.77661 5.71289 7.98584 5.71289C6.20752 5.71289 4.49243 6.4848 3.12354 7.88129L3.82178 8.59735C5.02881 7.35773 6.50415 6.71289 7.98584 6.71289C9.47925 6.71289 10.9661 7.3681 12.1787 8.62726Z" fill="black" fill-opacity="0.9"/>
<path d="M14.1333 6.62262L14.8318 5.90637C12.9299 3.94037 10.5044 2.84937 7.98608 2.84937C5.48022 2.84937 3.06641 3.92944 1.16895 5.87683L1.86719 6.59302C3.59937 4.80597 5.77173 3.84937 7.98608 3.84937C10.2126 3.84937 12.3965 4.81653 14.1333 6.62262Z" fill="black" fill-opacity="0.9"/>
<path d="M9.00024 12.5001C9.00024 13.0524 8.55249 13.5001 8.00024 13.5001C7.448 13.5001 7.00024 13.0524 7.00024 12.5001C7.00024 11.9478 7.448 11.5001 8.00024 11.5001C8.55249 11.5001 9.00024 11.9478 9.00024 12.5001Z" fill="black" fill-opacity="0.9"/>
</svg>
