<svg width="16" height="16" viewBox="0 0 16 16" fill="none" xmlns="http://www.w3.org/2000/svg">
<path d="M10.1538 10.7038L10.8518 9.98785C10.0273 9.14905 9.02344 8.68872 7.98511 8.68872C6.95947 8.68872 5.96729 9.13806 5.14844 9.9577L5.84619 10.6735C6.50928 10.0049 7.26562 9.68872 7.98511 9.68872C8.71558 9.68872 9.48364 10.0145 10.1538 10.7038Z" fill="black" fill-opacity="0.9"/>
<path d="M12.1787 8.6272L12.877 7.91101C11.5032 6.49567 9.77661 5.71283 7.98584 5.71283C6.20752 5.71283 4.49243 6.48474 3.12354 7.88123L3.82178 8.59729C5.02881 7.35767 6.50415 6.71283 7.98584 6.71283C9.47925 6.71283 10.9661 7.36804 12.1787 8.6272Z" fill="black" fill-opacity="0.9"/>
<path d="M14.1333 6.62256L14.8318 5.90631C12.9299 3.94031 10.5044 2.8493 7.98608 2.8493C5.48022 2.8493 3.06641 3.92938 1.16895 5.87677L1.86719 6.59296C3.59937 4.80591 5.77173 3.8493 7.98608 3.8493C10.2126 3.8493 12.3965 4.81647 14.1333 6.62256Z" fill="black" fill-opacity="0.9"/>
<path d="M9.00024 12.5C9.00024 13.0523 8.55249 13.5 8.00024 13.5C7.448 13.5 7.00024 13.0523 7.00024 12.5C7.00024 11.9477 7.448 11.5 8.00024 11.5C8.55249 11.5 9.00024 11.9477 9.00024 12.5Z" fill="black" fill-opacity="0.9"/>
</svg>
