<svg width="16" height="16" viewBox="0 0 16 16" fill="none" xmlns="http://www.w3.org/2000/svg">
<path d="M9 7H4V6H9V7Z" fill="black" fill-opacity="0.9"/>
<path d="M9.51099 10.2181C8.69245 10.8812 7.64973 11.2784 6.51424 11.2784C3.88302 11.2784 1.75 9.14541 1.75 6.51421C1.75 3.88301 3.88302 1.75 6.51424 1.75C9.14545 1.75 11.2785 3.88301 11.2785 6.51421C11.2785 7.64972 10.8812 8.69245 10.2181 9.511L13.7494 13.0423L13.0423 13.7494L9.51099 10.2181ZM10.2785 6.51421C10.2785 4.4353 8.59317 2.75 6.51424 2.75C4.4353 2.75 2.75 4.4353 2.75 6.51421C2.75 8.59312 4.4353 10.2784 6.51424 10.2784C8.59317 10.2784 10.2785 8.59312 10.2785 6.51421Z" fill="black" fill-opacity="0.9"/>
</svg>
